<svg width="202" height="78" viewBox="0 0 202 78" fill="none" xmlns="http://www.w3.org/2000/svg">
<path d="M11.1621 66.201C11.1621 62.4021 14.2417 59.3225 18.0406 59.3225H70.3113V74.7025H18.0406C14.2417 74.7025 11.1621 71.6228 11.1621 67.824V66.201Z" fill="#EEEEEE"/>
<path d="M36.2734 66.201C36.2734 62.4021 39.353 59.3225 43.1519 59.3225H70.3121V74.7025H43.1519C39.353 74.7025 36.2734 71.6228 36.2734 67.824V66.201Z" fill="#E0E0E0"/>
<path d="M39.0625 65.5072C39.0625 63.6078 40.6023 62.068 42.5018 62.068H70.3111V71.9551H42.5018C40.6023 71.9551 39.0625 70.4152 39.0625 68.5158V65.5072Z" fill="white"/>
<path d="M39.0625 65.5072C39.0625 63.6078 40.6023 62.068 42.5018 62.068H70.3111V65.9129H39.0625V65.5072Z" fill="#F4F4F4"/>
<rect x="18.9727" y="65.3644" width="9.48619" height="3.2957" rx="1.64785" fill="#E0E0E0"/>
<path d="M73.6582 52.4458C73.6582 56.2447 70.5786 59.3243 66.7797 59.3243L22.8792 59.3243L22.8792 43.9444L66.7797 43.9444C70.5786 43.9444 73.6582 47.024 73.6582 50.8229L73.6582 52.4458Z" fill="#EEEEEE"/>
<path d="M49.6621 52.4459C49.6621 56.2448 46.5825 59.3244 42.7836 59.3244L22.8776 59.3244L22.8776 43.9445L42.7836 43.9445C46.5825 43.9445 49.6621 47.0241 49.6621 50.823L49.6621 52.4459Z" fill="#E0E0E0"/>
<path d="M46.873 53.1397C46.873 55.0392 45.3332 56.579 43.4338 56.579L22.8786 56.579L22.8786 46.6919L43.4338 46.6919C45.3332 46.6919 46.873 48.2317 46.873 50.1311L46.873 53.1397Z" fill="white"/>
<path d="M46.873 53.1397C46.873 55.0392 45.3332 56.579 43.4338 56.579L22.8786 56.579L22.8786 52.734L46.873 52.734L46.873 53.1397Z" fill="#F4F4F4"/>
<rect x="31.8066" y="18.6766" width="26.7845" height="25.267" rx="8.59813" fill="#E0E0E0"/>
<rect x="31.8066" y="18.6766" width="18.9724" height="25.267" rx="8.59813" fill="#EEEEEE"/>
<path fill-rule="evenodd" clip-rule="evenodd" d="M59.2633 24.1688H58.5918V27.4653H59.6166C61.5161 27.4653 63.0559 29.0051 63.0559 30.9045V31.716C63.0559 33.6154 61.5161 35.1552 59.6166 35.1552H58.5918V38.4502H59.2633C63.207 38.4502 66.404 35.2532 66.404 31.3095C66.404 27.3658 63.207 24.1688 59.2633 24.1688Z" fill="#E0E0E0"/>
<path d="M41.507 17.0277C48.7611 11.8095 41.507 7.4152 40.391 3.02093C32.0207 7.96448 40.9491 13.1827 41.507 17.0277Z" fill="#EEEEEE"/>
<path d="M45.9707 16.2039C48.7608 11.535 42.3436 0.274642 55.1779 0C51.8298 2.19713 59.363 17.3024 45.9707 16.2039Z" fill="#EEEEEE"/>
<path d="M70.3105 18.4862C70.3105 13.7376 74.1601 9.88805 78.9087 9.88805H146.53C151.279 9.88805 155.128 13.7376 155.128 18.4862V71.2642C155.128 73.1637 153.588 74.7035 151.689 74.7035H73.7498C71.8504 74.7035 70.3105 73.1637 70.3105 71.2642V18.4862Z" fill="#727272"/>
<path d="M70.3105 18.4862C70.3105 13.7376 74.1601 9.88805 78.9087 9.88805H138.718C143.467 9.88805 147.316 13.7376 147.316 18.4862V66.1054C147.316 70.854 143.467 74.7035 138.718 74.7035H78.9087C74.1601 74.7035 70.3105 70.854 70.3105 66.1054V18.4862Z" fill="#AAAAAA"/>
<path d="M73.6562 18.3414C73.6562 15.4923 75.966 13.1826 78.8151 13.1826H138.807C141.656 13.1826 143.966 15.4923 143.966 18.3414V63.7166H73.6562V18.3414Z" fill="#727272"/>
<path d="M77.0059 18.3414C77.0059 15.4923 79.3156 13.1826 82.1647 13.1826H138.808C141.657 13.1826 143.967 15.4923 143.967 18.3414V63.7166H77.0059V18.3414Z" fill="#FAF8F3"/>
<path d="M77.0059 18.3414C77.0059 15.4923 79.3156 13.1826 82.1647 13.1826H138.808C141.657 13.1826 143.967 15.4923 143.967 18.3414V20.8725H77.0059V18.3414Z" fill="#D9DDDF"/>
<path d="M43.5254 70.4514C43.5254 68.552 45.0652 67.0122 46.9646 67.0122H151.688C153.588 67.0122 155.128 68.552 155.128 70.4514V71.2629C155.128 73.1623 153.588 74.7021 151.688 74.7021H46.9646C45.0652 74.7021 43.5254 73.1623 43.5254 71.2629V70.4514Z" fill="#727272"/>
<path d="M43.5254 70.4514C43.5254 68.552 45.0652 67.0122 46.9646 67.0122H120.44C122.339 67.0122 123.879 68.552 123.879 70.4514V71.2629C123.879 73.1623 122.339 74.7021 120.44 74.7021H46.9646C45.0652 74.7021 43.5254 73.1623 43.5254 71.2629V70.4514Z" fill="#939393"/>
<path d="M70.3105 67.0122H97.0951V67.9672C97.0951 69.8666 95.5553 71.4065 93.6558 71.4065H73.7498C71.8504 71.4065 70.3105 69.8666 70.3105 67.9672V67.0122Z" fill="#727272"/>
<path d="M72.543 67.0122H97.0955V67.9672C97.0955 69.8666 95.5556 71.4065 93.6562 71.4065H75.9822C74.0828 71.4065 72.543 69.8666 72.543 67.9672V67.0122Z" fill="#3D3D3D"/>
<path d="M141.178 69.7595H145.642V71.9567H141.178V69.7595Z" fill="#3D3D3D"/>
<path d="M146.758 69.7595H151.222V71.9567H146.758V69.7595Z" fill="#3D3D3D"/>
<path d="M81.4707 17.0285C81.4707 16.4218 81.9625 15.9299 82.5693 15.9299H82.6042C83.2109 15.9299 83.7027 16.4218 83.7027 17.0285C83.7027 17.6352 83.2109 18.127 82.6042 18.127H82.5693C81.9625 18.127 81.4707 17.6352 81.4707 17.0285Z" fill="#F94B28"/>
<path d="M84.8184 17.0285C84.8184 16.4218 85.3102 15.9299 85.9169 15.9299H85.9518C86.5586 15.9299 87.0504 16.4218 87.0504 17.0285C87.0504 17.6352 86.5586 18.127 85.9518 18.127H85.9169C85.3102 18.127 84.8184 17.6352 84.8184 17.0285Z" fill="#FFCE03"/>
<path d="M88.166 17.0285C88.166 16.4218 88.6579 15.9299 89.2646 15.9299H89.2995C89.9062 15.9299 90.3981 16.4218 90.3981 17.0285C90.3981 17.6352 89.9062 18.127 89.2995 18.127H89.2646C88.6579 18.127 88.166 17.6352 88.166 17.0285Z" fill="#7FC92E"/>
<ellipse cx="110.486" cy="41.1983" rx="7.81215" ry="7.68997" stroke="#F2EDDF" stroke-width="5.15888"/>
<path d="M110.486 48.8874C106.171 48.8874 102.674 45.4445 102.674 41.1975" stroke="#1A96F6" stroke-width="5.15888" stroke-linecap="round"/>
<path d="M176.379 29.5241C175.508 26.6369 172.074 25.2481 168.557 23.2864C167.906 22.9233 167.062 23.2694 166.852 23.9825C165.839 27.421 164.488 30.4509 165.562 32.8946C167.098 36.3937 171.46 37.1552 173.448 37.0985C174.697 36.1398 177.145 32.0643 176.379 29.5241Z" fill="#EEEEEE"/>
<path d="M170.195 29.6652C175.775 38.1791 173.543 45.7818 173.543 55.2069" stroke="#E0E0E0" stroke-width="3.43925" stroke-linecap="round"/>
<path d="M190.256 46.4095C193.314 46.4111 195.645 43.5685 198.557 40.8106C199.097 40.2982 199.006 39.405 198.375 39.0055C195.312 37.0676 192.745 34.9264 190.058 35.2425C186.212 35.6948 184.227 39.5927 183.716 41.4852C184.293 42.9365 187.564 46.4081 190.256 46.4095Z" fill="#EEEEEE"/>
<path d="M170.769 33.883C167.705 30.8644 162.402 31.5361 156.645 31.3778C155.899 31.3573 155.328 32.0593 155.496 32.7863C156.651 37.7777 156.948 42.5517 159.97 44.8909C164.14 48.1199 169.9 46.2364 172.258 44.8909C173.127 42.934 173.375 36.4515 170.769 33.883Z" fill="#F6F6F6"/>
<path d="M186.065 46.8271C189.837 44.7319 190.601 39.5285 192.296 34.1156C192.518 33.4058 192.001 32.6722 191.257 32.638C186.051 32.3981 181.287 31.3941 178.183 33.6371C173.905 36.7276 174.206 42.6943 174.891 45.2914C176.574 46.6396 182.852 48.6113 186.065 46.8271Z" fill="#F6F6F6"/>
<path d="M165.412 39.3429C169.668 41.4374 175.217 46.9685 177.469 53.6551C176.333 46.9685 176.891 39.3429 184.703 37.9054" stroke="#EEEEEE" stroke-width="3.43925" stroke-linecap="round"/>
<path d="M186.24 74.7061H164.193C161.344 74.7061 159.034 72.3964 159.034 69.5472V48.4841C159.034 46.5846 160.574 45.0448 162.473 45.0448H187.959C189.859 45.0448 191.398 46.5846 191.398 48.4841V69.5472C191.398 72.3964 189.089 74.7061 186.24 74.7061Z" fill="#E0E0E0"/>
<path d="M164.194 74.7061H178.429C181.278 74.7061 183.588 72.3964 183.588 69.5472V48.4841C183.588 46.5846 182.048 45.0448 180.148 45.0448H162.474C160.575 45.0448 159.035 46.5846 159.035 48.4841V69.5472C159.035 72.3964 161.345 74.7061 164.194 74.7061Z" fill="#EEEEEE"/>
<path d="M70.3105 18.4862C70.3105 13.7376 74.1601 9.88805 78.9087 9.88805H146.53C151.279 9.88805 155.128 13.7376 155.128 18.4862V71.2642C155.128 73.1637 153.588 74.7035 151.689 74.7035H73.7498C71.8504 74.7035 70.3105 73.1637 70.3105 71.2642V18.4862Z" fill="#1A96F6"/>
<path d="M70.3105 18.4862C70.3105 13.7376 74.1601 9.88805 78.9087 9.88805H138.718C143.467 9.88805 147.316 13.7376 147.316 18.4862V66.1054C147.316 70.854 143.467 74.7035 138.718 74.7035H78.9087C74.1601 74.7035 70.3105 70.854 70.3105 66.1054V18.4862Z" fill="#33CCFF"/>
<path d="M73.6562 18.3414C73.6562 15.4923 75.966 13.1826 78.8151 13.1826H138.807C141.656 13.1826 143.966 15.4923 143.966 18.3414V63.7166H73.6562V18.3414Z" fill="#1A96F6"/>
<path d="M77.0059 18.3414C77.0059 15.4923 79.3156 13.1826 82.1647 13.1826H138.808C141.657 13.1826 143.967 15.4923 143.967 18.3414V63.7166H77.0059V18.3414Z" fill="#FAF8F3"/>
<path d="M111.451 33.9994C107.073 33.9994 103.49 37.5994 103.49 41.9994C103.49 46.3994 107.073 49.9994 111.451 49.9994C115.83 49.9994 119.412 46.3994 119.412 41.9994C119.412 37.5994 115.83 33.9994 111.451 33.9994Z" fill="#F94B28"/>
<path d="M113.243 38.7994L111.452 40.5994L109.661 38.7994L108.268 40.1994L110.059 41.9994L108.268 43.7994L109.661 45.1994L111.452 43.3994L113.243 45.1994L114.636 43.7994L112.845 41.9994L114.636 40.1994L113.243 38.7994Z" fill="white"/>
<path d="M77.0059 18.3414C77.0059 15.4923 79.3156 13.1826 82.1647 13.1826H138.808C141.657 13.1826 143.967 15.4923 143.967 18.3414V20.3233H77.0059V18.3414Z" fill="#D9DDDF"/>
<path d="M43.5254 70.4514C43.5254 68.552 45.0652 67.0122 46.9646 67.0122H151.688C153.588 67.0122 155.128 68.552 155.128 70.4514V71.2629C155.128 73.1623 153.588 74.7021 151.688 74.7021H46.9646C45.0652 74.7021 43.5254 73.1623 43.5254 71.2629V70.4514Z" fill="#1A96F6"/>
<path d="M43.5254 70.4514C43.5254 68.552 45.0652 67.0122 46.9646 67.0122H120.44C122.339 67.0122 123.879 68.552 123.879 70.4514V71.2629C123.879 73.1623 122.339 74.7021 120.44 74.7021H46.9646C45.0652 74.7021 43.5254 73.1623 43.5254 71.2629V70.4514Z" fill="#33CCFF"/>
<path d="M70.3105 67.0122H97.0951V67.9672C97.0951 69.8666 95.5553 71.4065 93.6558 71.4065H73.7498C71.8504 71.4065 70.3105 69.8666 70.3105 67.9672V67.0122Z" fill="#1A96F6"/>
<path d="M72.543 67.0122H97.0955V67.9672C97.0955 69.8666 95.5556 71.4065 93.6562 71.4065H75.9822C74.0828 71.4065 72.543 69.8666 72.543 67.9672V67.0122Z" fill="#0053CF"/>
<path d="M141.178 69.7595H145.642V71.9567H141.178V69.7595Z" fill="#0053CF"/>
<path d="M146.758 69.7595H151.222V71.9567H146.758V69.7595Z" fill="#0053CF"/>
<path d="M80.9121 16.754C80.9121 15.9956 81.5269 15.3808 82.2853 15.3808H82.329C83.0874 15.3808 83.7022 15.9956 83.7022 16.754C83.7022 17.5124 83.0874 18.1272 82.329 18.1272H82.2853C81.5269 18.1272 80.9121 17.5124 80.9121 16.754Z" fill="#F94B28"/>
<path d="M85.377 16.754C85.377 15.9956 85.9918 15.3808 86.7502 15.3808H86.7938C87.5522 15.3808 88.167 15.9956 88.167 16.754C88.167 17.5124 87.5522 18.1272 86.7938 18.1272H86.7502C85.9918 18.1272 85.377 17.5124 85.377 16.754Z" fill="#FFCE03"/>
<path d="M89.8418 16.754C89.8418 15.9956 90.4566 15.3808 91.215 15.3808H91.2586C92.017 15.3808 92.6319 15.9956 92.6319 16.754C92.6319 17.5124 92.017 18.1272 91.2586 18.1272H91.215C90.4566 18.1272 89.8418 17.5124 89.8418 16.754Z" fill="#7FC92E"/>
<path fill-rule="evenodd" clip-rule="evenodd" d="M202 78.0002L-2.94133e-07 78.0002L0 74.7045L202 74.7045L202 78.0002Z" fill="#EEEEEE"/>
</svg>
