<svg width="202" height="78" viewBox="0 0 202 78" fill="none" xmlns="http://www.w3.org/2000/svg">
<path d="M11.1621 66.201C11.1621 62.4021 14.2417 59.3225 18.0406 59.3225H70.3113V74.7025H18.0406C14.2417 74.7025 11.1621 71.6228 11.1621 67.824V66.201Z" fill="#EEEEEE"/>
<path d="M36.2734 66.201C36.2734 62.4021 39.353 59.3225 43.1519 59.3225H70.3121V74.7025H43.1519C39.353 74.7025 36.2734 71.6228 36.2734 67.824V66.201Z" fill="#E0E0E0"/>
<path d="M39.0625 65.5072C39.0625 63.6078 40.6023 62.068 42.5018 62.068H70.3111V71.9551H42.5018C40.6023 71.9551 39.0625 70.4153 39.0625 68.5158V65.5072Z" fill="white"/>
<path d="M39.0625 65.5072C39.0625 63.6078 40.6023 62.068 42.5018 62.068H70.3111V65.9129H39.0625V65.5072Z" fill="#F4F4F4"/>
<rect x="18.9736" y="65.3644" width="9.48619" height="3.2957" rx="1.64785" fill="#E0E0E0"/>
<path d="M73.6582 52.4458C73.6582 56.2447 70.5786 59.3243 66.7797 59.3243L22.8792 59.3243L22.8792 43.9444L66.7797 43.9444C70.5786 43.9444 73.6582 47.024 73.6582 50.8229L73.6582 52.4458Z" fill="#EEEEEE"/>
<path d="M49.6631 52.4459C49.6631 56.2448 46.5835 59.3244 42.7846 59.3244L22.8786 59.3244L22.8786 43.9445L42.7846 43.9445C46.5835 43.9445 49.6631 47.0241 49.6631 50.823L49.6631 52.4459Z" fill="#E0E0E0"/>
<path d="M46.874 53.1397C46.874 55.0392 45.3342 56.579 43.4348 56.579L22.8796 56.579L22.8795 46.6919L43.4348 46.6919C45.3342 46.6919 46.874 48.2317 46.874 50.1311L46.874 53.1397Z" fill="white"/>
<path d="M46.874 53.1397C46.874 55.0392 45.3342 56.579 43.4348 56.579L22.8796 56.579L22.8796 52.734L46.874 52.734L46.874 53.1397Z" fill="#F4F4F4"/>
<rect x="31.8076" y="18.6766" width="26.7845" height="25.267" rx="8.59813" fill="#E0E0E0"/>
<rect x="31.8076" y="18.6766" width="18.9724" height="25.267" rx="8.59813" fill="#EEEEEE"/>
<path fill-rule="evenodd" clip-rule="evenodd" d="M59.2633 24.1688H58.5918V27.4653H59.6166C61.5161 27.4653 63.0559 29.0051 63.0559 30.9045V31.716C63.0559 33.6154 61.5161 35.1552 59.6166 35.1552H58.5918V38.4502H59.2633C63.207 38.4502 66.404 35.2532 66.404 31.3095C66.404 27.3658 63.207 24.1688 59.2633 24.1688Z" fill="#E0E0E0"/>
<path d="M41.509 17.0277C48.763 11.8095 41.509 7.4152 40.3929 3.02093C32.0227 7.96448 40.951 13.1827 41.509 17.0277Z" fill="#EEEEEE"/>
<path d="M45.9727 16.2039C48.7627 11.535 42.3456 0.274642 55.1798 0C51.8318 2.19713 59.3649 17.3024 45.9727 16.2039Z" fill="#EEEEEE"/>
<path d="M70.3115 18.4862C70.3115 13.7376 74.161 9.88805 78.9097 9.88805H146.531C151.28 9.88805 155.129 13.7376 155.129 18.4862V71.2642C155.129 73.1637 153.589 74.7035 151.69 74.7035H73.7508C71.8513 74.7035 70.3115 73.1637 70.3115 71.2642V18.4862Z" fill="#727272"/>
<path d="M70.3115 18.4862C70.3115 13.7376 74.161 9.88805 78.9097 9.88805H138.719C143.468 9.88805 147.317 13.7376 147.317 18.4862V66.1054C147.317 70.854 143.468 74.7035 138.719 74.7035H78.9096C74.161 74.7035 70.3115 70.854 70.3115 66.1054V18.4862Z" fill="#AAAAAA"/>
<path d="M73.6592 18.3414C73.6592 15.4923 75.9689 13.1826 78.8181 13.1826H138.81C141.659 13.1826 143.969 15.4923 143.969 18.3414V63.7166H73.6592V18.3414Z" fill="#727272"/>
<path d="M77.0078 18.3414C77.0078 15.4923 79.3175 13.1826 82.1667 13.1826H138.81C141.659 13.1826 143.969 15.4923 143.969 18.3414V63.7166H77.0078V18.3414Z" fill="#FAF8F3"/>
<path d="M77.0078 18.3414C77.0078 15.4923 79.3175 13.1826 82.1667 13.1826H138.81C141.659 13.1826 143.969 15.4923 143.969 18.3414V20.8725H77.0078V18.3414Z" fill="#D9DDDF"/>
<path d="M43.5273 70.4514C43.5273 68.552 45.0671 67.0122 46.9666 67.0122H151.69C153.59 67.0122 155.13 68.552 155.13 70.4514V71.2629C155.13 73.1623 153.59 74.7021 151.69 74.7021H46.9666C45.0671 74.7021 43.5273 73.1623 43.5273 71.2629V70.4514Z" fill="#727272"/>
<path d="M43.5273 70.4514C43.5273 68.552 45.0671 67.0122 46.9666 67.0122H120.442C122.341 67.0122 123.881 68.552 123.881 70.4514V71.2629C123.881 73.1623 122.341 74.7021 120.442 74.7021H46.9666C45.0672 74.7021 43.5273 73.1623 43.5273 71.2629V70.4514Z" fill="#939393"/>
<path d="M70.3115 67.0122H97.0961V67.9672C97.0961 69.8666 95.5562 71.4065 93.6568 71.4065H73.7508C71.8513 71.4065 70.3115 69.8666 70.3115 67.9672V67.0122Z" fill="#727272"/>
<path d="M72.5449 67.0122H97.0974V67.9672C97.0974 69.8666 95.5576 71.4065 93.6582 71.4065H75.9842C74.0847 71.4065 72.5449 69.8666 72.5449 67.9672V67.0122Z" fill="#3D3D3D"/>
<path d="M141.18 69.7595H145.644V71.9567H141.18V69.7595Z" fill="#3D3D3D"/>
<path d="M146.76 69.7595H151.224V71.9567H146.76V69.7595Z" fill="#3D3D3D"/>
<path d="M81.4717 17.0285C81.4717 16.4218 81.9635 15.9299 82.5702 15.9299H82.6052C83.2119 15.9299 83.7037 16.4218 83.7037 17.0285C83.7037 17.6352 83.2119 18.127 82.6052 18.127H82.5702C81.9635 18.127 81.4717 17.6352 81.4717 17.0285Z" fill="#F94B28"/>
<path d="M84.8213 17.0285C84.8213 16.4218 85.3131 15.9299 85.9199 15.9299H85.9548C86.5615 15.9299 87.0533 16.4218 87.0533 17.0285C87.0533 17.6352 86.5615 18.127 85.9548 18.127H85.9199C85.3131 18.127 84.8213 17.6352 84.8213 17.0285Z" fill="#FFCE03"/>
<path d="M88.168 17.0285C88.168 16.4218 88.6598 15.9299 89.2665 15.9299H89.3014C89.9082 15.9299 90.4 16.4218 90.4 17.0285C90.4 17.6352 89.9082 18.127 89.3014 18.127H89.2665C88.6598 18.127 88.168 17.6352 88.168 17.0285Z" fill="#7FC92E"/>
<ellipse cx="110.489" cy="41.1983" rx="7.81215" ry="7.68997" stroke="#F2EDDF" stroke-width="5.15888"/>
<path d="M110.489 48.8874C106.174 48.8874 102.677 45.4445 102.677 41.1975" stroke="#1A96F6" stroke-width="5.15888" stroke-linecap="round"/>
<path d="M176.377 29.5241C175.506 26.6369 172.072 25.2481 168.555 23.2864C167.904 22.9233 167.06 23.2694 166.85 23.9825C165.837 27.421 164.486 30.4509 165.56 32.8946C167.096 36.3937 171.458 37.1552 173.446 37.0985C174.695 36.1398 177.143 32.0643 176.377 29.5241Z" fill="#EEEEEE"/>
<path d="M170.194 29.6652C175.774 38.1791 173.542 45.7818 173.542 55.2069" stroke="#E0E0E0" stroke-width="3.43925" stroke-linecap="round"/>
<path d="M190.255 46.4095C193.313 46.4111 195.644 43.5685 198.556 40.8106C199.097 40.2982 199.005 39.405 198.374 39.0055C195.311 37.0676 192.744 34.9264 190.057 35.2425C186.211 35.6948 184.227 39.5927 183.715 41.4852C184.292 42.9365 187.563 46.4081 190.255 46.4095Z" fill="#EEEEEE"/>
<path d="M170.768 33.883C167.704 30.8644 162.401 31.5361 156.644 31.3778C155.898 31.3573 155.327 32.0593 155.495 32.7863C156.65 37.7777 156.947 42.5517 159.969 44.8909C164.139 48.1199 169.899 46.2364 172.257 44.8909C173.126 42.934 173.374 36.4515 170.768 33.883Z" fill="#F6F6F6"/>
<path d="M186.065 46.8271C189.837 44.7319 190.601 39.5285 192.296 34.1156C192.518 33.4058 192.001 32.6722 191.257 32.638C186.051 32.3981 181.287 31.3941 178.183 33.6371C173.905 36.7276 174.206 42.6943 174.891 45.2914C176.574 46.6396 182.852 48.6113 186.065 46.8271Z" fill="#F6F6F6"/>
<path d="M165.411 39.343C169.667 41.4374 175.216 46.9685 177.468 53.6551C176.332 46.9685 176.89 39.343 184.702 37.9054" stroke="#EEEEEE" stroke-width="3.43925" stroke-linecap="round"/>
<path d="M186.241 74.7061H164.194C161.344 74.7061 159.035 72.3964 159.035 69.5472V48.4841C159.035 46.5846 160.575 45.0448 162.474 45.0448H187.96C189.86 45.0448 191.399 46.5846 191.399 48.4841V69.5472C191.399 72.3964 189.09 74.7061 186.241 74.7061Z" fill="#E0E0E0"/>
<path d="M164.193 74.7061H178.428C181.277 74.7061 183.587 72.3964 183.587 69.5472V48.4841C183.587 46.5846 182.047 45.0448 180.147 45.0448H162.473C160.574 45.0448 159.034 46.5846 159.034 48.4841V69.5472C159.034 72.3964 161.344 74.7061 164.193 74.7061Z" fill="#EEEEEE"/>
<path d="M70.3115 18.4862C70.3115 13.7376 74.161 9.88805 78.9097 9.88805H146.531C151.28 9.88805 155.129 13.7376 155.129 18.4862V71.2642C155.129 73.1637 153.589 74.7035 151.69 74.7035H73.7508C71.8513 74.7035 70.3115 73.1637 70.3115 71.2642V18.4862Z" fill="#1A96F6"/>
<path d="M70.3115 18.4862C70.3115 13.7376 74.161 9.88805 78.9097 9.88805H138.719C143.468 9.88805 147.317 13.7376 147.317 18.4862V66.1054C147.317 70.854 143.468 74.7035 138.719 74.7035H78.9096C74.161 74.7035 70.3115 70.854 70.3115 66.1054V18.4862Z" fill="#33CCFF"/>
<path d="M73.6592 18.3414C73.6592 15.4923 75.9689 13.1826 78.8181 13.1826H138.81C141.659 13.1826 143.969 15.4923 143.969 18.3414V63.7166H73.6592V18.3414Z" fill="#1A96F6"/>
<path d="M77.0078 18.3414C77.0078 15.4923 79.3175 13.1826 82.1667 13.1826H138.81C141.659 13.1826 143.969 15.4923 143.969 18.3414V63.7166H77.0078V18.3414Z" fill="#FAF8F3"/>
<path d="M111.454 33.9994C107.076 33.9994 103.493 37.5994 103.493 41.9994C103.493 46.3994 107.076 49.9994 111.454 49.9994C115.833 49.9994 119.415 46.3994 119.415 41.9994C119.415 37.5994 115.833 33.9994 111.454 33.9994Z" fill="#7FC92E"/>
<path d="M110.957 42.0994L109.365 40.4994L107.972 41.8994L110.957 44.8994L115.137 40.6994L113.743 39.2994L110.957 42.0994Z" fill="white"/>
<path d="M77.0078 18.3414C77.0078 15.4923 79.3175 13.1826 82.1667 13.1826H138.81C141.659 13.1826 143.969 15.4923 143.969 18.3414V20.3233H77.0078V18.3414Z" fill="#D9DDDF"/>
<path d="M43.5273 70.4514C43.5273 68.552 45.0671 67.0122 46.9666 67.0122H151.69C153.59 67.0122 155.13 68.552 155.13 70.4514V71.2629C155.13 73.1623 153.59 74.7021 151.69 74.7021H46.9666C45.0671 74.7021 43.5273 73.1623 43.5273 71.2629V70.4514Z" fill="#1A96F6"/>
<path d="M43.5273 70.4514C43.5273 68.552 45.0671 67.0122 46.9666 67.0122H120.442C122.341 67.0122 123.881 68.552 123.881 70.4514V71.2629C123.881 73.1623 122.341 74.7021 120.442 74.7021H46.9666C45.0672 74.7021 43.5273 73.1623 43.5273 71.2629V70.4514Z" fill="#33CCFF"/>
<path d="M70.3115 67.0122H97.0961V67.9672C97.0961 69.8666 95.5562 71.4065 93.6568 71.4065H73.7508C71.8513 71.4065 70.3115 69.8666 70.3115 67.9672V67.0122Z" fill="#1A96F6"/>
<path d="M72.5449 67.0122H97.0974V67.9672C97.0974 69.8666 95.5576 71.4065 93.6582 71.4065H75.9842C74.0847 71.4065 72.5449 69.8666 72.5449 67.9672V67.0122Z" fill="#0053CF"/>
<path d="M141.18 69.7595H145.644V71.9567H141.18V69.7595Z" fill="#0053CF"/>
<path d="M146.76 69.7595H151.224V71.9567H146.76V69.7595Z" fill="#0053CF"/>
<path d="M80.9141 16.754C80.9141 15.9956 81.5289 15.3808 82.2873 15.3808H82.3309C83.0893 15.3808 83.7041 15.9956 83.7041 16.754C83.7041 17.5124 83.0893 18.1272 82.3309 18.1272H82.2873C81.5289 18.1272 80.9141 17.5124 80.9141 16.754Z" fill="#F94B28"/>
<path d="M85.3789 16.754C85.3789 15.9956 85.9937 15.3808 86.7521 15.3808H86.7958C87.5542 15.3808 88.169 15.9956 88.169 16.754C88.169 17.5124 87.5542 18.1272 86.7958 18.1272H86.7521C85.9937 18.1272 85.3789 17.5124 85.3789 16.754Z" fill="#FFCE03"/>
<path d="M89.8428 16.754C89.8428 15.9956 90.4576 15.3808 91.216 15.3808H91.2596C92.018 15.3808 92.6328 15.9956 92.6328 16.754C92.6328 17.5124 92.018 18.1272 91.2596 18.1272H91.216C90.4576 18.1272 89.8428 17.5124 89.8428 16.754Z" fill="#7FC92E"/>
<path fill-rule="evenodd" clip-rule="evenodd" d="M202 78.0002L-2.94133e-07 78.0002L0 74.7045L202 74.7045L202 78.0002Z" fill="#EEEEEE"/>
</svg>
