<svg viewBox="0 0 16 21" fill="none" xmlns="http://www.w3.org/2000/svg">
<path d="M13.1 5.72727L13 4.77273C13 2.1 10.8 0 8 0C5.2 0 3 2.1 3 4.77273V5.72727H2.9C1.3 5.72727 0 6.96818 0 8.49545V15.4636C0 18.5182 2.6 21 5.8 21H10.2C13.4 21 16 18.5182 16 15.4636V8.49545C16 6.96818 14.7 5.72727 13.1 5.72727ZM5 4.77273C5 3.15 6.3 1.90909 8 1.90909C9.7 1.90909 11 3.15 11 4.77273V5.72727H5V4.77273ZM14 15.4636C14 17.4682 12.3 19.0909 10.2 19.0909H5.8C3.7 19.0909 2 17.4682 2 15.4636V8.49545C2 8.01818 2.4 7.63636 2.9 7.63636H3H13H13.1C13.6 7.63636 14 8.01818 14 8.49545V15.4636Z" fill="#B8B8B8"/>
<path d="M8 10.8818C7.2 10.8818 6.5 11.4546 6.5 12.2182C6.5 12.6955 6.8 13.1727 7.2 13.3637V14.2227C7.2 14.6046 7.5 14.8909 7.9 14.8909C8.3 14.8909 8.6 14.6046 8.6 14.2227V13.3637C9 13.1727 9.3 12.6955 9.3 12.2182C9.5 11.4546 8.8 10.8818 8 10.8818Z" fill="#B8B8B8"/>
</svg>
