<svg width="38" height="37" viewBox="0 0 38 37" fill="none" xmlns="http://www.w3.org/2000/svg">
<path d="M18.0815 7.13274C18.4286 6.32678 19.5714 6.32678 19.9185 7.13274L22.2801 12.6167C22.4249 12.9529 22.7417 13.1831 23.1062 13.2169L29.0516 13.7683C29.9253 13.8494 30.2785 14.9362 29.6192 15.5153L25.1334 19.456C24.8584 19.6976 24.7374 20.0701 24.8179 20.4272L26.1307 26.2519C26.3236 27.108 25.3991 27.7797 24.6446 27.3316L19.5106 24.2832C19.1958 24.0963 18.8042 24.0963 18.4894 24.2832L13.3554 27.3316C12.6009 27.7797 11.6764 27.108 11.8693 26.2519L13.1821 20.4272C13.2626 20.0701 13.1416 19.6976 12.8666 19.456L8.38081 15.5153C7.72155 14.9362 8.07467 13.8494 8.94844 13.7683L14.8938 13.2169C15.2583 13.1831 15.5751 12.9529 15.7199 12.6167L18.0815 7.13274Z" fill="#FFD996"/>
</svg>
