<svg width="76" height="36" viewBox="0 0 76 36" fill="none" xmlns="http://www.w3.org/2000/svg">
<path d="M15.0625 23L14.0234 23.0957C13.5221 19.9512 12.9798 17.2578 12.3965 15.0156C12.0957 15.7266 11.763 16.7292 11.3984 18.0234C11.043 19.3086 10.7969 20.1426 10.6602 20.5254C10.6419 20.5254 10.61 20.5299 10.5645 20.5391C10.528 20.5391 10.4961 20.5391 10.4688 20.5391C10.3411 20.5391 10.1315 20.5254 9.83984 20.498C9.54818 20.4707 9.36133 20.457 9.2793 20.457C9.27018 20.1927 9.03776 19.3132 8.58203 17.8184C8.1263 16.3145 7.85286 15.3529 7.76172 14.9336C7.59766 16.4102 6.95964 19.099 5.84766 23L5 22.918C5.1276 21.9245 5.44206 20.3613 5.94336 18.2285C6.44466 16.0957 6.74089 14.446 6.83203 13.2793C6.99609 13.2611 7.12826 13.252 7.22852 13.252C7.31966 13.252 7.6569 13.2884 8.24023 13.3613C8.36784 13.3796 8.55013 13.7943 8.78711 14.6055C9.0332 15.4076 9.2793 16.2917 9.52539 17.2578C9.77148 18.224 9.92643 18.7936 9.99023 18.9668C10.2454 18.3379 10.5508 17.3171 10.9062 15.9043C11.2708 14.4915 11.526 13.5938 11.6719 13.2109C11.8177 13.2201 12.278 13.2611 13.0527 13.334C13.2897 14.2546 13.5176 15.248 13.7363 16.3145C13.9642 17.3809 14.2057 18.5931 14.4609 19.9512C14.7253 21.3092 14.9258 22.3255 15.0625 23ZM17.6367 18.4199C17.6367 18.11 17.6367 17.8776 17.6367 17.7227C17.6367 17.5586 17.6413 17.3125 17.6504 16.9844C17.6686 16.6562 17.6868 16.3965 17.7051 16.2051C17.7324 16.0137 17.7689 15.7676 17.8145 15.4668C17.86 15.1569 17.9193 14.9108 17.9922 14.7285C18.0651 14.5371 18.1471 14.3229 18.2383 14.0859C18.3385 13.849 18.4616 13.6576 18.6074 13.5117C18.7533 13.3659 18.9128 13.2292 19.0859 13.1016C19.2591 12.9648 19.4642 12.8646 19.7012 12.8008C19.9382 12.737 20.1979 12.7051 20.4805 12.7051C21.0456 12.7051 21.5378 12.819 21.957 13.0469C22.3763 13.2656 22.7044 13.5436 22.9414 13.8809C23.1784 14.2181 23.3652 14.6328 23.502 15.125C23.6478 15.6172 23.7389 16.0866 23.7754 16.5332C23.821 16.9798 23.8438 17.472 23.8438 18.0098C23.8438 18.3743 23.8346 18.7025 23.8164 18.9941C23.8073 19.2858 23.7799 19.6185 23.7344 19.9922C23.6979 20.3568 23.6387 20.6803 23.5566 20.9629C23.4837 21.2454 23.3789 21.5326 23.2422 21.8242C23.1055 22.1068 22.9414 22.3438 22.75 22.5352C22.5677 22.7174 22.3353 22.8678 22.0527 22.9863C21.7702 23.1048 21.4557 23.1641 21.1094 23.1641C20.5443 23.1641 20.0566 23.0957 19.6465 22.959C19.2454 22.8223 18.9128 22.6309 18.6484 22.3848C18.3932 22.1387 18.1882 21.8151 18.0332 21.4141C17.8874 21.013 17.7826 20.5755 17.7188 20.1016C17.6641 19.6276 17.6367 19.0671 17.6367 18.4199ZM22.8594 18.5293C22.8594 18.0827 22.8229 17.6178 22.75 17.1348C22.6862 16.6517 22.5723 16.1322 22.4082 15.5762C22.2533 15.0202 22.0026 14.569 21.6562 14.2227C21.3099 13.8672 20.8952 13.6895 20.4121 13.6895C20.0475 13.6895 19.724 13.9355 19.4414 14.4277C19.168 14.9108 18.972 15.4577 18.8535 16.0684C18.735 16.6699 18.6758 17.2396 18.6758 17.7773C18.6758 18.151 18.6758 18.4382 18.6758 18.6387C18.6849 18.8301 18.7031 19.1081 18.7305 19.4727C18.7578 19.8281 18.7943 20.1107 18.8398 20.3203C18.8945 20.5299 18.9766 20.7715 19.0859 21.0449C19.1953 21.3184 19.3229 21.5326 19.4688 21.6875C19.6237 21.8333 19.8197 21.9655 20.0566 22.084C20.3027 22.1934 20.5762 22.2526 20.877 22.2617C21.5423 22.2253 22.0391 21.8516 22.3672 21.1406C22.6953 20.4297 22.8594 19.5592 22.8594 18.5293ZM25.666 24.2852L25.2695 23.5742C25.7708 23.237 26.1992 22.8496 26.5547 22.4121C26.9102 21.9655 27.1882 21.5234 27.3887 21.0859C27.5892 20.6393 27.7487 20.1335 27.8672 19.5684C27.9857 19.0033 28.0586 18.4837 28.0859 18.0098C28.1224 17.5267 28.1406 16.9707 28.1406 16.3418C28.1406 16.0137 28.1497 15.5078 28.168 14.8242C28.1953 14.1315 28.209 13.6029 28.209 13.2383C28.4733 13.1927 28.8789 13.1699 29.4258 13.1699C29.6536 13.1699 30 13.179 30.4648 13.1973C30.9297 13.2064 31.2806 13.2109 31.5176 13.2109C31.9551 13.2109 32.3561 13.1927 32.7207 13.1562C32.8301 13.7669 32.8848 14.724 32.8848 16.0273C32.8848 16.3737 32.8802 16.9206 32.8711 17.668C32.862 18.4062 32.8574 18.9668 32.8574 19.3496C32.8574 20.8444 32.9212 22.0749 33.0488 23.041C32.9668 23.3236 32.8118 23.4648 32.584 23.4648C32.4199 23.4648 32.2604 23.3965 32.1055 23.2598C31.9505 23.1322 31.8548 22.9727 31.8184 22.7812C31.8366 22.0703 31.8457 21.528 31.8457 21.1543C31.8457 20.6257 31.832 19.7962 31.8047 18.666C31.7865 17.5358 31.7773 16.6608 31.7773 16.041C31.7773 15.2025 31.7865 14.5781 31.8047 14.168C31.5859 14.1497 31.2077 14.1361 30.6699 14.127C30.1322 14.1178 29.722 14.0951 29.4395 14.0586C29.3574 14.5326 29.2891 15.1523 29.2344 15.918C29.1888 16.6745 29.1478 17.349 29.1113 17.9414C29.084 18.5247 29.002 19.1719 28.8652 19.8828C28.7376 20.5846 28.5599 21.1953 28.332 21.7148C28.1133 22.2344 27.776 22.7266 27.3203 23.1914C26.8737 23.6654 26.3223 24.0299 25.666 24.2852ZM36.1836 18.4199C36.1836 18.11 36.1836 17.8776 36.1836 17.7227C36.1836 17.5586 36.1882 17.3125 36.1973 16.9844C36.2155 16.6562 36.2337 16.3965 36.252 16.2051C36.2793 16.0137 36.3158 15.7676 36.3613 15.4668C36.4069 15.1569 36.4661 14.9108 36.5391 14.7285C36.612 14.5371 36.694 14.3229 36.7852 14.0859C36.8854 13.849 37.0085 13.6576 37.1543 13.5117C37.3001 13.3659 37.4596 13.2292 37.6328 13.1016C37.806 12.9648 38.0111 12.8646 38.248 12.8008C38.485 12.737 38.7448 12.7051 39.0273 12.7051C39.5924 12.7051 40.0846 12.819 40.5039 13.0469C40.9232 13.2656 41.2513 13.5436 41.4883 13.8809C41.7253 14.2181 41.9121 14.6328 42.0488 15.125C42.1947 15.6172 42.2858 16.0866 42.3223 16.5332C42.3678 16.9798 42.3906 17.472 42.3906 18.0098C42.3906 18.3743 42.3815 18.7025 42.3633 18.9941C42.3542 19.2858 42.3268 19.6185 42.2812 19.9922C42.2448 20.3568 42.1855 20.6803 42.1035 20.9629C42.0306 21.2454 41.9258 21.5326 41.7891 21.8242C41.6523 22.1068 41.4883 22.3438 41.2969 22.5352C41.1146 22.7174 40.8822 22.8678 40.5996 22.9863C40.3171 23.1048 40.0026 23.1641 39.6562 23.1641C39.0911 23.1641 38.6035 23.0957 38.1934 22.959C37.7923 22.8223 37.4596 22.6309 37.1953 22.3848C36.9401 22.1387 36.735 21.8151 36.5801 21.4141C36.4342 21.013 36.3294 20.5755 36.2656 20.1016C36.2109 19.6276 36.1836 19.0671 36.1836 18.4199ZM41.4062 18.5293C41.4062 18.0827 41.3698 17.6178 41.2969 17.1348C41.2331 16.6517 41.1191 16.1322 40.9551 15.5762C40.8001 15.0202 40.5495 14.569 40.2031 14.2227C39.8568 13.8672 39.4421 13.6895 38.959 13.6895C38.5944 13.6895 38.2708 13.9355 37.9883 14.4277C37.7148 14.9108 37.5189 15.4577 37.4004 16.0684C37.2819 16.6699 37.2227 17.2396 37.2227 17.7773C37.2227 18.151 37.2227 18.4382 37.2227 18.6387C37.2318 18.8301 37.25 19.1081 37.2773 19.4727C37.3047 19.8281 37.3411 20.1107 37.3867 20.3203C37.4414 20.5299 37.5234 20.7715 37.6328 21.0449C37.7422 21.3184 37.8698 21.5326 38.0156 21.6875C38.1706 21.8333 38.3665 21.9655 38.6035 22.084C38.8496 22.1934 39.123 22.2526 39.4238 22.2617C40.0892 22.2253 40.5859 21.8516 40.9141 21.1406C41.2422 20.4297 41.4062 19.5592 41.4062 18.5293ZM52.3066 24.75L51.6914 24.6133C51.6094 23.9206 51.4681 23.3555 51.2676 22.918C50.5111 22.8633 49.7546 22.8359 48.998 22.8359C48.3509 22.8359 47.3893 22.8633 46.1133 22.918C46.0586 23.1094 45.9538 23.7747 45.7988 24.9141L45.2109 24.8594C45.0286 23.8841 44.9375 23.0456 44.9375 22.3438C44.9375 22.3073 44.9375 22.2435 44.9375 22.1523C44.9466 22.0612 44.9512 21.9928 44.9512 21.9473C44.9603 21.9473 45.1107 21.9473 45.4023 21.9473C45.694 21.9382 45.8444 21.9336 45.8535 21.9336C46.0905 21.4505 46.2819 20.931 46.4277 20.375C46.5827 19.8099 46.6875 19.2083 46.7422 18.5703C46.7969 17.9232 46.8333 17.3581 46.8516 16.875C46.8698 16.3828 46.8789 15.7585 46.8789 15.002C46.8789 14.2454 46.8835 13.6803 46.8926 13.3066C47.5306 13.2611 48.9525 13.2383 51.1582 13.2383L51.459 21.8105C51.6048 21.8288 51.7552 21.8424 51.9102 21.8516C52.0651 21.8607 52.2155 21.8698 52.3613 21.8789C52.334 22.0703 52.3203 22.3073 52.3203 22.5898C52.3203 22.7357 52.3249 22.9635 52.334 23.2734C52.3431 23.5924 52.3477 23.8294 52.3477 23.9844C52.3477 24.2943 52.334 24.5495 52.3066 24.75ZM46.9473 21.8516C47.1934 21.8516 47.5625 21.8607 48.0547 21.8789C48.5469 21.888 48.9115 21.8926 49.1484 21.8926C49.4948 21.8926 49.8548 21.8789 50.2285 21.8516C50.2467 21.2773 50.2559 20.3796 50.2559 19.1582V16.4375C50.2559 15.3529 50.265 14.5462 50.2832 14.0176C50.028 13.9993 49.8366 13.9902 49.709 13.9902C49.4993 13.9902 49.194 14.0039 48.793 14.0312C48.401 14.0586 48.1367 14.0768 48 14.0859C47.9727 14.4961 47.9408 15.1432 47.9043 16.0273C47.8678 16.9023 47.8314 17.5814 47.7949 18.0645C47.7585 18.5475 47.6673 19.1491 47.5215 19.8691C47.3848 20.5801 47.1934 21.2409 46.9473 21.8516ZM60.4043 22.3848L60.541 23C60.1855 23 59.5384 23.0137 58.5996 23.041C57.6699 23.0775 56.9954 23.0957 56.5762 23.0957C55.9017 23.0957 55.4414 23.0638 55.1953 23C55.2865 21.9974 55.3411 20.3203 55.3594 17.9688C55.3776 15.6172 55.4368 13.9766 55.5371 13.0469C55.847 13.0742 56.6673 13.097 57.998 13.1152C59.3379 13.1335 60.2129 13.1745 60.623 13.2383L60.7734 13.8535C60.3633 13.9264 59.543 14.013 58.3125 14.1133C57.082 14.2135 56.4349 14.2682 56.3711 14.2773C56.3802 14.487 56.3984 14.9154 56.4258 15.5625C56.4622 16.2096 56.485 16.7428 56.4941 17.1621C56.804 17.1986 57.3691 17.2533 58.1895 17.3262C59.0098 17.39 59.5293 17.431 59.748 17.4492L59.8848 18.0781C57.9616 18.2513 56.8359 18.3424 56.5078 18.3516C56.5078 18.7526 56.4987 19.3633 56.4805 20.1836C56.4714 20.9948 56.4668 21.5918 56.4668 21.9746C58.554 22.166 59.8665 22.3027 60.4043 22.3848ZM69.6094 24.832H68.9805C68.9349 24.668 68.8301 24.0573 68.666 23C68.0189 23.0729 66.9935 23.1094 65.5898 23.1094C64.487 23.1094 63.7305 23.0866 63.3203 23.041C63.3477 22.0566 63.3932 20.3796 63.457 18.0098C63.5208 15.64 63.5664 13.9629 63.5938 12.9785L64.209 13.1152C64.2363 14.0723 64.2728 15.5944 64.3184 17.6816C64.373 19.7598 64.4141 21.2546 64.4414 22.166C64.8516 22.166 65.207 22.1751 65.5078 22.1934C65.8086 22.2025 65.9681 22.207 65.9863 22.207C66.1322 22.207 66.6745 22.1296 67.6133 21.9746C67.6497 20.9902 67.709 19.4681 67.791 17.4082C67.8822 15.3392 67.9414 13.8626 67.9688 12.9785L68.584 13.1152C68.5749 13.7624 68.5703 14.7331 68.5703 16.0273C68.5703 17.7773 68.584 19.6048 68.6113 21.5098C68.6113 21.5553 68.6113 21.6283 68.6113 21.7285C68.6204 21.8197 68.625 21.888 68.625 21.9336C68.7344 21.9336 68.9212 21.9427 69.1855 21.9609C69.4499 21.9701 69.6641 21.9746 69.8281 21.9746C69.8281 22.0111 69.8053 22.403 69.7598 23.1504C69.7233 23.8978 69.6732 24.4583 69.6094 24.832Z" fill="#7FC92E"/>
</svg>
