<svg width="36" height="36" viewBox="0 0 36 36" fill="none" xmlns="http://www.w3.org/2000/svg">
<path fill-rule="evenodd" clip-rule="evenodd" d="M18 28C23.5228 28 28 23.5228 28 18C28 12.4772 23.5228 8 18 8C12.4772 8 8 12.4772 8 18C8 23.5228 12.4772 28 18 28Z" fill="#FFD996"/>
<path d="M20.2419 20.3152C20.373 20.0723 20.3021 19.7573 20.0836 19.6116C19.865 19.4659 19.5815 19.5447 19.4503 19.7875C19.0686 20.4944 18.5989 20.8205 18 20.8205C17.4011 20.8205 16.9314 20.4944 16.5497 19.7875C16.4185 19.5447 16.135 19.4659 15.9164 19.6116C15.6979 19.7573 15.627 20.0723 15.7581 20.3152C16.2995 21.3177 17.0605 21.8462 18 21.8462C18.9395 21.8462 19.7005 21.3177 20.2419 20.3152Z" fill="#4A4A4A"/>
<path fill-rule="evenodd" clip-rule="evenodd" d="M13.3846 18C13.8095 18 14.1538 17.4834 14.1538 16.8462C14.1538 16.2089 13.8095 15.6923 13.3846 15.6923C12.9598 15.6923 12.6154 16.2089 12.6154 16.8462C12.6154 17.4834 12.9598 18 13.3846 18Z" fill="#4A4A4A"/>
<path fill-rule="evenodd" clip-rule="evenodd" d="M22.6154 18C23.0402 18 23.3846 17.4834 23.3846 16.8462C23.3846 16.2089 23.0402 15.6923 22.6154 15.6923C22.1906 15.6923 21.8462 16.2089 21.8462 16.8462C21.8462 17.4834 22.1906 18 22.6154 18Z" fill="#4A4A4A"/>
</svg>
