<svg width="82" height="36" viewBox="0 0 82 36" fill="none" xmlns="http://www.w3.org/2000/svg">
<path d="M10 12.6758L10.7109 12.0059C11.1211 12.6803 11.6406 13.7194 12.2695 15.123C12.8984 16.5267 13.3268 17.4518 13.5547 17.8984C14.4661 15.556 15.1543 13.6875 15.6191 12.293C15.7376 12.0742 15.888 11.9648 16.0703 11.9648C16.2344 11.9648 16.3802 12.0469 16.5078 12.2109C16.6354 12.3659 16.7083 12.5482 16.7266 12.7578C16.4167 13.4232 15.9245 14.5078 15.25 16.0117C14.5846 17.5065 14.015 18.7324 13.541 19.6895C13.0762 20.6374 12.5794 21.5534 12.0508 22.4375L11.1621 22.2598L12.9258 18.8008C12.5977 17.8984 11.6224 15.8568 10 12.6758ZM28.1738 22L27.1348 22.0957C26.6335 18.9512 26.0911 16.2578 25.5078 14.0156C25.207 14.7266 24.8743 15.7292 24.5098 17.0234C24.1543 18.3086 23.9082 19.1426 23.7715 19.5254C23.7533 19.5254 23.7214 19.5299 23.6758 19.5391C23.6393 19.5391 23.6074 19.5391 23.5801 19.5391C23.4525 19.5391 23.2428 19.5254 22.9512 19.498C22.6595 19.4707 22.4727 19.457 22.3906 19.457C22.3815 19.1927 22.1491 18.3132 21.6934 16.8184C21.2376 15.3145 20.9642 14.3529 20.873 13.9336C20.709 15.4102 20.071 18.099 18.959 22L18.1113 21.918C18.2389 20.9245 18.5534 19.3613 19.0547 17.2285C19.556 15.0957 19.8522 13.446 19.9434 12.2793C20.1074 12.2611 20.2396 12.252 20.3398 12.252C20.431 12.252 20.7682 12.2884 21.3516 12.3613C21.4792 12.3796 21.6615 12.7943 21.8984 13.6055C22.1445 14.4076 22.3906 15.2917 22.6367 16.2578C22.8828 17.224 23.0378 17.7936 23.1016 17.9668C23.3568 17.3379 23.6621 16.3171 24.0176 14.9043C24.3822 13.4915 24.6374 12.5938 24.7832 12.2109C24.929 12.2201 25.3893 12.2611 26.1641 12.334C26.401 13.2546 26.6289 14.248 26.8477 15.3145C27.0755 16.3809 27.3171 17.5931 27.5723 18.9512C27.8366 20.3092 28.0371 21.3255 28.1738 22ZM34.9453 12.1699L35.7383 12.0059C35.9023 13.291 36.0026 15.0775 36.0391 17.3652C36.0846 19.6439 36.1302 21.1523 36.1758 21.8906C36.0938 22.1732 35.9342 22.3145 35.6973 22.3145C35.5332 22.3145 35.3737 22.2461 35.2188 22.1094C35.0729 21.9727 34.9818 21.8086 34.9453 21.6172C34.9544 21.2891 34.959 20.7422 34.959 19.9766V17.2832C34.7585 17.2923 34.4759 17.3151 34.1113 17.3516C33.7559 17.3789 33.4277 17.4017 33.127 17.4199C32.8353 17.4382 32.5573 17.4473 32.293 17.4473C32.056 17.4473 31.8828 17.4427 31.7734 17.4336C31.7917 17.9896 31.8236 18.778 31.8691 19.7988C31.9147 20.8105 31.9466 21.5078 31.9648 21.8906C31.8828 22.1732 31.7233 22.3145 31.4863 22.3145C31.3223 22.3145 31.1628 22.2461 31.0078 22.1094C30.862 21.9727 30.7708 21.8086 30.7344 21.6172C30.7617 20.8333 30.7845 19.3112 30.8027 17.0508C30.8301 14.7904 30.8757 13.1087 30.9395 12.0059L31.5547 12.1426C31.5547 12.1699 31.5547 12.2155 31.5547 12.2793C31.5638 12.334 31.5684 12.3796 31.5684 12.416C31.6868 14.6582 31.7552 16.0618 31.7734 16.627C32.0833 16.5996 32.4115 16.5723 32.7578 16.5449C33.1133 16.5085 33.5007 16.472 33.9199 16.4355C34.3483 16.39 34.681 16.3581 34.918 16.3398C34.9271 16.3398 34.9316 16.2943 34.9316 16.2031C34.9316 16.112 34.9316 15.7428 34.9316 15.0957C34.9408 14.4486 34.9453 13.4733 34.9453 12.1699ZM39.502 11.9785L40.1172 12.1152C40.2083 13.6191 40.3132 16.1211 40.4316 19.6211C42.209 16.4583 43.4303 13.9154 44.0957 11.9922C44.2324 11.8828 44.3646 11.8281 44.4922 11.8281C44.6927 11.8281 44.8568 11.9466 44.9844 12.1836C45.1211 12.4206 45.194 12.6895 45.2031 12.9902C45.2305 13.8379 45.2533 15.2689 45.2715 17.2832C45.2988 19.2975 45.3353 20.8014 45.3809 21.7949C45.2988 22.0684 45.1439 22.2051 44.916 22.2051C44.752 22.2051 44.5924 22.1367 44.4375 22C44.2826 21.8724 44.1868 21.7129 44.1504 21.5215C44.1777 20.7285 44.1914 19.5117 44.1914 17.8711C44.2005 16.2305 44.2096 15.123 44.2188 14.5488C44.0182 14.8952 43.6673 15.5514 43.166 16.5176C42.6647 17.4837 42.1999 18.3132 41.7715 19.0059C41.3522 19.6986 40.9193 20.3001 40.4727 20.8105L40.5273 21.918C40.4453 22.2005 40.2858 22.3418 40.0488 22.3418C39.8848 22.3418 39.7253 22.2734 39.5703 22.1367C39.4245 22 39.3333 21.8359 39.2969 21.6445C39.3242 20.8698 39.3516 19.3522 39.3789 17.0918C39.4062 14.8314 39.4473 13.127 39.502 11.9785ZM52.8359 12.252L53.4512 12.4023C53.4876 12.8672 53.5514 14.4076 53.6426 17.0234C53.7428 19.6302 53.7975 21.1888 53.8066 21.6992C53.7246 21.9818 53.5651 22.123 53.3281 22.123C53.1641 22.123 53.0046 22.0592 52.8496 21.9316C52.7038 21.7949 52.6126 21.6309 52.5762 21.4395C52.5853 21.2845 52.6126 20.0267 52.6582 17.666C52.0931 17.821 51.6009 17.8984 51.1816 17.8984C50.2975 17.8984 49.6276 17.5977 49.1719 16.9961C48.7253 16.3854 48.502 15.515 48.502 14.3848C48.502 13.6829 48.584 12.9173 48.748 12.0879L49.3633 12.2246C49.3359 12.653 49.3223 13.054 49.3223 13.4277C49.3223 15.6973 49.9375 16.832 51.168 16.832C51.5781 16.832 52.084 16.6953 52.6855 16.4219C52.7311 14.526 52.7812 13.1361 52.8359 12.252ZM63.4766 21.6992L63.5176 22.2188C63.0345 22.3646 62.5742 22.4375 62.1367 22.4375C61.7174 22.4375 61.3574 22.3236 61.0566 22.0957C60.765 21.877 60.5417 21.599 60.3867 21.2617C60.2409 20.9245 60.0905 20.5599 59.9355 20.168C59.7897 19.776 59.6484 19.4115 59.5117 19.0742C59.3841 18.737 59.1927 18.459 58.9375 18.2402C58.6823 18.0124 58.377 17.8984 58.0215 17.8984L58.1582 21.918C58.0762 22.2005 57.9167 22.3418 57.6797 22.3418C57.5156 22.3418 57.3561 22.2734 57.2012 22.1367C57.0553 22 56.9642 21.8359 56.9277 21.6445C56.9368 21.4531 56.9688 19.9128 57.0234 17.0234C57.0781 14.125 57.1191 12.4479 57.1465 11.9922L57.7617 12.1289C57.7708 12.4753 57.7982 13.127 57.8438 14.084C57.8893 15.0319 57.9167 15.6745 57.9258 16.0117C58.3177 16.0026 58.6504 15.8568 58.9238 15.5742C59.2064 15.2826 59.4342 14.9316 59.6074 14.5215C59.7897 14.1113 59.972 13.7057 60.1543 13.3047C60.3366 12.8945 60.5736 12.5482 60.8652 12.2656C61.166 11.974 61.5215 11.8281 61.9316 11.8281C62.2415 11.8281 62.7656 11.8965 63.5039 12.0332L63.3672 12.5801C62.8021 12.4889 62.4785 12.4434 62.3965 12.4434C62.0775 12.4434 61.8086 12.5755 61.5898 12.8398C61.3711 13.1042 61.1888 13.4368 61.043 13.8379C60.8971 14.2298 60.7376 14.6354 60.5645 15.0547C60.3913 15.4648 60.1361 15.8431 59.7988 16.1895C59.4616 16.5358 59.0469 16.7682 58.5547 16.8867C58.9922 16.987 59.3704 17.1829 59.6895 17.4746C60.0085 17.7663 60.2454 18.0944 60.4004 18.459C60.5553 18.8236 60.7057 19.2109 60.8516 19.6211C60.9974 20.0221 61.125 20.3867 61.2344 20.7148C61.3438 21.043 61.4941 21.3164 61.6855 21.5352C61.8861 21.7539 62.1276 21.8633 62.4102 21.8633C62.6836 21.8633 63.0391 21.8086 63.4766 21.6992ZM68.7031 12.0879L69.7422 12.1562C69.9974 13.2865 70.5215 14.8861 71.3145 16.9551C72.1074 19.015 72.6315 20.5553 72.8867 21.5762C72.8867 21.8405 72.8411 22.0365 72.75 22.1641C72.6589 22.3008 72.5449 22.3691 72.4082 22.3691C72.2897 22.3691 72.1758 22.319 72.0664 22.2188C71.9661 22.1276 71.8978 21.9954 71.8613 21.8223C71.7793 21.4212 71.515 20.6191 71.0684 19.416C69.1908 19.179 68.0104 19.0332 67.5273 18.9785C67.4089 19.3066 67.263 19.8398 67.0898 20.5781C66.9167 21.3164 66.7799 21.8268 66.6797 22.1094C66.543 22.2734 66.388 22.3555 66.2148 22.3555C66.0234 22.3555 65.8594 22.2689 65.7227 22.0957C65.5859 21.9316 65.5176 21.7266 65.5176 21.4805C65.8092 20.4141 66.3379 18.8464 67.1035 16.7773C67.8691 14.7083 68.4023 13.1452 68.7031 12.0879ZM69.1816 13.4688C68.9993 14.5716 68.4935 16.1895 67.6641 18.3223H69.1953C69.888 18.3223 70.4668 18.3451 70.9316 18.3906C69.9928 16.3763 69.4095 14.7357 69.1816 13.4688Z" fill="#1A96F6"/>
</svg>
