<svg width="36" height="36" viewBox="0 0 36 36" fill="none" xmlns="http://www.w3.org/2000/svg">
<path d="M19.4 14.6543C19.4 17.777 16.848 20.3086 13.7 20.3086C10.552 20.3086 8 17.777 8 14.6543C8 11.5315 10.552 9 13.7 9C16.848 9 19.4 11.5315 19.4 14.6543Z" fill="#FF6666"/>
<path d="M27 14.6543C27 17.777 24.448 20.3086 21.3 20.3086C18.152 20.3086 15.6 17.777 15.6 14.6543C15.6 11.5315 18.152 9 21.3 9C24.448 9 27 11.5315 27 14.6543Z" fill="#FF6666"/>
<path d="M9.425 18.4238L17.4044 13.2398L25.575 18.4238L18.1371 26.231C17.7398 26.648 17.0733 26.6441 16.6809 26.2224L9.425 18.4238Z" fill="#FF6666"/>
</svg>
