<svg width="36" height="36" viewBox="0 0 36 36" fill="none" xmlns="http://www.w3.org/2000/svg">
<path fill-rule="evenodd" clip-rule="evenodd" d="M17.7611 28C23.152 28 27.5222 23.7467 27.5222 18.5C27.5222 13.2533 23.152 9 17.7611 9C12.3702 9 8 13.2533 8 18.5C8 23.7467 12.3702 28 17.7611 28Z" fill="#FFD996"/>
<path fill-rule="evenodd" clip-rule="evenodd" d="M23.6273 11.771C24.6277 10.6451 26.2495 10.6451 27.2498 11.771C28.2501 12.8968 28.2501 14.7221 27.2498 15.848L26.3452 16.8661C26.1385 17.0987 25.9054 17.2832 25.6566 17.4197L23.4918 19.6958L21.2458 17.3096C21.0203 17.1785 20.8087 17.0065 20.6196 16.7937L19.7286 15.7909C18.7435 14.6821 18.7435 12.8844 19.7286 11.7756C20.7138 10.6667 22.3111 10.6667 23.2963 11.7756L23.4598 11.9596L23.6273 11.771Z" fill="#FF6666"/>
<path fill-rule="evenodd" clip-rule="evenodd" d="M13.1154 11.771C14.1157 10.6451 15.7375 10.6451 16.7378 11.771C17.7381 12.8968 17.7381 14.7221 16.7378 15.848L15.8332 16.8661C15.6266 17.0987 15.3934 17.2832 15.1447 17.4197L12.9799 19.6958L10.7339 17.3096C10.5083 17.1785 10.2967 17.0065 10.1076 16.7937L9.2167 15.7909C8.23152 14.6821 8.23152 12.8844 9.2167 11.7756C10.2019 10.6667 11.7992 10.6667 12.7843 11.7756L12.9478 11.9596L13.1154 11.771Z" fill="#FF6666"/>
<path d="M20.4272 21.1645C20.5552 20.9337 20.486 20.6345 20.2727 20.4961C20.0593 20.3576 19.7826 20.4325 19.6546 20.6632C19.282 21.3347 18.8235 21.6446 18.2389 21.6446C17.6543 21.6446 17.1958 21.3347 16.8232 20.6632C16.6952 20.4325 16.4185 20.3576 16.2051 20.4961C15.9918 20.6345 15.9226 20.9337 16.0506 21.1645C16.579 22.1168 17.3219 22.6189 18.2389 22.6189C19.1559 22.6189 19.8988 22.1168 20.4272 21.1645Z" fill="#4A4A4A"/>
</svg>
