<svg width="122" height="36" viewBox="0 0 122 36" fill="none" xmlns="http://www.w3.org/2000/svg">
<path d="M9.76562 12.0059H14.5645C14.7285 13.291 14.8288 15.0775 14.8652 17.3652C14.9108 19.6439 14.9564 21.1523 15.002 21.8906C14.9199 22.1732 14.7604 22.3145 14.5234 22.3145C14.3594 22.3145 14.1999 22.2461 14.0449 22.1094C13.8991 21.9727 13.8079 21.8086 13.7715 21.6172C13.7715 20.8789 13.7487 19.3796 13.7031 17.1191C13.6576 14.8496 13.6348 13.4688 13.6348 12.9766C13.4342 12.9766 13.1061 12.9902 12.6504 13.0176C12.2038 13.0449 11.8438 13.0586 11.5703 13.0586C11.1328 13.0586 10.7956 13.0495 10.5586 13.0312C10.5586 13.0586 10.5905 14.3939 10.6543 17.0371C10.7272 19.6803 10.7728 21.2982 10.791 21.8906C10.709 22.1732 10.5495 22.3145 10.3125 22.3145C10.1484 22.3145 9.98893 22.2461 9.83398 22.1094C9.68815 21.9727 9.59701 21.8086 9.56055 21.6172C9.58789 20.8333 9.61068 19.3112 9.62891 17.0508C9.65625 14.7904 9.70182 13.1087 9.76562 12.0059ZM18.1367 17.4199C18.1367 17.11 18.1367 16.8776 18.1367 16.7227C18.1367 16.5586 18.1413 16.3125 18.1504 15.9844C18.1686 15.6562 18.1868 15.3965 18.2051 15.2051C18.2324 15.0137 18.2689 14.7676 18.3145 14.4668C18.36 14.1569 18.4193 13.9108 18.4922 13.7285C18.5651 13.5371 18.6471 13.3229 18.7383 13.0859C18.8385 12.849 18.9616 12.6576 19.1074 12.5117C19.2533 12.3659 19.4128 12.2292 19.5859 12.1016C19.7591 11.9648 19.9642 11.8646 20.2012 11.8008C20.4382 11.737 20.6979 11.7051 20.9805 11.7051C21.5456 11.7051 22.0378 11.819 22.457 12.0469C22.8763 12.2656 23.2044 12.5436 23.4414 12.8809C23.6784 13.2181 23.8652 13.6328 24.002 14.125C24.1478 14.6172 24.2389 15.0866 24.2754 15.5332C24.321 15.9798 24.3438 16.472 24.3438 17.0098C24.3438 17.3743 24.3346 17.7025 24.3164 17.9941C24.3073 18.2858 24.2799 18.6185 24.2344 18.9922C24.1979 19.3568 24.1387 19.6803 24.0566 19.9629C23.9837 20.2454 23.8789 20.5326 23.7422 20.8242C23.6055 21.1068 23.4414 21.3438 23.25 21.5352C23.0677 21.7174 22.8353 21.8678 22.5527 21.9863C22.2702 22.1048 21.9557 22.1641 21.6094 22.1641C21.0443 22.1641 20.5566 22.0957 20.1465 21.959C19.7454 21.8223 19.4128 21.6309 19.1484 21.3848C18.8932 21.1387 18.6882 20.8151 18.5332 20.4141C18.3874 20.013 18.2826 19.5755 18.2188 19.1016C18.1641 18.6276 18.1367 18.0671 18.1367 17.4199ZM23.3594 17.5293C23.3594 17.0827 23.3229 16.6178 23.25 16.1348C23.1862 15.6517 23.0723 15.1322 22.9082 14.5762C22.7533 14.0202 22.5026 13.569 22.1562 13.2227C21.8099 12.8672 21.3952 12.6895 20.9121 12.6895C20.5475 12.6895 20.224 12.9355 19.9414 13.4277C19.668 13.9108 19.472 14.4577 19.3535 15.0684C19.235 15.6699 19.1758 16.2396 19.1758 16.7773C19.1758 17.151 19.1758 17.4382 19.1758 17.6387C19.1849 17.8301 19.2031 18.1081 19.2305 18.4727C19.2578 18.8281 19.2943 19.1107 19.3398 19.3203C19.3945 19.5299 19.4766 19.7715 19.5859 20.0449C19.6953 20.3184 19.8229 20.5326 19.9688 20.6875C20.1237 20.8333 20.3197 20.9655 20.5566 21.084C20.8027 21.1934 21.0762 21.2526 21.377 21.2617C22.0423 21.2253 22.5391 20.8516 22.8672 20.1406C23.1953 19.4297 23.3594 18.5592 23.3594 17.5293ZM27.6562 12.0059H32.4551C32.6191 13.291 32.7194 15.0775 32.7559 17.3652C32.8014 19.6439 32.847 21.1523 32.8926 21.8906C32.8105 22.1732 32.651 22.3145 32.4141 22.3145C32.25 22.3145 32.0905 22.2461 31.9355 22.1094C31.7897 21.9727 31.6986 21.8086 31.6621 21.6172C31.6621 20.8789 31.6393 19.3796 31.5938 17.1191C31.5482 14.8496 31.5254 13.4688 31.5254 12.9766C31.3249 12.9766 30.9967 12.9902 30.541 13.0176C30.0944 13.0449 29.7344 13.0586 29.4609 13.0586C29.0234 13.0586 28.6862 13.0495 28.4492 13.0312C28.4492 13.0586 28.4811 14.3939 28.5449 17.0371C28.6178 19.6803 28.6634 21.2982 28.6816 21.8906C28.5996 22.1732 28.4401 22.3145 28.2031 22.3145C28.0391 22.3145 27.8796 22.2461 27.7246 22.1094C27.5788 21.9727 27.4876 21.8086 27.4512 21.6172C27.4785 20.8333 27.5013 19.3112 27.5195 17.0508C27.5469 14.7904 27.5924 13.1087 27.6562 12.0059ZM36.2324 12.1836L36.8477 12.0195C36.8477 12.3112 36.8522 12.4753 36.8613 12.5117C37.3809 12.1654 38.11 11.9922 39.0488 11.9922C40.0605 11.9922 40.8171 12.3112 41.3184 12.9492C41.8197 13.5781 42.0703 14.4622 42.0703 15.6016C42.0703 16.6133 41.8242 17.4518 41.332 18.1172C40.8398 18.7826 40.097 19.1152 39.1035 19.1152C38.9395 19.1152 38.2832 19.0605 37.1348 18.9512C37.153 19.6165 37.1895 20.651 37.2441 22.0547C37.1621 22.3372 37.0026 22.4785 36.7656 22.4785C36.6016 22.4785 36.4421 22.4102 36.2871 22.2734C36.1413 22.1458 36.0501 21.9863 36.0137 21.7949C36.041 21.0293 36.0684 19.5391 36.0957 17.3242C36.1322 15.1094 36.1777 13.3958 36.2324 12.1836ZM36.9844 13.4277L37.0938 17.6934C37.5951 17.9668 38.1738 18.1035 38.8301 18.1035C39.459 18.1035 39.9922 17.8665 40.4297 17.3926C40.8672 16.9186 41.0859 16.3398 41.0859 15.6562C41.0859 14.918 40.8581 14.2526 40.4023 13.6602C39.9466 13.0677 39.377 12.7715 38.6934 12.7715C38.1374 12.7715 37.5677 12.9902 36.9844 13.4277ZM45.2051 17.4199C45.2051 17.11 45.2051 16.8776 45.2051 16.7227C45.2051 16.5586 45.2096 16.3125 45.2188 15.9844C45.237 15.6562 45.2552 15.3965 45.2734 15.2051C45.3008 15.0137 45.3372 14.7676 45.3828 14.4668C45.4284 14.1569 45.4876 13.9108 45.5605 13.7285C45.6335 13.5371 45.7155 13.3229 45.8066 13.0859C45.9069 12.849 46.0299 12.6576 46.1758 12.5117C46.3216 12.3659 46.4811 12.2292 46.6543 12.1016C46.8275 11.9648 47.0326 11.8646 47.2695 11.8008C47.5065 11.737 47.7663 11.7051 48.0488 11.7051C48.6139 11.7051 49.1061 11.819 49.5254 12.0469C49.9447 12.2656 50.2728 12.5436 50.5098 12.8809C50.7467 13.2181 50.9336 13.6328 51.0703 14.125C51.2161 14.6172 51.3073 15.0866 51.3438 15.5332C51.3893 15.9798 51.4121 16.472 51.4121 17.0098C51.4121 17.3743 51.403 17.7025 51.3848 17.9941C51.3757 18.2858 51.3483 18.6185 51.3027 18.9922C51.2663 19.3568 51.207 19.6803 51.125 19.9629C51.0521 20.2454 50.9473 20.5326 50.8105 20.8242C50.6738 21.1068 50.5098 21.3438 50.3184 21.5352C50.1361 21.7174 49.9036 21.8678 49.6211 21.9863C49.3385 22.1048 49.0241 22.1641 48.6777 22.1641C48.1126 22.1641 47.625 22.0957 47.2148 21.959C46.8138 21.8223 46.4811 21.6309 46.2168 21.3848C45.9616 21.1387 45.7565 20.8151 45.6016 20.4141C45.4557 20.013 45.3509 19.5755 45.2871 19.1016C45.2324 18.6276 45.2051 18.0671 45.2051 17.4199ZM50.4277 17.5293C50.4277 17.0827 50.3913 16.6178 50.3184 16.1348C50.2546 15.6517 50.1406 15.1322 49.9766 14.5762C49.8216 14.0202 49.571 13.569 49.2246 13.2227C48.8783 12.8672 48.4635 12.6895 47.9805 12.6895C47.6159 12.6895 47.2923 12.9355 47.0098 13.4277C46.7363 13.9108 46.5404 14.4577 46.4219 15.0684C46.3034 15.6699 46.2441 16.2396 46.2441 16.7773C46.2441 17.151 46.2441 17.4382 46.2441 17.6387C46.2533 17.8301 46.2715 18.1081 46.2988 18.4727C46.3262 18.8281 46.3626 19.1107 46.4082 19.3203C46.4629 19.5299 46.5449 19.7715 46.6543 20.0449C46.7637 20.3184 46.8913 20.5326 47.0371 20.6875C47.1921 20.8333 47.388 20.9655 47.625 21.084C47.8711 21.1934 48.1445 21.2526 48.4453 21.2617C49.1107 21.2253 49.6074 20.8516 49.9355 20.1406C50.2637 19.4297 50.4277 18.5592 50.4277 17.5293ZM59.4141 12.0059L59.25 12.7031C58.7852 12.7396 58.179 12.776 57.4316 12.8125C56.6842 12.849 56.0781 12.8809 55.6133 12.9082V15.998C56.0781 15.8704 56.502 15.8066 56.8848 15.8066C57.8965 15.8066 58.7031 16.1439 59.3047 16.8184C59.9062 17.4837 60.207 18.3314 60.207 19.3613C60.207 19.9355 59.9792 20.4368 59.5234 20.8652C59.0677 21.2845 58.5345 21.5898 57.9238 21.7812C57.3223 21.9635 56.7116 22.0547 56.0918 22.0547C55.3353 22.0547 54.8112 21.918 54.5195 21.6445C54.5469 20.8607 54.5742 19.334 54.6016 17.0645C54.6289 14.7949 54.6745 13.1087 54.7383 12.0059H59.4141ZM55.627 16.6133C55.627 16.6224 55.627 16.7272 55.627 16.9277C55.627 17.1283 55.6224 17.5384 55.6133 18.1582C55.6133 18.778 55.6133 19.6074 55.6133 20.6465C55.8867 20.9564 56.2376 21.1113 56.666 21.1113C57.2311 21.1113 57.778 20.8789 58.3066 20.4141C58.8353 19.9401 59.0996 19.4342 59.0996 18.8965C59.0996 18.1855 58.849 17.6113 58.3477 17.1738C57.8555 16.7272 57.2402 16.5039 56.502 16.5039C56.2559 16.5039 55.9642 16.5404 55.627 16.6133ZM62.4805 12.6758L63.1914 12.0059C63.6016 12.6803 64.1211 13.7194 64.75 15.123C65.3789 16.5267 65.8073 17.4518 66.0352 17.8984C66.9466 15.556 67.6348 13.6875 68.0996 12.293C68.2181 12.0742 68.3685 11.9648 68.5508 11.9648C68.7148 11.9648 68.8607 12.0469 68.9883 12.2109C69.1159 12.3659 69.1888 12.5482 69.207 12.7578C68.8971 13.4232 68.4049 14.5078 67.7305 16.0117C67.0651 17.5065 66.4954 18.7324 66.0215 19.6895C65.5566 20.6374 65.0599 21.5534 64.5312 22.4375L63.6426 22.2598L65.4062 18.8008C65.0781 17.8984 64.1029 15.8568 62.4805 12.6758ZM73.2168 10.9121L73.1211 10.4746C73.3398 10.502 73.554 10.5156 73.7637 10.5156C74.3926 10.5156 74.9714 10.3424 75.5 9.99609C75.7096 10.0143 75.8874 10.0781 76.0332 10.1875C76.1882 10.2969 76.2656 10.4245 76.2656 10.5703C76.2656 10.9076 75.8145 11.0762 74.9121 11.0762C74.2832 11.0762 73.7181 11.0215 73.2168 10.9121ZM71.959 11.9785L72.5742 12.1152C72.6654 13.6191 72.7702 16.1211 72.8887 19.6211C74.666 16.4583 75.8874 13.9154 76.5527 11.9922C76.6895 11.8828 76.8216 11.8281 76.9492 11.8281C77.1497 11.8281 77.3138 11.9466 77.4414 12.1836C77.5781 12.4206 77.651 12.6895 77.6602 12.9902C77.6875 13.8379 77.7103 15.2689 77.7285 17.2832C77.7559 19.2975 77.7923 20.8014 77.8379 21.7949C77.7559 22.0684 77.6009 22.2051 77.373 22.2051C77.209 22.2051 77.0495 22.1367 76.8945 22C76.7396 21.8724 76.6439 21.7129 76.6074 21.5215C76.6348 20.7285 76.6484 19.5117 76.6484 17.8711C76.6576 16.2305 76.6667 15.123 76.6758 14.5488C76.4753 14.8952 76.1243 15.5514 75.623 16.5176C75.1217 17.4837 74.6569 18.3132 74.2285 19.0059C73.8092 19.6986 73.3763 20.3001 72.9297 20.8105L72.9844 21.918C72.9023 22.2005 72.7428 22.3418 72.5059 22.3418C72.3418 22.3418 72.1823 22.2734 72.0273 22.1367C71.8815 22 71.7904 21.8359 71.7539 21.6445C71.7812 20.8698 71.8086 19.3522 71.8359 17.0918C71.8633 14.8314 71.9043 13.127 71.959 11.9785ZM92.0781 21.3848L92.2148 22C91.8594 22 91.2122 22.0137 90.2734 22.041C89.3438 22.0775 88.6693 22.0957 88.25 22.0957C87.5755 22.0957 87.1152 22.0638 86.8691 22C86.9603 20.9974 87.015 19.3203 87.0332 16.9688C87.0514 14.6172 87.1107 12.9766 87.2109 12.0469C87.5208 12.0742 88.3411 12.097 89.6719 12.1152C91.0117 12.1335 91.8867 12.1745 92.2969 12.2383L92.4473 12.8535C92.0371 12.9264 91.2168 13.013 89.9863 13.1133C88.7559 13.2135 88.1087 13.2682 88.0449 13.2773C88.054 13.487 88.0723 13.9154 88.0996 14.5625C88.1361 15.2096 88.1589 15.7428 88.168 16.1621C88.4779 16.1986 89.043 16.2533 89.8633 16.3262C90.6836 16.39 91.2031 16.431 91.4219 16.4492L91.5586 17.0781C89.6354 17.2513 88.5098 17.3424 88.1816 17.3516C88.1816 17.7526 88.1725 18.3633 88.1543 19.1836C88.1452 19.9948 88.1406 20.5918 88.1406 20.9746C90.2279 21.166 91.5404 21.3027 92.0781 21.3848ZM103.607 23.832H102.979C102.933 23.668 102.828 23.0573 102.664 22C101.707 22.1003 99.8431 22.1504 97.0723 22.1504C95.9512 22.1504 95.2585 22.1367 94.9941 22.1094C95.0215 21.125 95.0671 19.4479 95.1309 17.0781C95.1947 14.7083 95.2402 13.0312 95.2676 12.0469L95.8828 12.1836C95.9102 13.1406 95.9466 14.6628 95.9922 16.75C96.0469 18.8281 96.0879 20.3229 96.1152 21.2344L98.2754 21.1387C98.3118 20.1361 98.3711 18.5911 98.4531 16.5039C98.5352 14.4167 98.5898 12.9401 98.6172 12.0742L99.2324 12.2109C99.2598 13.1589 99.2962 14.6491 99.3418 16.6816C99.3965 18.7142 99.4375 20.1771 99.4648 21.0703C100.148 21.0065 100.864 20.9746 101.611 20.9746C101.648 19.9902 101.707 18.4681 101.789 16.4082C101.88 14.3392 101.939 12.8626 101.967 11.9785L102.582 12.1152C102.573 13.1087 102.568 14.3529 102.568 15.8477C102.568 16.9596 102.582 18.5137 102.609 20.5098C102.609 20.5553 102.609 20.6283 102.609 20.7285C102.618 20.8197 102.623 20.888 102.623 20.9336C102.732 20.9336 102.919 20.9427 103.184 20.9609C103.448 20.9701 103.662 20.9746 103.826 20.9746C103.826 21.0111 103.803 21.403 103.758 22.1504C103.721 22.8978 103.671 23.4583 103.607 23.832ZM111.869 21.3848L112.006 22C111.65 22 111.003 22.0137 110.064 22.041C109.135 22.0775 108.46 22.0957 108.041 22.0957C107.367 22.0957 106.906 22.0638 106.66 22C106.751 20.9974 106.806 19.3203 106.824 16.9688C106.842 14.6172 106.902 12.9766 107.002 12.0469C107.312 12.0742 108.132 12.097 109.463 12.1152C110.803 12.1335 111.678 12.1745 112.088 12.2383L112.238 12.8535C111.828 12.9264 111.008 13.013 109.777 13.1133C108.547 13.2135 107.9 13.2682 107.836 13.2773C107.845 13.487 107.863 13.9154 107.891 14.5625C107.927 15.2096 107.95 15.7428 107.959 16.1621C108.269 16.1986 108.834 16.2533 109.654 16.3262C110.475 16.39 110.994 16.431 111.213 16.4492L111.35 17.0781C109.426 17.2513 108.301 17.3424 107.973 17.3516C107.973 17.7526 107.964 18.3633 107.945 19.1836C107.936 19.9948 107.932 20.5918 107.932 20.9746C110.019 21.166 111.331 21.3027 111.869 21.3848Z" fill="#FF9900"/>
</svg>
