<svg width="36" height="36" viewBox="0 0 36 36" fill="none" xmlns="http://www.w3.org/2000/svg">
<path d="M12.5354 14.3619C12.9305 14.7869 13.4907 15.0192 14.0706 14.9988C14.6505 14.9783 15.1929 14.707 15.557 14.2552C16.1623 13.5045 16.809 13.2123 17.6176 13.2123C17.9746 13.2123 18.145 13.3048 18.2675 13.4125C18.3497 13.4848 18.3689 13.5261 18.371 13.5305L18.371 13.5306C18.373 13.5348 18.3749 13.5399 18.3769 13.549C18.379 13.5586 18.3824 13.5792 18.3824 13.6145C18.3824 13.9363 18.261 14.4079 17.3373 15.0194C17.3182 15.032 17.2994 15.0449 17.2809 15.0581C16.7292 15.4511 16.2899 15.7753 15.9877 16.0178C15.6071 16.3202 15.1989 16.7465 14.7908 17.2116L14.7908 17.2116L14.7851 17.2181C14.1982 17.8928 13.7958 18.68 13.6047 19.5575C13.6006 19.5762 13.5968 19.5949 13.5933 19.6137C13.4399 20.4292 13.4712 21.2827 13.6168 22.1355C13.6767 22.4866 13.8259 22.803 14.0385 23.0633C13.3562 23.7847 12.9412 24.7048 12.9412 25.7654C12.9412 26.9043 13.3623 27.9312 14.1492 28.7465C14.1693 28.7674 14.1899 28.7878 14.2109 28.8077C15.0619 29.6159 16.1259 30 17.2647 30C18.4021 30 19.4535 29.5881 20.2653 28.7436C20.2751 28.7334 20.2848 28.7231 20.2944 28.7127C21.0506 27.8919 21.4412 26.8758 21.4412 25.7654C21.4412 24.6655 20.9948 23.7167 20.2668 22.9839C20.5239 22.6473 20.6765 22.2268 20.6765 21.771C20.6765 21.5873 20.6679 21.3891 20.6428 21.1846C20.6566 21.1497 20.6698 21.1154 20.6826 21.0818C20.7165 21.0412 20.7439 21.0095 20.7653 20.9855C20.7832 20.9654 20.7933 20.9548 20.7963 20.9517C20.8473 20.9027 20.8958 20.851 20.9414 20.7969L20.9415 20.7968C20.9425 20.7956 20.9576 20.7782 20.993 20.7417C21.0209 20.713 21.0566 20.6775 21.1012 20.6345C21.2432 20.5153 21.3351 20.4415 21.3864 20.4026C21.3969 20.3946 21.4073 20.3865 21.4177 20.3783C21.548 20.2751 21.6992 20.1507 21.8682 20.0085C22.0456 19.8735 22.1965 19.7571 22.3179 19.6611C23.3562 18.8624 24.2307 17.9918 24.8858 17.0346L24.8986 17.0156C25.6909 15.829 26 14.4095 26 12.9162C26 10.9071 25.1632 9.19627 23.6245 7.90534C22.0756 6.55224 20.0555 6 17.8235 6C16.2824 6 14.8247 6.32255 13.4854 6.99451C12.1717 7.65365 11.0855 8.56965 10.3162 9.76995C9.82367 10.5384 9.91386 11.5427 10.5354 12.2111L12.5354 14.3619Z" fill="#A3D7FF" stroke="white" stroke-width="4" stroke-linejoin="round"/>
</svg>
