<svg width="36" height="36" viewBox="0 0 36 36" fill="none" xmlns="http://www.w3.org/2000/svg">
<path fill-rule="evenodd" clip-rule="evenodd" d="M18 28C23.5228 28 28 23.5228 28 18C28 12.4772 23.5228 8 18 8C12.4772 8 8 12.4772 8 18C8 23.5228 12.4772 28 18 28Z" fill="url(#paint0_linear_5629_54669)"/>
<path d="M15.7578 21.0686C15.6267 21.3115 15.6975 21.6265 15.9161 21.7722C16.1347 21.9179 16.4182 21.8391 16.5493 21.5963C16.931 20.8894 17.4007 20.5632 17.9997 20.5632C18.5986 20.5632 19.0683 20.8894 19.45 21.5963C19.5811 21.8391 19.8646 21.9179 20.0832 21.7722C20.3018 21.6265 20.3727 21.3115 20.2415 21.0686C19.7002 20.0661 18.9391 19.5376 17.9997 19.5376C17.0602 19.5376 16.2992 20.0661 15.7578 21.0686Z" fill="#4A4A4A"/>
<path fill-rule="evenodd" clip-rule="evenodd" d="M13.3845 18.0007C13.8093 18.0007 14.1537 17.4841 14.1537 16.8468C14.1537 16.2096 13.8093 15.693 13.3845 15.693C12.9597 15.693 12.6153 16.2096 12.6153 16.8468C12.6153 17.4841 12.9597 18.0007 13.3845 18.0007Z" fill="#4A4A4A"/>
<path fill-rule="evenodd" clip-rule="evenodd" d="M22.6151 18.0007C23.0399 18.0007 23.3843 17.4841 23.3843 16.8468C23.3843 16.2096 23.0399 15.693 22.6151 15.693C22.1902 15.693 21.8458 16.2096 21.8458 16.8468C21.8458 17.4841 22.1902 18.0007 22.6151 18.0007Z" fill="#4A4A4A"/>
<defs>
<linearGradient id="paint0_linear_5629_54669" x1="11.9583" y1="8" x2="11.9583" y2="20.0835" gradientUnits="userSpaceOnUse">
<stop stop-color="#FF9976"/>
<stop offset="1" stop-color="#FFD996"/>
</linearGradient>
</defs>
</svg>
