<svg width="44" height="44" viewBox="0 0 44 44" fill="none" xmlns="http://www.w3.org/2000/svg">
<path d="M25 12C26.1046 12 27 12.8954 27 14V27.2525C27 27.5992 26.9099 27.94 26.7385 28.2413L21.0189 38.2967M25 12L21.0189 38.2967M25 12H14.738C11.8411 12 9.51462 14.1463 8.88756 16.9024L7.13118 24.622C6.47754 27.4949 8.42128 30.725 11.6815 30.725H14.1636L14.1511 30.7617C13.2663 33.3542 13.7033 36.2819 15.3514 38.455L16.945 37.2465M25 12L16.945 37.2465M21.0189 38.2967C19.847 40.357 16.9987 40.627 15.521 38.6787L15.3514 38.455L16.945 37.2465M21.0189 38.2967L16.945 37.2465" fill="#1A96F6" stroke="white" stroke-width="4" stroke-linejoin="round"/>
<path d="M34 29H36V27V14V12H34H29H27V14V27V29H29H34Z" fill="#1A96F6" stroke="white" stroke-width="4"/>
</svg>
