<svg width="96" height="44" viewBox="0 0 96 44" fill="none" xmlns="http://www.w3.org/2000/svg">
<path d="M2 11.8889C2 9.74111 3.83883 8 6.10714 8L89.8929 8C92.1612 8 94 9.74111 94 11.8889V32.1111C94 34.2589 92.1612 36 89.8929 36H6.10714C3.83883 36 2 34.2589 2 32.1111L2 11.8889Z" fill="white"/>
<path d="M3.64286 13.4444C3.64286 11.2967 5.48169 9.55556 7.75 9.55556L88.25 9.55556C90.5183 9.55556 92.3571 11.2967 92.3571 13.4444V30.5556C92.3571 32.7033 90.5183 34.4444 88.25 34.4444H7.75C5.48169 34.4444 3.64286 32.7033 3.64286 30.5556L3.64286 13.4444Z" fill="#7FC92E"/>
<path d="M21.5603 27.4444L20.219 27.5614C19.5719 23.7181 18.8719 20.4262 18.1189 17.6858C17.7307 18.5547 17.3012 19.7801 16.8306 21.362C16.3718 22.9327 16.0541 23.952 15.8777 24.4199C15.8541 24.4199 15.8129 24.4255 15.7541 24.4366C15.7071 24.4366 15.6659 24.4366 15.6306 24.4366C15.4659 24.4366 15.1953 24.4199 14.8188 24.3865C14.4423 24.3531 14.2011 24.3364 14.0952 24.3364C14.0835 24.0133 13.7834 22.9383 13.1952 21.1113C12.6069 19.2732 12.254 18.0979 12.1363 17.5855C11.9245 19.3902 11.101 22.6765 9.6656 27.4444L8.57143 27.3442C8.73614 26.1299 9.14204 24.2194 9.78913 21.6126C10.4362 19.0059 10.8186 16.9895 10.9362 15.5636C11.148 15.5413 11.3186 15.5302 11.448 15.5302C11.5657 15.5302 12.001 15.5747 12.754 15.6638C12.9187 15.6861 13.154 16.193 13.4599 17.1845C13.7776 18.1648 14.0952 19.2454 14.4129 20.4262C14.7305 21.6071 14.9305 22.3033 15.0129 22.515C15.3423 21.7463 15.7365 20.4986 16.1953 18.7719C16.6659 17.0452 16.9953 15.9479 17.1836 15.48C17.3718 15.4912 17.966 15.5413 18.966 15.6304C19.2719 16.7556 19.5661 17.9698 19.8484 19.2732C20.1426 20.5766 20.4543 22.0582 20.7838 23.7181C21.125 25.378 21.3838 26.6201 21.5603 27.4444Z" fill="white"/>
<path d="M23.9443 21.8466C23.9443 21.4678 23.9443 21.1837 23.9443 20.9944C23.9443 20.7938 23.9502 20.4931 23.962 20.092C23.9855 19.691 24.009 19.3735 24.0326 19.1395C24.0679 18.9056 24.1149 18.6048 24.1738 18.2372C24.2326 17.8584 24.3091 17.5577 24.4032 17.3349C24.4973 17.1009 24.6032 16.8391 24.7208 16.5495C24.8503 16.2598 25.0091 16.0259 25.1973 15.8477C25.3856 15.6694 25.5915 15.5023 25.815 15.3464C26.0386 15.1793 26.3033 15.0567 26.6092 14.9787C26.9151 14.9008 27.2504 14.8618 27.6151 14.8618C28.3445 14.8618 28.9799 15.001 29.5211 15.2795C30.0623 15.5469 30.4858 15.8866 30.7917 16.2988C31.0976 16.711 31.3388 17.2179 31.5153 17.8194C31.7035 18.421 31.8212 18.9947 31.8682 19.5406C31.9271 20.0864 31.9565 20.688 31.9565 21.3453C31.9565 21.7909 31.9447 22.1919 31.9212 22.5484C31.9094 22.9049 31.8741 23.3115 31.8153 23.7682C31.7682 24.2138 31.6918 24.6093 31.5859 24.9546C31.4917 25.3 31.3564 25.6509 31.18 26.0074C31.0035 26.3527 30.7917 26.6424 30.5446 26.8763C30.3093 27.0991 30.0093 27.2829 29.6446 27.4277C29.2799 27.5726 28.874 27.645 28.4269 27.645C27.6975 27.645 27.068 27.5614 26.5386 27.3943C26.0209 27.2272 25.5915 26.9933 25.2503 26.6925C24.9209 26.3917 24.6561 25.9962 24.4561 25.5061C24.2679 25.0159 24.1326 24.4812 24.0502 23.9019C23.9796 23.3226 23.9443 22.6375 23.9443 21.8466ZM30.6858 21.9803C30.6858 21.4344 30.6388 20.8662 30.5446 20.2758C30.4623 19.6854 30.3152 19.0504 30.1034 18.3709C29.9034 17.6913 29.5799 17.1399 29.1328 16.7166C28.6857 16.2821 28.1504 16.0649 27.5269 16.0649C27.0562 16.0649 26.6386 16.3657 26.2739 16.9672C25.9209 17.5577 25.6679 18.2261 25.515 18.9724C25.362 19.7077 25.2856 20.4039 25.2856 21.0612C25.2856 21.5179 25.2856 21.8689 25.2856 22.1139C25.2973 22.3479 25.3209 22.6876 25.3562 23.1332C25.3915 23.5677 25.4385 23.913 25.4974 24.1693C25.5679 24.4255 25.6738 24.7207 25.815 25.0549C25.9562 25.3891 26.1209 25.6509 26.3092 25.8403C26.5092 26.0185 26.7621 26.18 27.068 26.3249C27.3857 26.4586 27.7386 26.531 28.1269 26.5421C28.9857 26.4975 29.627 26.0408 30.0505 25.1719C30.4741 24.303 30.6858 23.2391 30.6858 21.9803Z" fill="white"/>
<path d="M33.3699 29.0152L32.8581 28.1463C33.5052 27.7341 34.0582 27.2606 34.517 26.7259C34.9759 26.18 35.3347 25.6398 35.5935 25.105C35.8524 24.5592 36.0583 23.9409 36.2112 23.2502C36.3642 22.5595 36.4583 21.9246 36.4936 21.3453C36.5406 20.7548 36.5642 20.0753 36.5642 19.3066C36.5642 18.9056 36.5759 18.2873 36.5995 17.4518C36.6348 16.6052 36.6524 15.9591 36.6524 15.5135C36.9936 15.4578 37.5172 15.4299 38.2231 15.4299C38.5172 15.4299 38.9643 15.441 39.5643 15.4633C40.1643 15.4745 40.6173 15.48 40.9232 15.48C41.4879 15.48 42.0056 15.4578 42.4762 15.4132C42.6174 16.1596 42.688 17.3293 42.688 18.9223C42.688 19.3456 42.6821 20.014 42.6703 20.9275C42.6586 21.8299 42.6527 22.515 42.6527 22.9829C42.6527 24.8098 42.7351 26.3137 42.8998 27.4946C42.7939 27.8399 42.5939 28.0126 42.2997 28.0126C42.088 28.0126 41.8821 27.929 41.6821 27.7619C41.4821 27.606 41.3585 27.411 41.3115 27.1771C41.335 26.3082 41.3468 25.6453 41.3468 25.1886C41.3468 24.5425 41.3291 23.5287 41.2938 22.1474C41.2703 20.766 41.2585 19.6965 41.2585 18.939C41.2585 17.9141 41.2703 17.151 41.2938 16.6497C41.0114 16.6275 40.5232 16.6107 39.829 16.5996C39.1349 16.5885 38.6054 16.5606 38.2407 16.5161C38.1348 17.0953 38.0466 17.8529 37.976 18.7886C37.9172 19.7133 37.8642 20.5376 37.8172 21.2617C37.7819 21.9747 37.676 22.7656 37.4995 23.6345C37.3348 24.4923 37.1054 25.2387 36.8112 25.8737C36.5289 26.5087 36.0936 27.1102 35.5053 27.6784C34.9288 28.2577 34.217 28.7033 33.3699 29.0152Z" fill="white"/>
<path d="M46.0074 21.8466C46.0074 21.4678 46.0074 21.1837 46.0074 20.9944C46.0074 20.7938 46.0133 20.4931 46.025 20.092C46.0486 19.691 46.0721 19.3735 46.0956 19.1395C46.1309 18.9056 46.178 18.6048 46.2368 18.2372C46.2956 17.8584 46.3721 17.5577 46.4662 17.3349C46.5604 17.1009 46.6662 16.8391 46.7839 16.5495C46.9133 16.2598 47.0722 16.0259 47.2604 15.8477C47.4486 15.6694 47.6545 15.5023 47.8781 15.3464C48.1016 15.1793 48.3663 15.0567 48.6722 14.9787C48.9781 14.9008 49.3134 14.8618 49.6782 14.8618C50.4076 14.8618 51.0429 15.001 51.5841 15.2795C52.1253 15.5469 52.5489 15.8866 52.8548 16.2988C53.1607 16.711 53.4019 17.2179 53.5783 17.8194C53.7666 18.421 53.8842 18.9947 53.9313 19.5406C53.9901 20.0864 54.0195 20.688 54.0195 21.3453C54.0195 21.7909 54.0078 22.1919 53.9842 22.5484C53.9725 22.9049 53.9372 23.3115 53.8783 23.7682C53.8313 24.2138 53.7548 24.6093 53.6489 24.9546C53.5548 25.3 53.4195 25.6509 53.243 26.0074C53.0665 26.3527 52.8548 26.6424 52.6077 26.8763C52.3724 27.0991 52.0724 27.2829 51.7077 27.4277C51.3429 27.5726 50.937 27.645 50.49 27.645C49.7605 27.645 49.1311 27.5614 48.6016 27.3943C48.084 27.2272 47.6545 26.9933 47.3133 26.6925C46.9839 26.3917 46.7192 25.9962 46.5192 25.5061C46.3309 25.0159 46.1956 24.4812 46.1133 23.9019C46.0427 23.3226 46.0074 22.6375 46.0074 21.8466ZM52.7489 21.9803C52.7489 21.4344 52.7018 20.8662 52.6077 20.2758C52.5253 19.6854 52.3783 19.0504 52.1665 18.3709C51.9665 17.6913 51.643 17.1399 51.1959 16.7166C50.7488 16.2821 50.2135 16.0649 49.5899 16.0649C49.1193 16.0649 48.7016 16.3657 48.3369 16.9672C47.984 17.5577 47.731 18.2261 47.5781 18.9724C47.4251 19.7077 47.3486 20.4039 47.3486 21.0612C47.3486 21.5179 47.3486 21.8689 47.3486 22.1139C47.3604 22.3479 47.3839 22.6876 47.4192 23.1332C47.4545 23.5677 47.5016 23.913 47.5604 24.1693C47.631 24.4255 47.7369 24.7207 47.8781 25.0549C48.0193 25.3891 48.184 25.6509 48.3722 25.8403C48.5722 26.0185 48.8252 26.18 49.1311 26.3249C49.4487 26.4586 49.8017 26.531 50.1899 26.5421C51.0488 26.4975 51.69 26.0408 52.1136 25.1719C52.5371 24.303 52.7489 23.2391 52.7489 21.9803Z" fill="white"/>
<path d="M65.8805 29.5833L65.0864 29.4162C64.9805 28.5696 64.7981 27.8789 64.5393 27.3442C63.5628 27.2773 62.5862 27.2439 61.6097 27.2439C60.7744 27.2439 59.5332 27.2773 57.886 27.3442C57.8154 27.5781 57.6801 28.3913 57.4801 29.7839L56.7213 29.717C56.486 28.525 56.3683 27.5001 56.3683 26.6424C56.3683 26.5978 56.3683 26.5198 56.3683 26.4084C56.3801 26.297 56.386 26.2135 56.386 26.1578C56.3977 26.1578 56.5918 26.1578 56.9683 26.1578C57.3448 26.1466 57.5389 26.1411 57.5507 26.1411C57.8566 25.5506 58.1037 24.9157 58.2919 24.2361C58.4919 23.5454 58.6272 22.8102 58.6978 22.0304C58.7684 21.2394 58.8155 20.5488 58.839 19.9583C58.8625 19.3568 58.8743 18.5937 58.8743 17.6691C58.8743 16.7444 58.8802 16.0537 58.892 15.597C59.7155 15.5413 61.5509 15.5135 64.3981 15.5135L64.7863 25.9907C64.9746 26.0129 65.1687 26.0297 65.3687 26.0408C65.5687 26.0519 65.7629 26.0631 65.9511 26.0742C65.9158 26.3082 65.8982 26.5978 65.8982 26.9431C65.8982 27.1214 65.904 27.3999 65.9158 27.7786C65.9276 28.1685 65.9335 28.4582 65.9335 28.6476C65.9335 29.0263 65.9158 29.3383 65.8805 29.5833ZM58.9625 26.0408C59.2802 26.0408 59.7567 26.0519 60.392 26.0742C61.0273 26.0854 61.498 26.0909 61.8039 26.0909C62.2509 26.0909 62.7157 26.0742 63.198 26.0408C63.2216 25.339 63.2333 24.2417 63.2333 22.7489V19.4236C63.2333 18.0979 63.2451 17.1121 63.2686 16.4659C62.9392 16.4436 62.6921 16.4325 62.5274 16.4325C62.2568 16.4325 61.8627 16.4492 61.345 16.4826C60.8391 16.5161 60.4979 16.5383 60.3214 16.5495C60.2861 17.0508 60.245 17.8417 60.1979 18.9223C60.1508 19.9918 60.1038 20.8217 60.0567 21.4121C60.0097 22.0025 59.892 22.7378 59.7038 23.6178C59.5273 24.4868 59.2802 25.2944 58.9625 26.0408Z" fill="white"/>
<path d="M75.3943 26.6925L75.5708 27.4444C75.112 27.4444 74.2766 27.4612 73.0648 27.4946C71.8647 27.5391 70.9941 27.5614 70.4529 27.5614C69.5823 27.5614 68.9881 27.5224 68.6705 27.4444C68.7881 26.219 68.8587 24.1693 68.8823 21.2951C68.9058 18.421 68.9823 16.4158 69.1117 15.2795C69.5117 15.3129 70.5706 15.3408 72.2883 15.3631C74.0178 15.3853 75.1473 15.4355 75.6767 15.5135L75.8708 16.2654C75.3414 16.3545 74.2825 16.4604 72.6942 16.5829C71.1059 16.7054 70.2706 16.7723 70.1882 16.7834C70.2 17.0396 70.2235 17.5632 70.2588 18.3542C70.3059 19.1451 70.3353 19.7968 70.347 20.3092C70.747 20.3538 71.4765 20.4206 72.5354 20.5098C73.5942 20.5877 74.2649 20.6379 74.5472 20.6602L74.7237 21.4288C72.2412 21.6405 70.7882 21.7519 70.3647 21.763C70.3647 22.2532 70.3529 22.9996 70.3294 24.0022C70.3176 24.9936 70.3117 25.7233 70.3117 26.1912C73.006 26.4251 74.7002 26.5922 75.3943 26.6925Z" fill="white"/>
<path d="M86.3376 29.6836H85.5258C85.467 29.4831 85.3317 28.7367 85.1199 27.4444C84.2846 27.5336 82.961 27.5781 81.1491 27.5781C79.7255 27.5781 78.749 27.5503 78.2196 27.4946C78.2549 26.2915 78.3137 24.2417 78.3961 21.3453C78.4784 18.4489 78.5373 16.3991 78.5725 15.196L79.3667 15.3631C79.402 16.5328 79.4491 18.3932 79.5079 20.9442C79.5785 23.4842 79.6314 25.3111 79.6667 26.4251C80.1962 26.4251 80.655 26.4363 81.0433 26.4586C81.4315 26.4697 81.6374 26.4753 81.6609 26.4753C81.8492 26.4753 82.5492 26.3806 83.761 26.1912C83.8081 24.9881 83.8846 23.1277 83.9904 20.61C84.1081 18.0812 84.1846 16.2765 84.2199 15.196L85.014 15.3631C85.0023 16.154 84.9964 17.3404 84.9964 18.9223C84.9964 21.0612 85.014 23.2948 85.0493 25.623C85.0493 25.6787 85.0493 25.7679 85.0493 25.8904C85.0611 26.0018 85.067 26.0854 85.067 26.1411C85.2082 26.1411 85.4493 26.1522 85.7905 26.1745C86.1317 26.1856 86.4082 26.1912 86.62 26.1912C86.62 26.2358 86.5906 26.7148 86.5317 27.6283C86.4847 28.5417 86.42 29.2269 86.3376 29.6836Z" fill="white"/>
</svg>
