<svg width="44" height="44" viewBox="0 0 44 44" fill="none" xmlns="http://www.w3.org/2000/svg">
<path d="M22 37C30.2843 37 37 30.2843 37 22C37 13.7157 30.2843 7 22 7C13.7157 7 7 13.7157 7 22C7 30.2843 13.7157 37 22 37Z" fill="#FFD996" stroke="white" stroke-width="4"/>
<path d="M24.9144 25.0097C25.0849 24.694 24.9928 24.2845 24.7086 24.0951C24.4245 23.9057 24.0559 24.008 23.8854 24.3238C23.3892 25.2427 22.7786 25.6667 22 25.6667C21.2214 25.6667 20.6108 25.2427 20.1146 24.3238C19.9441 24.008 19.5755 23.9057 19.2914 24.0951C19.0072 24.2845 18.9151 24.694 19.0856 25.0097C19.7893 26.313 20.7787 27 22 27C23.2213 27 24.2107 26.313 24.9144 25.0097Z" fill="#4A4A4A"/>
<path fill-rule="evenodd" clip-rule="evenodd" d="M16 22C16.5523 22 17 21.3284 17 20.5C17 19.6716 16.5523 19 16 19C15.4477 19 15 19.6716 15 20.5C15 21.3284 15.4477 22 16 22Z" fill="#4A4A4A"/>
<path fill-rule="evenodd" clip-rule="evenodd" d="M28 22C28.5523 22 29 21.3284 29 20.5C29 19.6716 28.5523 19 28 19C27.4477 19 27 19.6716 27 20.5C27 21.3284 27.4477 22 28 22Z" fill="#4A4A4A"/>
</svg>
