<svg width="148" height="44" viewBox="0 0 148 44" fill="none" xmlns="http://www.w3.org/2000/svg">
<path d="M8 11.5C8 9.567 9.71798 8 11.8372 8H136.163C138.282 8 140 9.567 140 11.5V32.5C140 34.433 138.282 36 136.163 36H11.8372C9.71798 36 8 34.433 8 32.5V11.5Z" fill="white"/>
<path d="M9.53488 12.9C9.53488 10.967 11.2529 9.4 13.3721 9.4H134.628C136.747 9.4 138.465 10.967 138.465 12.9V31.1C138.465 33.033 136.747 34.6 134.628 34.6H13.3721C11.2529 34.6 9.53488 33.033 9.53488 31.1V12.9Z" fill="#FFB334"/>
<path d="M16.5977 15.9064H22.385C22.5829 17.3201 22.7038 19.2852 22.7478 21.8018C22.8027 24.3083 22.8577 25.9676 22.9127 26.7797C22.8137 27.0905 22.6214 27.2459 22.3356 27.2459C22.1377 27.2459 21.9454 27.1707 21.7585 27.0203C21.5826 26.8699 21.4727 26.6895 21.4287 26.4789C21.4287 25.6668 21.4013 24.0175 21.3463 21.5311C21.2913 19.0346 21.2639 17.5156 21.2639 16.9742C21.022 16.9742 20.6263 16.9893 20.0767 17.0193C19.5381 17.0494 19.1039 17.0645 18.7742 17.0645C18.2465 17.0645 17.8398 17.0544 17.5541 17.0344C17.5541 17.0645 17.5925 18.5333 17.6695 21.4408C17.7574 24.3484 17.8124 26.128 17.8343 26.7797C17.7354 27.0905 17.5431 27.2459 17.2573 27.2459C17.0594 27.2459 16.8671 27.1707 16.6802 27.0203C16.5043 26.8699 16.3944 26.6895 16.3504 26.4789C16.3834 25.6167 16.4109 23.9423 16.4329 21.4559C16.4658 18.9694 16.5208 17.1196 16.5977 15.9064Z" fill="white"/>
<path d="M25.816 21.8619C25.816 21.521 25.816 21.2654 25.816 21.0949C25.816 20.9145 25.8215 20.6438 25.8325 20.2828C25.8545 19.9219 25.8765 19.6361 25.8985 19.4256C25.9315 19.215 25.9754 18.9443 26.0304 18.6135C26.0853 18.2726 26.1568 18.0019 26.2447 17.8014C26.3327 17.5908 26.4316 17.3552 26.5415 17.0945C26.6624 16.8339 26.8108 16.6233 26.9867 16.4629C27.1626 16.3025 27.3549 16.1521 27.5638 16.0117C27.7726 15.8613 28.0199 15.751 28.3057 15.6809C28.5915 15.6107 28.9048 15.5756 29.2455 15.5756C29.9271 15.5756 30.5206 15.7009 31.0263 15.9516C31.5319 16.1922 31.9276 16.498 32.2134 16.8689C32.4992 17.2399 32.7245 17.6961 32.8894 18.2375C33.0653 18.7789 33.1752 19.2952 33.2192 19.7865C33.2741 20.2778 33.3016 20.8192 33.3016 21.4107C33.3016 21.8118 33.2906 22.1727 33.2686 22.4936C33.2576 22.8144 33.2247 23.1803 33.1697 23.5914C33.1257 23.9924 33.0543 24.3484 32.9554 24.6592C32.8674 24.97 32.741 25.2858 32.5761 25.6066C32.4112 25.9174 32.2134 26.1781 31.9826 26.3887C31.7627 26.5892 31.4824 26.7546 31.1417 26.885C30.8009 27.0153 30.4217 27.0805 30.004 27.0805C29.3225 27.0805 28.7344 27.0053 28.2398 26.8549C27.7561 26.7045 27.3549 26.4939 27.0362 26.2232C26.7284 25.9525 26.4811 25.5966 26.2942 25.1555C26.1183 24.7143 25.9919 24.2331 25.915 23.7117C25.849 23.1904 25.816 22.5738 25.816 21.8619ZM32.1145 21.9822C32.1145 21.491 32.0705 20.9796 31.9826 20.4482C31.9056 19.9169 31.7682 19.3454 31.5704 18.7338C31.3835 18.1222 31.0812 17.6259 30.6635 17.2449C30.2458 16.8539 29.7457 16.6584 29.1631 16.6584C28.7234 16.6584 28.3332 16.9291 27.9925 17.4705C27.6627 18.0019 27.4264 18.6035 27.2835 19.2752C27.1406 19.9369 27.0691 20.5635 27.0691 21.1551C27.0691 21.5661 27.0691 21.882 27.0691 22.1025C27.0801 22.3131 27.1021 22.6189 27.1351 23.0199C27.1681 23.4109 27.212 23.7217 27.267 23.9523C27.3329 24.1829 27.4319 24.4486 27.5638 24.7494C27.6957 25.0502 27.8496 25.2858 28.0254 25.4562C28.2123 25.6167 28.4486 25.762 28.7344 25.8924C29.0312 26.0127 29.361 26.0779 29.7237 26.0879C30.5261 26.0478 31.1252 25.6367 31.5209 24.8547C31.9166 24.0727 32.1145 23.1152 32.1145 21.9822Z" fill="white"/>
<path d="M36.4193 15.9064H42.2066C42.4045 17.3201 42.5254 19.2852 42.5694 21.8018C42.6243 24.3083 42.6793 25.9676 42.7342 26.7797C42.6353 27.0905 42.443 27.2459 42.1572 27.2459C41.9593 27.2459 41.7669 27.1707 41.5801 27.0203C41.4042 26.8699 41.2943 26.6895 41.2503 26.4789C41.2503 25.6668 41.2228 24.0175 41.1679 21.5311C41.1129 19.0346 41.0854 17.5156 41.0854 16.9742C40.8436 16.9742 40.4479 16.9893 39.8983 17.0193C39.3597 17.0494 38.9255 17.0645 38.5957 17.0645C38.0681 17.0645 37.6614 17.0544 37.3756 17.0344C37.3756 17.0645 37.4141 18.5333 37.4911 21.4408C37.579 24.3484 37.6339 26.128 37.6559 26.7797C37.557 27.0905 37.3646 27.2459 37.0789 27.2459C36.881 27.2459 36.6886 27.1707 36.5018 27.0203C36.3259 26.8699 36.216 26.6895 36.172 26.4789C36.205 25.6167 36.2325 23.9423 36.2545 21.4559C36.2874 18.9694 36.3424 17.1196 36.4193 15.9064Z" fill="white"/>
<path d="M45.8849 16.102L46.6269 15.9215C46.6269 16.2423 46.6324 16.4228 46.6434 16.4629C47.2699 16.0819 48.1493 15.8914 49.2815 15.8914C50.5016 15.8914 51.4139 16.2423 52.0185 16.9441C52.623 17.6359 52.9253 18.6085 52.9253 19.8617C52.9253 20.9746 52.6285 21.897 52.035 22.6289C51.4414 23.3608 50.5456 23.7268 49.3474 23.7268C49.1496 23.7268 48.3582 23.6666 46.9732 23.5463C46.9951 24.2782 47.0391 25.4161 47.1051 26.9602C47.0061 27.271 46.8138 27.4264 46.528 27.4264C46.3301 27.4264 46.1378 27.3512 45.9509 27.2008C45.775 27.0604 45.6651 26.885 45.6211 26.6744C45.6541 25.8322 45.6871 24.193 45.7201 21.7566C45.764 19.3203 45.819 17.4354 45.8849 16.102ZM46.7918 17.4705L46.9237 22.1627C47.5283 22.4635 48.2262 22.6139 49.0177 22.6139C49.7761 22.6139 50.4192 22.3532 50.9468 21.8318C51.4744 21.3105 51.7382 20.6738 51.7382 19.9219C51.7382 19.1098 51.4634 18.3779 50.9138 17.7262C50.3642 17.0745 49.6772 16.7486 48.8528 16.7486C48.1823 16.7486 47.4953 16.9893 46.7918 17.4705Z" fill="white"/>
<path d="M55.8287 21.8619C55.8287 21.521 55.8287 21.2654 55.8287 21.0949C55.8287 20.9145 55.8342 20.6438 55.8452 20.2828C55.8672 19.9219 55.8892 19.6361 55.9112 19.4256C55.9441 19.215 55.9881 18.9443 56.0431 18.6135C56.098 18.2726 56.1695 18.0019 56.2574 17.8014C56.3453 17.5908 56.4443 17.3552 56.5542 17.0945C56.6751 16.8339 56.8235 16.6233 56.9994 16.4629C57.1752 16.3025 57.3676 16.1521 57.5764 16.0117C57.7853 15.8613 58.0326 15.751 58.3184 15.6809C58.6042 15.6107 58.9175 15.5756 59.2582 15.5756C59.9397 15.5756 60.5333 15.7009 61.0389 15.9516C61.5446 16.1922 61.9403 16.498 62.2261 16.8689C62.5119 17.2399 62.7372 17.6961 62.9021 18.2375C63.0779 18.7789 63.1879 19.2952 63.2318 19.7865C63.2868 20.2778 63.3143 20.8192 63.3143 21.4107C63.3143 21.8118 63.3033 22.1727 63.2813 22.4936C63.2703 22.8144 63.2373 23.1803 63.1824 23.5914C63.1384 23.9924 63.067 24.3484 62.968 24.6592C62.8801 24.97 62.7537 25.2858 62.5888 25.6066C62.4239 25.9174 62.2261 26.1781 61.9952 26.3887C61.7754 26.5892 61.4951 26.7546 61.1543 26.885C60.8136 27.0153 60.4344 27.0805 60.0167 27.0805C59.3352 27.0805 58.7471 27.0053 58.2525 26.8549C57.7688 26.7045 57.3676 26.4939 57.0488 26.2232C56.7411 25.9525 56.4937 25.5966 56.3069 25.1555C56.131 24.7143 56.0046 24.2331 55.9276 23.7117C55.8617 23.1904 55.8287 22.5738 55.8287 21.8619ZM62.1271 21.9822C62.1271 21.491 62.0832 20.9796 61.9952 20.4482C61.9183 19.9169 61.7809 19.3454 61.583 18.7338C61.3962 18.1222 61.0939 17.6259 60.6762 17.2449C60.2585 16.8539 59.7584 16.6584 59.1758 16.6584C58.7361 16.6584 58.3459 16.9291 58.0051 17.4705C57.6754 18.0019 57.439 18.6035 57.2962 19.2752C57.1533 19.9369 57.0818 20.5635 57.0818 21.1551C57.0818 21.5661 57.0818 21.882 57.0818 22.1025C57.0928 22.3131 57.1148 22.6189 57.1478 23.0199C57.1807 23.4109 57.2247 23.7217 57.2797 23.9523C57.3456 24.1829 57.4445 24.4486 57.5764 24.7494C57.7083 25.0502 57.8622 25.2858 58.0381 25.4562C58.225 25.6167 58.4613 25.762 58.7471 25.8924C59.0439 26.0127 59.3736 26.0779 59.7364 26.0879C60.5388 26.0478 61.1379 25.6367 61.5336 24.8547C61.9293 24.0727 62.1271 23.1152 62.1271 21.9822Z" fill="white"/>
<path d="M72.0874 15.9064L71.8895 16.6734C71.3289 16.7135 70.598 16.7536 69.6966 16.7937C68.7953 16.8339 68.0643 16.8689 67.5037 16.899V20.2979C68.0643 20.1575 68.5754 20.0873 69.0371 20.0873C70.2572 20.0873 71.23 20.4583 71.9555 21.2002C72.681 21.9321 73.0437 22.8645 73.0437 23.9975C73.0437 24.6291 72.7689 25.1805 72.2193 25.6518C71.6697 26.113 71.0267 26.4488 70.2902 26.6594C69.5647 26.8599 68.8283 26.9602 68.0808 26.9602C67.1685 26.9602 66.5364 26.8098 66.1847 26.509C66.2177 25.6467 66.2506 23.9674 66.2836 21.4709C66.3166 18.9744 66.3715 17.1196 66.4485 15.9064H72.0874ZM67.5202 20.9746C67.5202 20.9846 67.5202 21.0999 67.5202 21.3205C67.5202 21.5411 67.5147 21.9923 67.5037 22.674C67.5037 23.3558 67.5037 24.2682 67.5037 25.4111C67.8335 25.752 68.2567 25.9225 68.7733 25.9225C69.4548 25.9225 70.1143 25.6668 70.7519 25.1555C71.3894 24.6341 71.7082 24.0777 71.7082 23.4861C71.7082 22.7041 71.4059 22.0725 70.8013 21.5912C70.2078 21.0999 69.4658 20.8543 68.5754 20.8543C68.2787 20.8543 67.9269 20.8944 67.5202 20.9746Z" fill="white"/>
<path d="M74.9083 16.6434L75.7657 15.9064C76.2604 16.6484 76.8869 17.7913 77.6453 19.3354C78.4038 20.8794 78.9204 21.897 79.1952 22.3883C80.2944 19.8116 81.1243 17.7562 81.6849 16.2223C81.8278 15.9816 82.0092 15.8613 82.229 15.8613C82.4269 15.8613 82.6027 15.9516 82.7566 16.132C82.9105 16.3025 82.9985 16.503 83.0204 16.7336C82.6467 17.4655 82.0531 18.6586 81.2397 20.3129C80.4373 21.9572 79.7503 23.3057 79.1787 24.3584C78.6181 25.4011 78.0191 26.4087 77.3815 27.3813L76.3098 27.1857L78.4368 23.3809C78.0411 22.3883 76.8649 20.1424 74.9083 16.6434Z" fill="white"/>
<path d="M86.9791 14.7033L86.8636 14.2221C87.1275 14.2521 87.3858 14.2672 87.6386 14.2672C88.397 14.2672 89.095 14.0767 89.7326 13.6957C89.9854 13.7158 90.1997 13.7859 90.3756 13.9062C90.5625 14.0266 90.6559 14.1669 90.6559 14.3273C90.6559 14.6983 90.1118 14.8838 89.0236 14.8838C88.2651 14.8838 87.5836 14.8236 86.9791 14.7033ZM85.4622 15.8764L86.2041 16.0268C86.314 17.6811 86.4405 20.4332 86.5834 24.2832C88.7268 20.8042 90.1997 18.0069 91.0021 15.8914C91.167 15.7711 91.3264 15.7109 91.4803 15.7109C91.7221 15.7109 91.92 15.8413 92.0739 16.102C92.2387 16.3626 92.3267 16.6584 92.3377 16.9893C92.3706 17.9217 92.3981 19.4958 92.4201 21.7115C92.4531 23.9273 92.497 25.5816 92.552 26.6744C92.4531 26.9752 92.2662 27.1256 91.9914 27.1256C91.7936 27.1256 91.6012 27.0504 91.4143 26.9C91.2275 26.7596 91.1121 26.5842 91.0681 26.3736C91.1011 25.5014 91.1176 24.1629 91.1176 22.3582C91.1285 20.5535 91.1395 19.3354 91.1505 18.7037C90.9087 19.0847 90.4855 19.8066 89.881 20.8693C89.2764 21.9321 88.7158 22.8445 88.1992 23.6064C87.6935 24.3684 87.1714 25.0301 86.6328 25.5916L86.6988 26.8098C86.5998 27.1206 86.4075 27.276 86.1217 27.276C85.9238 27.276 85.7315 27.2008 85.5446 27.0504C85.3687 26.9 85.2588 26.7195 85.2148 26.509C85.2478 25.6568 85.2808 23.9874 85.3138 21.501C85.3467 19.0145 85.3962 17.1396 85.4622 15.8764Z" fill="white"/>
<path d="M107.971 26.2232L108.136 26.9C107.707 26.9 106.927 26.915 105.795 26.9451C104.674 26.9852 103.86 27.0053 103.355 27.0053C102.541 27.0053 101.986 26.9702 101.689 26.9C101.799 25.7971 101.865 23.9523 101.887 21.3656C101.909 18.7789 101.981 16.9742 102.102 15.9516C102.475 15.9816 103.465 16.0067 105.069 16.0268C106.685 16.0468 107.74 16.0919 108.235 16.1621L108.416 16.8389C107.922 16.9191 106.933 17.0143 105.449 17.1246C103.965 17.2349 103.184 17.2951 103.107 17.3051C103.118 17.5357 103.14 18.0069 103.173 18.7188C103.217 19.4306 103.245 20.0171 103.256 20.4783C103.629 20.5184 104.311 20.5786 105.3 20.6588C106.29 20.729 106.916 20.7741 107.18 20.7941L107.345 21.4859C105.025 21.6764 103.668 21.7767 103.272 21.7867C103.272 22.2279 103.261 22.8996 103.239 23.802C103.228 24.6943 103.223 25.351 103.223 25.7721C105.74 25.9826 107.323 26.133 107.971 26.2232Z" fill="white"/>
<path d="M120.998 28.9152H120.24C120.185 28.7348 120.059 28.063 119.861 26.9C118.706 27.0103 116.459 27.0654 113.117 27.0654C111.765 27.0654 110.93 27.0504 110.611 27.0203C110.644 25.9375 110.699 24.0927 110.776 21.4859C110.853 18.8792 110.908 17.0344 110.941 15.9516L111.683 16.102C111.716 17.1547 111.76 18.829 111.814 21.125C111.88 23.4109 111.93 25.0552 111.963 26.0578L114.568 25.9525C114.612 24.8497 114.683 23.1503 114.782 20.8543C114.881 18.5583 114.947 16.9341 114.98 15.9816L115.722 16.132C115.755 17.1747 115.799 18.814 115.854 21.0498C115.92 23.2856 115.969 24.8948 116.002 25.8773C116.827 25.8072 117.69 25.7721 118.591 25.7721C118.635 24.6893 118.706 23.0149 118.805 20.749C118.915 18.4731 118.987 16.8489 119.02 15.8764L119.762 16.0268C119.751 17.1196 119.745 18.4882 119.745 20.1324C119.745 21.3556 119.762 23.065 119.795 25.2607C119.795 25.3109 119.795 25.3911 119.795 25.5014C119.806 25.6016 119.811 25.6768 119.811 25.727C119.943 25.727 120.168 25.737 120.487 25.757C120.806 25.7671 121.064 25.7721 121.262 25.7721C121.262 25.8122 121.235 26.2433 121.18 27.0654C121.136 27.8876 121.075 28.5042 120.998 28.9152Z" fill="white"/>
<path d="M130.085 26.2232L130.25 26.9C129.821 26.9 129.04 26.915 127.908 26.9451C126.787 26.9852 125.974 27.0053 125.468 27.0053C124.655 27.0053 124.1 26.9702 123.803 26.9C123.913 25.7971 123.979 23.9523 124.001 21.3656C124.023 18.7789 124.094 16.9742 124.215 15.9516C124.589 15.9816 125.578 16.0067 127.183 16.0268C128.799 16.0468 129.854 16.0919 130.349 16.1621L130.53 16.8389C130.035 16.9191 129.046 17.0143 127.562 17.1246C126.078 17.2349 125.298 17.2951 125.221 17.3051C125.232 17.5357 125.254 18.0069 125.287 18.7188C125.331 19.4306 125.358 20.0171 125.369 20.4783C125.743 20.5184 126.424 20.5786 127.414 20.6588C128.403 20.729 129.029 20.7741 129.293 20.7941L129.458 21.4859C127.139 21.6764 125.781 21.7767 125.386 21.7867C125.386 22.2279 125.375 22.8996 125.353 23.802C125.342 24.6943 125.336 25.351 125.336 25.7721C127.853 25.9826 129.436 26.133 130.085 26.2232Z" fill="white"/>
</svg>
