<svg width="96" height="44" viewBox="0 0 96 44" fill="none" xmlns="http://www.w3.org/2000/svg">
<path d="M9 11.5C9 9.567 10.559 8 12.4821 8L83.5179 8C85.441 8 87 9.567 87 11.5V32.5C87 34.433 85.441 36 83.5179 36H12.4821C10.559 36 9 34.433 9 32.5V11.5Z" fill="white"/>
<path d="M10.3929 12.9C10.3929 10.967 11.9519 9.4 13.875 9.4L82.125 9.4C84.0481 9.4 85.6071 10.967 85.6071 12.9V31.1C85.6071 33.033 84.0481 34.6 82.125 34.6H13.875C11.9519 34.6 10.3929 33.033 10.3929 31.1V12.9Z" fill="#1A96F6"/>
<path d="M15.9643 16.6434L16.7423 15.9064C17.1912 16.6484 17.7598 17.7913 18.448 19.3354C19.1363 20.8794 19.6051 21.897 19.8545 22.3883C20.852 19.8116 21.6051 17.7562 22.1138 16.2223C22.2435 15.9816 22.4081 15.8613 22.6076 15.8613C22.7871 15.8613 22.9467 15.9516 23.0864 16.132C23.226 16.3025 23.3058 16.503 23.3258 16.7336C22.9866 17.4655 22.448 18.6586 21.7098 20.3129C20.9817 21.9572 20.3582 23.3057 19.8395 24.3584C19.3308 25.4011 18.7872 26.4087 18.2086 27.3813L17.2361 27.1857L19.1662 23.3809C18.8071 22.3883 17.7398 20.1424 15.9643 16.6434Z" fill="white"/>
<path d="M35.0576 26.9L33.9204 27.0053C33.3718 23.5463 32.7783 20.5836 32.1399 18.1172C31.8108 18.8992 31.4467 20.0021 31.0477 21.4258C30.6587 22.8395 30.3893 23.7568 30.2397 24.1779C30.2198 24.1779 30.1849 24.1829 30.135 24.193C30.0951 24.193 30.0602 24.193 30.0302 24.193C29.8906 24.193 29.6612 24.1779 29.342 24.1479C29.0228 24.1178 28.8183 24.1027 28.7285 24.1027C28.7185 23.812 28.4642 22.8445 27.9654 21.2002C27.4667 19.5459 27.1674 18.4882 27.0677 18.027C26.8881 19.6512 26.1899 22.6089 24.973 26.9L24.0453 26.8098C24.185 25.7169 24.5291 23.9975 25.0777 21.6514C25.6263 19.3053 25.9505 17.4906 26.0503 16.2072C26.2298 16.1872 26.3744 16.1771 26.4842 16.1771C26.5839 16.1771 26.953 16.2173 27.5914 16.2975C27.731 16.3175 27.9305 16.7737 28.1899 17.666C28.4592 18.5483 28.7285 19.5208 28.9978 20.5836C29.2672 21.6464 29.4367 22.273 29.5066 22.4635C29.7859 21.7717 30.12 20.6488 30.509 19.0947C30.908 17.5407 31.1873 16.5531 31.3469 16.132C31.5065 16.1421 32.0103 16.1872 32.8581 16.2674C33.1175 17.28 33.3668 18.3729 33.6062 19.5459C33.8556 20.7189 34.1199 22.0524 34.3992 23.5463C34.6885 25.0402 34.908 26.1581 35.0576 26.9Z" fill="white"/>
<path d="M41.6723 16.0869L42.5401 15.9064C42.7197 17.3201 42.8294 19.2852 42.8693 21.8018C42.9192 24.3083 42.969 25.9676 43.0189 26.7797C42.9291 27.0905 42.7546 27.2459 42.4952 27.2459C42.3157 27.2459 42.1411 27.1707 41.9715 27.0203C41.8119 26.8699 41.7122 26.6895 41.6723 26.4789C41.6823 26.118 41.6873 25.5164 41.6873 24.6742V21.7115C41.4678 21.7215 41.1586 21.7466 40.7596 21.7867C40.3706 21.8168 40.0115 21.8419 39.6823 21.8619C39.3631 21.882 39.0589 21.892 38.7696 21.892C38.5103 21.892 38.3207 21.887 38.201 21.877C38.221 22.4885 38.2559 23.3558 38.3058 24.4787C38.3556 25.5916 38.3906 26.3586 38.4105 26.7797C38.3207 27.0905 38.1462 27.2459 37.8868 27.2459C37.7073 27.2459 37.5327 27.1707 37.3631 27.0203C37.2035 26.8699 37.1038 26.6895 37.0639 26.4789C37.0938 25.6167 37.1188 23.9423 37.1387 21.4559C37.1686 18.9694 37.2185 17.1196 37.2883 15.9064L37.9616 16.0568C37.9616 16.0869 37.9616 16.137 37.9616 16.2072C37.9716 16.2674 37.9766 16.3175 37.9766 16.3576C38.1063 18.824 38.1811 20.368 38.201 20.9896C38.5402 20.9596 38.8993 20.9295 39.2783 20.8994C39.6673 20.8593 40.0913 20.8192 40.5501 20.7791C41.0189 20.729 41.383 20.6939 41.6424 20.6738C41.6523 20.6738 41.6573 20.6237 41.6573 20.5234C41.6573 20.4232 41.6573 20.0171 41.6573 19.3053C41.6673 18.5934 41.6723 17.5206 41.6723 16.0869Z" fill="white"/>
<path d="M45.8631 15.8764L46.5364 16.0268C46.6362 17.6811 46.7509 20.4332 46.8805 24.2832C48.8256 20.8042 50.1623 18.0069 50.8905 15.8914C51.0401 15.7711 51.1847 15.7109 51.3244 15.7109C51.5438 15.7109 51.7234 15.8413 51.863 16.102C52.0126 16.3626 52.0924 16.6584 52.1024 16.9893C52.1323 17.9217 52.1573 19.4958 52.1772 21.7115C52.2071 23.9273 52.247 25.5816 52.2969 26.6744C52.2071 26.9752 52.0376 27.1256 51.7882 27.1256C51.6086 27.1256 51.4341 27.0504 51.2645 26.9C51.0949 26.7596 50.9902 26.5842 50.9503 26.3736C50.9802 25.5014 50.9952 24.1629 50.9952 22.3582C51.0052 20.5535 51.0151 19.3354 51.0251 18.7037C50.8057 19.0847 50.4216 19.8066 49.873 20.8693C49.3244 21.9321 48.8157 22.8445 48.3469 23.6064C47.888 24.3684 47.4142 25.0301 46.9254 25.5916L46.9853 26.8098C46.8955 27.1206 46.7209 27.276 46.4616 27.276C46.2821 27.276 46.1075 27.2008 45.9379 27.0504C45.7783 26.9 45.6786 26.7195 45.6387 26.509C45.6686 25.6568 45.6985 23.9874 45.7284 21.501C45.7584 19.0145 45.8033 17.1396 45.8631 15.8764Z" fill="white"/>
<path d="M59.6597 16.1771L60.333 16.3426C60.3729 16.8539 60.4428 18.5483 60.5425 21.4258C60.6522 24.2932 60.7121 26.0077 60.7221 26.5691C60.6323 26.8799 60.4577 27.0354 60.1984 27.0354C60.0188 27.0354 59.8443 26.9652 59.6747 26.8248C59.5151 26.6744 59.4154 26.4939 59.3755 26.2834C59.3854 26.113 59.4154 24.7294 59.4652 22.1326C58.8468 22.3031 58.3081 22.3883 57.8493 22.3883C56.8817 22.3883 56.1486 22.0574 55.6498 21.3957C55.1611 20.724 54.9167 19.7665 54.9167 18.5232C54.9167 17.7512 55.0065 16.909 55.186 15.9967L55.8593 16.1471C55.8294 16.6183 55.8144 17.0594 55.8144 17.4705C55.8144 19.967 56.4877 21.2152 57.8343 21.2152C58.2832 21.2152 58.8368 21.0648 59.4952 20.7641C59.545 18.6786 59.5999 17.1497 59.6597 16.1771Z" fill="white"/>
<path d="M70.5088 26.5691L70.5537 27.1406C70.025 27.301 69.5213 27.3813 69.0425 27.3813C68.5836 27.3813 68.1896 27.2559 67.8605 27.0053C67.5413 26.7646 67.2969 26.4589 67.1273 26.0879C66.9677 25.7169 66.8031 25.3159 66.6335 24.8848C66.4739 24.4536 66.3193 24.0526 66.1697 23.6816C66.0301 23.3107 65.8206 23.0049 65.5413 22.7643C65.262 22.5136 64.9278 22.3883 64.5388 22.3883L64.6884 26.8098C64.5987 27.1206 64.4241 27.276 64.1648 27.276C63.9852 27.276 63.8107 27.2008 63.6411 27.0504C63.4815 26.9 63.3817 26.7195 63.3418 26.509C63.3518 26.2984 63.3867 24.604 63.4466 21.4258C63.5064 18.2375 63.5513 16.3927 63.5812 15.8914L64.2545 16.0418C64.2645 16.4228 64.2944 17.1396 64.3443 18.1924C64.3942 19.2351 64.4241 19.9419 64.4341 20.3129C64.863 20.3029 65.2271 20.1424 65.5263 19.8316C65.8356 19.5108 66.0849 19.1248 66.2745 18.6736C66.4739 18.2225 66.6734 17.7763 66.8729 17.3352C67.0724 16.884 67.3318 16.503 67.651 16.1922C67.9802 15.8714 68.3692 15.7109 68.818 15.7109C69.1572 15.7109 69.7308 15.7861 70.5387 15.9365L70.3891 16.5381C69.7706 16.4378 69.4165 16.3877 69.3268 16.3877C68.9776 16.3877 68.6834 16.5331 68.444 16.8238C68.2046 17.1146 68.0051 17.4805 67.8455 17.9217C67.6859 18.3528 67.5113 18.799 67.3218 19.2602C67.1323 19.7113 66.853 20.1274 66.4839 20.5084C66.1149 20.8894 65.661 21.1451 65.1224 21.2754C65.6011 21.3857 66.0151 21.6012 66.3642 21.9221C66.7133 22.2429 66.9727 22.6038 67.1423 23.0049C67.3118 23.4059 67.4764 23.832 67.636 24.2832C67.7956 24.7243 67.9353 25.1254 68.055 25.4863C68.1747 25.8473 68.3393 26.148 68.5487 26.3887C68.7682 26.6293 69.0325 26.7496 69.3417 26.7496C69.641 26.7496 70.03 26.6895 70.5088 26.5691Z" fill="white"/>
<path d="M75.4328 15.9967L76.5699 16.0719C76.8492 17.3151 77.4228 19.0747 78.2906 21.3506C79.1584 23.6165 79.7319 25.3109 80.0112 26.4338C80.0112 26.7245 79.9614 26.9401 79.8616 27.0805C79.7619 27.2309 79.6372 27.3061 79.4875 27.3061C79.3579 27.3061 79.2332 27.2509 79.1135 27.1406C79.0038 27.0404 78.929 26.895 78.8891 26.7045C78.7993 26.2633 78.51 25.3811 78.0212 24.0576C75.9664 23.7969 74.6747 23.6365 74.146 23.5764C74.0163 23.9373 73.8567 24.5238 73.6672 25.3359C73.4777 26.148 73.3281 26.7095 73.2183 27.0203C73.0687 27.2008 72.8991 27.291 72.7096 27.291C72.5001 27.291 72.3206 27.1958 72.171 27.0053C72.0213 26.8248 71.9465 26.5992 71.9465 26.3285C72.2657 25.1555 72.8443 23.431 73.6822 21.1551C74.5201 18.8792 75.1036 17.1597 75.4328 15.9967ZM75.9564 17.5156C75.7569 18.7288 75.2033 20.5084 74.2956 22.8545H75.9714C76.7295 22.8545 77.3629 22.8796 77.8716 22.9297C76.8442 20.7139 76.2058 18.9092 75.9564 17.5156Z" fill="white"/>
</svg>
