<svg width="44" height="44" viewBox="0 0 44 44" fill="none" xmlns="http://www.w3.org/2000/svg">
<path d="M15.8229 18.5609C16.2187 19.017 16.7995 19.2698 17.4031 19.2488C18.0066 19.2277 18.5684 18.9351 18.9315 18.4525C19.7187 17.4062 20.5595 17.0154 21.5539 17.0154C22.0028 17.0154 22.2655 17.1405 22.4814 17.3439C22.7037 17.5534 22.7794 17.7391 22.7794 18.0182C22.7794 18.7012 22.4827 19.4297 21.3577 20.2276C21.3387 20.2411 21.3199 20.2549 21.3013 20.269C20.6581 20.7599 20.1522 21.1602 19.8081 21.4562C19.3913 21.8108 18.934 22.3204 18.4625 22.8962L18.4625 22.8962L18.4571 22.9028C17.8194 23.6883 17.3936 24.5892 17.1921 25.5806C17.1885 25.5981 17.1852 25.6157 17.1821 25.6334C17.0194 26.5604 17.0495 27.5487 17.2112 28.5634C17.2939 29.0822 17.5714 29.5276 17.9617 29.8299C17.8931 29.8922 17.8258 29.957 17.7598 30.0241C16.9148 30.8839 16.4314 31.9715 16.4314 33.2067C16.4314 34.4575 16.8583 35.6009 17.7003 36.5356C17.7197 36.5571 17.7395 36.5781 17.7598 36.5988C18.6769 37.532 19.8496 38 21.1422 38C22.4307 38 23.582 37.4992 24.4494 36.5326C24.4588 36.5222 24.4681 36.5116 24.4772 36.5009C25.2838 35.563 25.6814 34.4312 25.6814 33.2067C25.6814 31.9868 25.2099 30.911 24.3843 30.0563C24.2845 29.9472 24.181 29.8439 24.0739 29.7466C24.5114 29.3796 24.7892 28.8288 24.7892 28.2137C24.7892 27.954 24.7751 27.679 24.734 27.4028C24.7817 27.2774 24.825 27.1589 24.8625 27.0497C24.8651 27.046 24.868 27.042 24.8711 27.0376C24.9338 26.9559 24.9837 26.8935 25.0219 26.8475C25.0561 26.8064 25.073 26.7881 25.075 26.7859C25.0755 26.7853 25.075 26.7858 25.0735 26.7873C25.1251 26.7348 25.1738 26.6795 25.2193 26.6216C25.2415 26.5933 25.3085 26.5152 25.4453 26.3743C25.6185 26.2184 25.734 26.1188 25.8018 26.0636C25.8122 26.0552 25.8225 26.0466 25.8327 26.038C25.9827 25.9108 26.1584 25.7559 26.3567 25.577C26.5668 25.4057 26.7439 25.2593 26.8851 25.1398C28.0769 24.1577 29.0631 23.1011 29.7933 21.9579L29.8052 21.9391C30.6576 20.5713 31 18.9234 31 17.1453C31 14.838 30.1115 12.8472 28.3963 11.3069C26.6694 9.689 24.3799 9 21.7941 9C20.0212 9 18.3545 9.39785 16.8324 10.2161C15.3357 11.0207 14.1283 12.1227 13.2836 13.5347C12.8399 14.2766 12.9229 15.2195 13.4895 15.8724L15.8229 18.5609Z" fill="#A3D7FF" stroke="white" stroke-width="4" stroke-linejoin="round"/>
</svg>
