<svg width="44" height="44" viewBox="0 0 44 44" fill="none" xmlns="http://www.w3.org/2000/svg">
<path d="M18 36C16.8954 36 16 35.1046 16 34V20.7475C16 20.4008 16.0901 20.06 16.2615 19.7587L21.9811 9.70329M18 36L21.9811 9.70329M18 36H28.262C31.1589 36 33.4854 33.8537 34.1124 31.0976L35.8688 23.378C36.5225 20.5051 34.5787 17.275 31.3185 17.275H28.8364L28.8489 17.2383C29.7337 14.6458 29.2967 11.7181 27.6486 9.54496L26.055 10.7535M18 36L26.055 10.7535M21.9811 9.70329C23.153 7.64296 26.0013 7.37295 27.479 9.32132L27.6486 9.54496L26.055 10.7535M21.9811 9.70329L26.055 10.7535" fill="#66CC66" stroke="white" stroke-width="4" stroke-linejoin="round"/>
<path d="M9 19H7V21V34V36H9H14H16V34V21V19H14H9Z" fill="#66CC66" stroke="white" stroke-width="4"/>
</svg>
