<svg width="44" height="44" viewBox="0 0 44 44" fill="none" xmlns="http://www.w3.org/2000/svg">
<path d="M22 37C30.2843 37 37 30.2843 37 22C37 13.7157 30.2843 7 22 7C13.7157 7 7 13.7157 7 22C7 30.2843 13.7157 37 22 37Z" fill="url(#paint0_linear_10607_3835)" stroke="white" stroke-width="4"/>
<path d="M19.0856 25.9903C18.9151 26.306 19.0072 26.7155 19.2914 26.9049C19.5755 27.0943 19.9441 26.992 20.1146 26.6762C20.6108 25.7573 21.2214 25.3333 22 25.3333C22.7786 25.3333 23.3892 25.7573 23.8854 26.6762C24.0559 26.992 24.4245 27.0943 24.7086 26.9049C24.9928 26.7155 25.0849 26.306 24.9144 25.9903C24.2107 24.687 23.2213 24 22 24C20.7787 24 19.7893 24.687 19.0856 25.9903Z" fill="#4A4A4A"/>
<path fill-rule="evenodd" clip-rule="evenodd" d="M16 22C16.5523 22 17 21.3284 17 20.5C17 19.6716 16.5523 19 16 19C15.4477 19 15 19.6716 15 20.5C15 21.3284 15.4477 22 16 22Z" fill="#4A4A4A"/>
<path fill-rule="evenodd" clip-rule="evenodd" d="M28 22C28.5523 22 29 21.3284 29 20.5C29 19.6716 28.5523 19 28 19C27.4477 19 27 19.6716 27 20.5C27 21.3284 27.4477 22 28 22Z" fill="#4A4A4A"/>
<defs>
<linearGradient id="paint0_linear_10607_3835" x1="14.1458" y1="9" x2="14.1458" y2="24.7085" gradientUnits="userSpaceOnUse">
<stop stop-color="#FF9976"/>
<stop offset="1" stop-color="#FFD996"/>
</linearGradient>
</defs>
</svg>
