<svg width="44" height="44" viewBox="0 0 44 44" fill="none" xmlns="http://www.w3.org/2000/svg">
<path d="M22 37C30.2843 37 37 30.2843 37 22C37 13.7157 30.2843 7 22 7C13.7157 7 7 13.7157 7 22C7 30.2843 13.7157 37 22 37Z" fill="#FFD996" stroke="white" stroke-width="4"/>
<path fill-rule="evenodd" clip-rule="evenodd" d="M29.1764 12.1555C30.5086 10.6148 32.6686 10.6148 34.0008 12.1555C35.3331 13.6961 35.3331 16.1939 34.0008 17.7346L32.7961 19.1278C32.5209 19.4461 32.2103 19.6986 31.8791 19.8853L28.9959 23L26.0046 19.7346C25.7043 19.5552 25.4224 19.3199 25.1706 19.0287L23.9841 17.6565C22.672 16.1392 22.672 13.6791 23.9841 12.1618C25.2961 10.6444 27.4234 10.6444 28.7355 12.1618L28.9532 12.4136L29.1764 12.1555Z" fill="#FF6666"/>
<path fill-rule="evenodd" clip-rule="evenodd" d="M15.1764 12.1555C16.5086 10.6148 18.6686 10.6148 20.0008 12.1555C21.3331 13.6961 21.3331 16.1939 20.0008 17.7346L18.7961 19.1278C18.5209 19.4461 18.2103 19.6986 17.8791 19.8853L14.9959 23L12.0046 19.7346C11.7043 19.5552 11.4224 19.3199 11.1706 19.0287L9.98406 17.6565C8.67198 16.1392 8.67198 13.6791 9.98406 12.1618C11.2961 10.6444 13.4234 10.6444 14.7355 12.1618L14.9532 12.4136L15.1764 12.1555Z" fill="#FF6666"/>
<path d="M24.9144 25.0097C25.0849 24.694 24.9928 24.2845 24.7086 24.0951C24.4245 23.9057 24.0559 24.008 23.8854 24.3238C23.3892 25.2427 22.7786 25.6667 22 25.6667C21.2214 25.6667 20.6108 25.2427 20.1146 24.3238C19.9441 24.008 19.5755 23.9057 19.2914 24.0951C19.0072 24.2845 18.9151 24.694 19.0856 25.0097C19.7893 26.313 20.7787 27 22 27C23.2213 27 24.2107 26.313 24.9144 25.0097Z" fill="#4A4A4A"/>
</svg>
