<svg xmlns="http://www.w3.org/2000/svg" width="25" height="24" viewBox="0 0 25 24" fill="none">
  <path fill-rule="evenodd" clip-rule="evenodd" d="M11.9697 3.46967C12.2626 3.17678 12.7374 3.17678 13.0303 3.46967L17.0303 7.46967C17.3232 7.76256 17.3232 8.23744 17.0303 8.53033C16.7374 8.82322 16.2626 8.82322 15.9697 8.53033L13.25 5.81066V16C13.25 16.4142 12.9142 16.75 12.5 16.75C12.0858 16.75 11.75 16.4142 11.75 16V5.81066L9.03033 8.53033C8.73744 8.82322 8.26256 8.82322 7.96967 8.53033C7.67678 8.23744 7.67678 7.76256 7.96967 7.46967L11.9697 3.46967ZM3.75 20C3.75 19.5858 4.08579 19.25 4.5 19.25H20.5C20.9142 19.25 21.25 19.5858 21.25 20C21.25 20.4142 20.9142 20.75 20.5 20.75H4.5C4.08579 20.75 3.75 20.4142 3.75 20Z" fill="#25262C"/>
</svg>
