<svg xmlns="http://www.w3.org/2000/svg" width="25" height="24" viewBox="0 0 25 24" fill="none">
  <path fill-rule="evenodd" clip-rule="evenodd" d="M3.75 4C3.75 3.58579 4.08579 3.25 4.5 3.25H20.5C20.9142 3.25 21.25 3.58579 21.25 4C21.25 4.41421 20.9142 4.75 20.5 4.75H4.5C4.08579 4.75 3.75 4.41421 3.75 4ZM12.5 7.25C12.9142 7.25 13.25 7.58579 13.25 8V18.1893L15.9697 15.4697C16.2626 15.1768 16.7374 15.1768 17.0303 15.4697C17.3232 15.7626 17.3232 16.2374 17.0303 16.5303L13.0303 20.5303C12.7374 20.8232 12.2626 20.8232 11.9697 20.5303L7.96967 16.5303C7.67678 16.2374 7.67678 15.7626 7.96967 15.4697C8.26256 15.1768 8.73744 15.1768 9.03033 15.4697L11.75 18.1893V8C11.75 7.58579 12.0858 7.25 12.5 7.25Z" fill="#25262C"/>
</svg>
