<svg width="32" height="32" viewBox="0 0 32 32" fill="none" xmlns="http://www.w3.org/2000/svg">
<path d="M15.0767 6.82389C15.4183 6.00259 16.5817 6.00259 16.9233 6.82388L18.3106 10.1593C18.7426 11.198 19.7195 11.9077 20.8408 11.9976L24.4417 12.2863C25.3283 12.3574 25.6879 13.4639 25.0123 14.0425L22.2689 16.3926C21.4145 17.1245 21.0414 18.2728 21.3024 19.3671L22.1406 22.8809C22.347 23.7461 21.4057 24.43 20.6466 23.9663L17.5638 22.0834C16.6037 21.497 15.3963 21.497 14.4362 22.0834L11.3534 23.9663C10.5943 24.43 9.65305 23.7461 9.85944 22.8809L10.6976 19.3671C10.9586 18.2728 10.5855 17.1245 9.73116 16.3926L6.98768 14.0426C6.31214 13.4639 6.67167 12.3574 7.55832 12.2863L11.1592 11.9976C12.2806 11.9077 13.2574 11.198 13.6894 10.1593L15.0767 6.82389Z" stroke="black" stroke-width="2"/>
</svg>
