<svg width="32" height="32" viewBox="0 0 32 32" fill="none" xmlns="http://www.w3.org/2000/svg">
<path d="M13.6674 24.9993C11.8166 24.9993 10.4093 24.5612 9.44559 23.6849C8.48186 22.798 8 21.5531 8 19.9503C8 18.3047 8.68994 16.985 10.0698 15.9913C11.4497 14.9868 13.3662 14.4846 15.8193 14.4846H18.9897V12.7856C18.9897 11.7384 18.6612 10.9262 18.0041 10.3492C17.358 9.7722 16.4435 9.48368 15.2608 9.48368C14.5161 9.48368 13.87 9.57451 13.3224 9.75617C12.7748 9.92714 12.2765 10.1676 11.8275 10.4775L11.4825 12.8978H8.98563V8.92269C10.5955 7.64041 12.7036 6.99927 15.3101 6.99927C17.4675 6.99927 19.1595 7.50149 20.386 8.50595C21.6126 9.5104 22.2259 10.9476 22.2259 12.8176V21.1685C22.2259 21.3929 22.2259 21.6119 22.2259 21.8256C22.2368 22.0393 22.2533 22.2531 22.2752 22.4668L24 22.6431V24.6627H19.3511C19.165 23.7864 19.05 22.9904 19.0062 22.2744C18.3819 23.0545 17.5989 23.7063 16.6571 24.2299C15.7262 24.7428 14.7296 24.9993 13.6674 24.9993ZM14.1437 22.3546C15.217 22.3546 16.1971 22.1035 17.0842 21.6012C17.9713 21.099 18.6064 20.4953 18.9897 19.79V16.6484H15.7043C14.2149 16.6484 13.0979 16.9957 12.3532 17.6903C11.6085 18.3848 11.2361 19.1596 11.2361 20.0144C11.2361 21.5745 12.2053 22.3546 14.1437 22.3546Z" fill="#4A4A4A"/>
</svg>
