<svg width="40" height="40" viewBox="0 0 40 40" fill="none" xmlns="http://www.w3.org/2000/svg">
<path d="M21.0869 26L16.7669 26L15.5789 23.426L9.51289 23.426L8.32489 26L4.00489 26L10.0169 13.4L15.0749 13.4L21.0869 26ZM12.4649 17L10.4129 21.446L14.6789 21.446L12.6269 17L12.4649 17ZM25.4468 26.27C24.2228 26.27 23.2928 26.018 22.6568 25.514C22.0328 24.998 21.7208 24.32 21.7208 23.48C21.7208 22.496 22.1288 21.74 22.9448 21.212C23.7608 20.672 25.1048 20.372 26.9768 20.312C27.8768 20.288 28.5488 20.24 28.9928 20.168C29.4488 20.096 29.7488 20.006 29.8928 19.898C30.0488 19.79 30.1268 19.646 30.1268 19.466C30.1268 19.178 29.9408 18.95 29.5688 18.782C29.1968 18.614 28.5308 18.53 27.5708 18.53C26.5868 18.53 25.6268 18.644 24.6908 18.872C23.7668 19.1 23.0288 19.352 22.4768 19.628L22.4768 16.55C22.9928 16.274 23.7428 16.028 24.7268 15.812C25.7228 15.584 26.7908 15.47 27.9308 15.47C30.0308 15.47 31.5668 15.83 32.5388 16.55C33.5108 17.27 33.9968 18.26 33.9968 19.52L33.9968 26L30.1268 26L30.1268 24.596L29.9828 24.596C29.5748 25.028 28.9628 25.418 28.1468 25.766C27.3308 26.102 26.4308 26.27 25.4468 26.27ZM27.2468 23.696C27.8708 23.696 28.4408 23.6 28.9568 23.408C29.4728 23.216 29.8628 23 30.1268 22.76L30.1268 21.122C29.9948 21.23 29.7248 21.332 29.3168 21.428C28.9208 21.524 28.4288 21.584 27.8408 21.608C26.4608 21.668 25.7708 22.04 25.7708 22.724C25.7708 23.024 25.8908 23.264 26.1308 23.444C26.3708 23.612 26.7428 23.696 27.2468 23.696Z" fill="#3669F6"/>
</svg>
