<svg width="40" height="40" viewBox="0 0 40 40" fill="none" xmlns="http://www.w3.org/2000/svg">
<rect x="6" y="6" width="18" height="18" rx="3" fill="white"/>
<rect x="8" y="8" width="14" height="14" rx="3" fill="#BDDCEA"/>
<path d="M15 18C16.6569 18 18 16.6569 18 15C18 13.3431 16.6569 12 15 12C13.3431 12 12 13.3431 12 15C12 16.6569 13.3431 18 15 18Z" fill="#FF9900"/>
<rect x="19.9141" y="11.9463" width="18" height="18" rx="3" transform="rotate(26.2717 19.9141 11.9463)" fill="white"/>
<rect x="20.8203" y="14.625" width="14" height="14" rx="3" transform="rotate(26.2717 20.8203 14.625)" fill="#BDDCEA"/>
<path d="M27.7951 21C28.5007 23.3985 27.3247 25.9845 25.1744 26.7715C23.024 27.5585 20.7056 26.2468 20 23.8483" fill="#FFFA7D"/>
</svg>
