<svg width="40" height="40" viewBox="0 0 40 40" fill="none" xmlns="http://www.w3.org/2000/svg">
<path d="M10.0356 6.00022L12.6385 10.8094C13.0062 11.4888 12.7111 12.3634 11.9804 12.7588C11.2497 13.1543 10.3559 12.9231 9.98824 12.2438C9.62046 11.5642 9.91573 10.6896 10.6464 10.2941C10.9843 10.1112 11.3572 10.0624 11.6968 10.1301L10.602 8.10734L8.64232 9.85276L7.52364 10.849L7.16413 11.1708L8.79251 14.1795L8.79236 14.1796C9.158 14.8587 8.86272 15.7316 8.13293 16.1266C7.40226 16.522 6.50864 16.2908 6.14086 15.6113C5.77308 14.9318 6.06828 14.0573 6.79895 13.6619C7.13699 13.4789 7.50978 13.4302 7.8494 13.4976L5.82246 9.75258L7.68857 8.09055L10.0356 6.00022Z" fill="#8950E6"/>
<path d="M15.5536 33.1131L32.2285 33.3869L34.225 10.4823L25.7673 19.5176L17.5501 8.20855L15.5536 33.1131Z" fill="#FF9F00"/>
<ellipse rx="1.48403" ry="2.55215" transform="matrix(-0.990831 -0.135108 -0.135108 0.990831 22.1926 19.858)" fill="white"/>
<ellipse rx="1.48403" ry="2.55215" transform="matrix(-0.990831 -0.135108 -0.135108 0.990831 17.9758 19.2838)" fill="white"/>
<ellipse rx="0.690026" ry="1.191" transform="matrix(-0.990831 -0.135108 -0.135108 0.990831 18.7628 19.3915)" fill="black"/>
<ellipse rx="0.690026" ry="1.191" transform="matrix(-0.990831 -0.135108 -0.135108 0.990831 22.8878 19.9536)" fill="black"/>
<path d="M11.0521 20.918L19.3403 24.6554L20.0383 19.5361L11.0521 20.918Z" fill="#FF9F00"/>
<path d="M10.9679 20.921L13.484 21.9753L13.6835 20.5118L10.9679 20.921Z" fill="black"/>
</svg>
