<svg width="40" height="40" viewBox="0 0 40 40" fill="none" xmlns="http://www.w3.org/2000/svg">
<mask id="mask0_10016_107509" style="mask-type:alpha" maskUnits="userSpaceOnUse" x="6" y="3" width="28" height="37">
<rect x="34" y="3.99902" width="36" height="28" transform="rotate(90 34 3.99902)" fill="#E5E5E5"/>
</mask>
<g mask="url(#mask0_10016_107509)">
<path d="M12.0523 21.1989L12.0796 25.9988L29 25.9988L29 20.999C24.5094 20.999 24.6338 15.0656 24.5094 11.999L16.1698 11.999C16.2098 19.0389 13.4415 21.0655 12.0523 21.1989Z" fill="white"/>
<path d="M26.001 21.5006L26.001 25.9988L29 25.9988L29 21.3007C29 21.1344 28.8625 21.0003 28.6965 20.9883C24.9281 20.7164 24.9116 15.3442 24.8103 12.2891C24.8049 12.1273 24.6715 11.999 24.5096 11.999L23 11.999C23.0383 18.733 23.5532 21.0019 25.6984 21.1864C25.8642 21.2007 26.001 21.3342 26.001 21.5006Z" fill="#E9E9E9"/>
<path d="M16.9987 5.80268L16.9942 11.999L23.9942 11.999L23.9976 7.26934C23.998 6.70978 23.6403 6.213 23.1096 6.03605L18.7107 4.56939C17.8691 4.28879 16.9993 4.91535 16.9987 5.80268Z" fill="#FFD233"/>
<path d="M22.998 5.99902L22.9937 11.999L23.9937 11.999L23.9971 7.26934C23.9975 6.70978 23.6398 6.213 23.1091 6.03606L22.998 5.99902Z" fill="#DDAD00"/>
<rect x="12" y="25.999" width="15" height="14" fill="#FFD233"/>
<rect x="26" y="25.999" width="3" height="14" fill="#DDAD00"/>
</g>
</svg>
