<svg width="32" height="32" viewBox="0 0 32 32" fill="none" xmlns="http://www.w3.org/2000/svg">
<path d="M14.1534 6.43986C14.8365 4.79727 17.1635 4.79727 17.8466 6.43985L19.2339 9.77527C19.5219 10.4677 20.1732 10.9409 20.9207 11.0008L24.5216 11.2895C26.2949 11.4317 27.014 13.6447 25.6629 14.802L22.9194 17.1521C22.3498 17.64 22.1011 18.4055 22.2751 19.1351L23.1133 22.6489C23.5261 24.3793 21.6435 25.7471 20.1253 24.8197L17.0425 22.9368C16.4025 22.5458 15.5975 22.5458 14.9575 22.9368L11.8747 24.8197C10.3565 25.7471 8.47395 24.3793 8.88673 22.6489L9.72491 19.1351C9.89892 18.4055 9.65018 17.64 9.0806 17.1521L6.33712 14.802C4.98605 13.6447 5.7051 11.4317 7.47841 11.2895L11.0793 11.0008C11.8268 10.9409 12.4781 10.4677 12.7661 9.77527L14.1534 6.43986Z" fill="black"/>
</svg>
