<svg width="40" height="40" viewBox="0 0 40 40" fill="none" xmlns="http://www.w3.org/2000/svg">
<path d="M20 31C26.0751 31 31 26.0751 31 20C31 13.9249 26.0751 9 20 9C13.9249 9 9 13.9249 9 20C9 26.0751 13.9249 31 20 31Z" fill="#FFCE03"/>
<path d="M26.3795 19.6953C26.3925 20.533 26.241 21.3663 25.9315 22.1455C25.6219 22.9248 25.1631 23.6369 24.5808 24.2386C23.9964 24.8403 23.3016 25.3209 22.531 25.6542C21.7626 25.9875 20.9336 26.165 20.096 26.178C19.2583 26.191 18.425 26.0395 17.6457 25.7299C16.8665 25.4204 16.1544 24.9615 15.5527 24.3793C14.9509 23.7949 14.4704 23.1001 14.1371 22.3295C13.8038 21.5611 13.6263 20.7321 13.6133 19.8944L19.9964 19.7949L26.3795 19.6953Z" fill="#352009"/>
<path d="M14.0075 17.7416C14.8013 17.7416 15.4448 17.0982 15.4448 16.3044C15.4448 15.5107 14.8013 14.8672 14.0075 14.8672C13.2138 14.8672 12.5703 15.5107 12.5703 16.3044C12.5703 17.0982 13.2138 17.7416 14.0075 17.7416Z" fill="#352009"/>
<path d="M25.9919 17.7416C26.7857 17.7416 27.4292 17.0982 27.4292 16.3044C27.4292 15.5107 26.7857 14.8672 25.9919 14.8672C25.1982 14.8672 24.5547 15.5107 24.5547 16.3044C24.5547 17.0982 25.1982 17.7416 25.9919 17.7416Z" fill="#352009"/>
</svg>
