<svg width="40" height="40" viewBox="0 0 40 40" fill="none" xmlns="http://www.w3.org/2000/svg">
<path d="M18.1534 10.4399C18.8365 8.79727 21.1635 8.79727 21.8466 10.4399L23.2339 13.7753C23.5219 14.4677 24.1732 14.9409 24.9207 15.0008L28.5216 15.2895C30.2949 15.4317 31.014 17.6447 29.6629 18.802L26.9194 21.1521C26.3498 21.64 26.1011 22.4055 26.2751 23.1351L27.1133 26.6489C27.5261 28.3793 25.6435 29.7471 24.1253 28.8197L21.0425 26.9368C20.4025 26.5458 19.5975 26.5458 18.9575 26.9368L15.8747 28.8197C14.3565 29.7471 12.474 28.3793 12.8867 26.6489L13.7249 23.1351C13.8989 22.4055 13.6502 21.64 13.0806 21.1521L10.3371 18.802C8.98605 17.6447 9.7051 15.4317 11.4784 15.2895L15.0793 15.0008C15.8268 14.9409 16.4781 14.4677 16.7661 13.7753L18.1534 10.4399Z" fill="#FFD233"/>
</svg>
