<svg width="32" height="32" viewBox="0 0 32 32" fill="none" xmlns="http://www.w3.org/2000/svg">
<path d="M13.8963 21.9993C12.6239 21.9993 11.6564 21.7072 10.9938 21.123C10.3313 20.5318 10 19.7018 10 18.6333C10 17.5362 10.4743 16.6564 11.423 15.9939C12.3717 15.3243 13.6893 14.9895 15.3758 14.9895H17.5554V13.8568C17.5554 13.1587 17.3296 12.6173 16.8778 12.2326C16.4336 11.8479 15.8049 11.6555 14.9918 11.6555C14.4798 11.6555 14.0356 11.7161 13.6591 11.8372C13.2827 11.9512 12.9401 12.1115 12.6314 12.3181L12.3943 13.9316H10.6776V11.2815C11.7844 10.4267 13.2337 9.99927 15.0257 9.99927C16.5089 9.99927 17.6721 10.3341 18.5154 11.0037C19.3587 11.6734 19.7803 12.6315 19.7803 13.8782V19.4454C19.7803 19.595 19.7803 19.741 19.7803 19.8835C19.7878 20.026 19.7991 20.1685 19.8142 20.3109L21 20.4285V21.7749H17.8039C17.6759 21.1907 17.5969 20.66 17.5667 20.1827C17.1376 20.7027 16.5992 21.1373 15.9517 21.4864C15.3118 21.8283 14.6266 21.9993 13.8963 21.9993ZM14.2238 20.2361C14.9617 20.2361 15.6355 20.0687 16.2454 19.7339C16.8552 19.3991 17.2919 18.9966 17.5554 18.5264V16.432H15.2967C14.2728 16.432 13.5048 16.6636 12.9928 17.1266C12.4808 17.5897 12.2248 18.1061 12.2248 18.676C12.2248 19.7161 12.8912 20.2361 14.2238 20.2361Z" fill="#4A4A4A"/>
</svg>
