<svg xmlns="http://www.w3.org/2000/svg" width="25" height="24" viewBox="0 0 25 24" fill="none">
  <path fill-rule="evenodd" clip-rule="evenodd" d="M11.6696 3.25H17.3304C17.8646 3.24999 18.3104 3.24998 18.6747 3.27974C19.0546 3.31078 19.4112 3.37789 19.7485 3.54973C20.2659 3.81338 20.6866 4.23408 20.9503 4.75153C21.1221 5.08879 21.1892 5.44545 21.2203 5.82533C21.25 6.18956 21.25 6.6354 21.25 7.16955V12.8305C21.25 13.3646 21.25 13.8104 21.2203 14.1747C21.1892 14.5546 21.1221 14.9112 20.9503 15.2485C20.6866 15.7659 20.2659 16.1866 19.7485 16.4503C19.4112 16.6221 19.0546 16.6892 18.6747 16.7203C18.3104 16.75 17.8646 16.75 17.3305 16.75H17.25V16.8305C17.25 17.3646 17.25 17.8104 17.2203 18.1747C17.1892 18.5546 17.1221 18.9112 16.9503 19.2485C16.6866 19.7659 16.2659 20.1866 15.7485 20.4503C15.4112 20.6221 15.0546 20.6892 14.6747 20.7203C14.3104 20.75 13.8646 20.75 13.3305 20.75H7.66955C7.1354 20.75 6.68956 20.75 6.32533 20.7203C5.94545 20.6892 5.58879 20.6221 5.25153 20.4503C4.73408 20.1866 4.31338 19.7659 4.04973 19.2485C3.87789 18.9112 3.81078 18.5546 3.77974 18.1747C3.74998 17.8104 3.74999 17.3646 3.75 16.8304V11.1696C3.74999 10.6354 3.74998 10.1896 3.77974 9.82533C3.81078 9.44545 3.87789 9.08879 4.04973 8.75153C4.31338 8.23408 4.73408 7.81339 5.25153 7.54973C5.58879 7.37789 5.94545 7.31078 6.32533 7.27974C6.68957 7.24998 7.13542 7.24999 7.66957 7.25L7.75 7.25L7.75 7.16957C7.74999 6.63542 7.74998 6.18957 7.77974 5.82533C7.81078 5.44545 7.87789 5.08879 8.04973 4.75153C8.31339 4.23408 8.73408 3.81338 9.25153 3.54973C9.58879 3.37789 9.94545 3.31078 10.3253 3.27974C10.6896 3.24998 11.1354 3.24999 11.6696 3.25ZM7.75 8.75H7.7C7.12757 8.75 6.74336 8.75058 6.44748 8.77476C6.16036 8.79822 6.02307 8.8401 5.93251 8.88624C5.69731 9.00608 5.50608 9.19731 5.38624 9.43251C5.3401 9.52307 5.29822 9.66036 5.27476 9.94748C5.25058 10.2434 5.25 10.6276 5.25 11.2V16.8C5.25 17.3724 5.25058 17.7566 5.27476 18.0525C5.29822 18.3396 5.3401 18.4769 5.38624 18.5675C5.50608 18.8027 5.69731 18.9939 5.93251 19.1138C6.02307 19.1599 6.16036 19.2018 6.44748 19.2252C6.74336 19.2494 7.12757 19.25 7.7 19.25H13.3C13.8724 19.25 14.2566 19.2494 14.5525 19.2252C14.8396 19.2018 14.9769 19.1599 15.0675 19.1138C15.3027 18.9939 15.4939 18.8027 15.6138 18.5675C15.6599 18.4769 15.7018 18.3396 15.7252 18.0525C15.7494 17.7566 15.75 17.3724 15.75 16.8V16.75H11.6695C11.1354 16.75 10.6896 16.75 10.3253 16.7203C9.94545 16.6892 9.58879 16.6221 9.25153 16.4503C8.73408 16.1866 8.31339 15.7659 8.04973 15.2485C7.87789 14.9112 7.81078 14.5546 7.77974 14.1747C7.74998 13.8104 7.74999 13.3646 7.75 12.8304L7.75 8.75ZM11.7 15.25C11.1276 15.25 10.7434 15.2494 10.4475 15.2252C10.1604 15.2018 10.0231 15.1599 9.93251 15.1138C9.69731 14.9939 9.50608 14.8027 9.38624 14.5675C9.3401 14.4769 9.29822 14.3396 9.27476 14.0525C9.25058 13.7566 9.25 13.3724 9.25 12.8V7.2C9.25 6.62757 9.25058 6.24336 9.27476 5.94748C9.29822 5.66036 9.3401 5.52307 9.38624 5.43251C9.50608 5.19731 9.69731 5.00608 9.93251 4.88624C10.0231 4.8401 10.1604 4.79822 10.4475 4.77476C10.7434 4.75058 11.1276 4.75 11.7 4.75H17.3C17.8724 4.75 18.2566 4.75058 18.5525 4.77476C18.8396 4.79822 18.9769 4.8401 19.0675 4.88624C19.3027 5.00608 19.4939 5.19731 19.6138 5.43251C19.6599 5.52307 19.7018 5.66036 19.7252 5.94748C19.7494 6.24336 19.75 6.62757 19.75 7.2V12.8C19.75 13.3724 19.7494 13.7566 19.7252 14.0525C19.7018 14.3396 19.6599 14.4769 19.6138 14.5675C19.4939 14.8027 19.3027 14.9939 19.0675 15.1138C18.9769 15.1599 18.8396 15.2018 18.5525 15.2252C18.2566 15.2494 17.8724 15.25 17.3 15.25H11.7Z" fill="#25262C"/>
</svg>
