<svg xmlns="http://www.w3.org/2000/svg" width="28" height="28" viewBox="0 0 28 28" fill="none">
  <path fill-rule="evenodd" clip-rule="evenodd" d="M7.45001 23.1042C6.99761 22.7874 6.88766 22.1639 7.20444 21.7115L8.78177 19.4588C9.09855 19.0064 9.72209 18.8965 10.1745 19.2132C10.6269 19.53 10.7369 20.1536 10.4201 20.606L8.84274 22.8586C8.52596 23.311 7.90242 23.421 7.45001 23.1042ZM12.182 16.3462C11.7296 16.0294 11.6197 15.4059 11.9364 14.9535L15.0911 10.4481C15.4079 9.99574 16.0314 9.88579 16.4838 10.2026C16.9362 10.5193 17.0462 11.1429 16.7294 11.5953L13.5747 16.1006C13.258 16.553 12.6344 16.663 12.182 16.3462ZM18.4914 7.33554C18.039 7.01876 17.929 6.39522 18.2458 5.94281L19.8231 3.69014C20.1399 3.23774 20.7634 3.12779 21.2158 3.44457C21.6683 3.76134 21.7782 4.38489 21.4614 4.8373L19.8841 7.08996C19.5673 7.54237 18.9438 7.65232 18.4914 7.33554Z" fill="#25262C"/>
</svg>
