<svg xmlns="http://www.w3.org/2000/svg" width="28" height="28" viewBox="0 0 28 28" fill="none">
  <path fill-rule="evenodd" clip-rule="evenodd" d="M6.85977 23.3908C6.63357 23.2324 6.57859 22.9206 6.73698 22.6944L8.38602 20.3394C8.5444 20.1132 8.85618 20.0582 9.08238 20.2166C9.30858 20.375 9.36356 20.6867 9.20517 20.9129L7.55614 23.268C7.39775 23.4942 7.08597 23.5492 6.85977 23.3908ZM11.8069 16.3256C11.5807 16.1672 11.5257 15.8554 11.6841 15.6292L14.9821 10.9191C15.1405 10.6929 15.4523 10.6379 15.6785 10.7963C15.9047 10.9547 15.9597 11.2665 15.8013 11.4927L12.5032 16.2028C12.3448 16.429 12.0331 16.484 11.8069 16.3256ZM18.403 6.90536C18.1768 6.74697 18.1218 6.4352 18.2802 6.20899L19.9292 3.85393C20.0876 3.62773 20.3994 3.57275 20.6256 3.73114C20.8518 3.88953 20.9068 4.2013 20.7484 4.42751L19.0994 6.78257C18.941 7.00877 18.6292 7.06375 18.403 6.90536Z" fill="#25262C"/>
</svg>
