<svg width="36" height="36" viewBox="0 0 36 36" fill="none" xmlns="http://www.w3.org/2000/svg">
<path fill-rule="evenodd" clip-rule="evenodd" d="M26 11.4291L25.2724 10.7015L22.7348 13.2391L23.4624 13.9667L26 11.4291ZM22.018 15.411L21.2904 14.6834L18.7528 17.221L19.4804 17.9486L22.018 15.411ZM18.0361 19.393L17.3085 18.6653L14.7708 21.2029L15.4985 21.9305L18.0361 19.393ZM14.0694 20.5014L14.7708 21.2029L17.3085 18.6653L16.607 17.9639L14.0694 20.5014ZM18.0513 16.5195L18.7528 17.221L21.2904 14.6834L20.5889 13.9819L18.0513 16.5195ZM22.0333 12.5376L22.7348 13.2391L25.2724 10.7015L24.5709 10L22.0333 12.5376Z" fill="#4A4A4A"/>
<path d="M13.2191 22.7148L10.6815 25.2524L11.4291 26L13.9667 23.4624L13.2191 22.7148Z" fill="#4A4A4A"/>
<path d="M10.7015 25.2724L13.2391 22.7348L12.5376 22.0333L10 24.5709L10.7015 25.2724Z" fill="#4A4A4A"/>
</svg>
