<svg xmlns="http://www.w3.org/2000/svg" width="28" height="28" viewBox="0 0 28 28" fill="none">
  <path fill-rule="evenodd" clip-rule="evenodd" d="M7.63049 23.5305C6.72568 22.8969 6.50579 21.6498 7.13934 20.745L10.0072 16.6492C10.6408 15.7444 11.8879 15.5245 12.7927 16.1581C13.6975 16.7916 13.9174 18.0387 13.2838 18.9435L10.4159 23.0393C9.78239 23.9441 8.5353 24.164 7.63049 23.5305ZM16.2341 11.2432C15.3293 10.6096 15.1094 9.36253 15.743 8.45772L18.6109 4.36196C19.2444 3.45714 20.4915 3.23725 21.3963 3.8708C22.3011 4.50436 22.521 5.75145 21.8875 6.65626L19.0196 10.752C18.386 11.6568 17.1389 11.8767 16.2341 11.2432Z" fill="#25262C"/>
</svg>
