<svg width="36" height="36" viewBox="0 0 36 36" fill="none" xmlns="http://www.w3.org/2000/svg">
<path fill-rule="evenodd" clip-rule="evenodd" d="M23.2776 14.0295L22.612 13.3639L21.2908 14.6851L21.9564 15.3507L23.2776 14.0295ZM20.6353 16.6718L19.9697 16.0062L18.6485 17.3274L19.3141 17.993L20.6353 16.6718ZM17.9929 19.3141L17.3274 18.6486L16.0062 19.9697L16.6718 20.6353L17.9929 19.3141ZM15.3506 21.9565L14.6851 21.2909L13.3639 22.612L14.0295 23.2776L15.3506 21.9565ZM12.7223 21.9704L13.3639 22.612L14.6851 21.2909L14.0434 20.6492L12.7223 21.9704ZM15.3646 19.3281L16.0062 19.9697L17.3274 18.6486L16.6857 18.0069L15.3646 19.3281ZM18.0069 16.6858L18.6485 17.3274L19.9697 16.0062L19.328 15.3646L18.0069 16.6858ZM20.6492 14.0434L21.2908 14.6851L22.612 13.3639L21.9703 12.7223L20.6492 14.0434Z" fill="#4A4A4A"/>
<path d="M11.9445 23.995L10.6234 25.3162L11.3072 26L12.6284 24.6788L11.9445 23.995Z" fill="#4A4A4A"/>
<path d="M10.6416 25.3344L11.9628 24.0133L11.3212 23.3716L10 24.6928L10.6416 25.3344Z" fill="#4A4A4A"/>
<path d="M25.3344 10.6416L24.0133 11.9628L24.6788 12.6284L26 11.3072L25.3344 10.6416Z" fill="#4A4A4A"/>
<path d="M24.0133 11.9628L25.3344 10.6416L24.6928 10L23.3716 11.3212L24.0133 11.9628Z" fill="#4A4A4A"/>
</svg>
