<svg xmlns="http://www.w3.org/2000/svg" width="28" height="28" viewBox="0 0 28 28" fill="none">
  <path fill-rule="evenodd" clip-rule="evenodd" d="M7.40219 24.837C5.81877 23.7283 5.43395 21.5459 6.54267 19.9624L8.98037 16.481C10.0891 14.8976 12.2715 14.5128 13.8549 15.6215C15.4383 16.7302 15.8232 18.9127 14.7144 20.4961L12.2767 23.9775C11.168 25.5609 8.98561 25.9457 7.40219 24.837ZM14.7153 14.3928C13.1319 13.2841 12.7471 11.1017 13.8558 9.51825L16.2935 6.03685C17.4022 4.45343 19.5846 4.06861 21.168 5.17734C22.7514 6.28606 23.1363 8.46847 22.0275 10.0519L19.5898 13.5333C18.4811 15.1167 16.2987 15.5015 14.7153 14.3928Z" fill="#25262C"/>
</svg>
