<svg xmlns="http://www.w3.org/2000/svg" width="28" height="28" viewBox="0 0 28 28" fill="none">
  <path fill-rule="evenodd" clip-rule="evenodd" d="M7.78302 23.7711C7.33061 23.4543 7.22067 22.8308 7.53744 22.3784L9.11478 20.1257C9.43156 19.6733 10.0551 19.5633 10.5075 19.8801C10.9599 20.1969 11.0699 20.8204 10.7531 21.2728L9.17575 23.5255C8.85897 23.9779 8.23542 24.0879 7.78302 23.7711ZM12.515 17.0131C12.0626 16.6963 11.9527 16.0728 12.2694 15.6204L15.4241 11.115C15.7409 10.6626 16.3644 10.5527 16.8168 10.8694C17.2693 11.1862 17.3792 11.8098 17.0624 12.2622L13.9078 16.7675C13.591 17.2199 12.9674 17.3299 12.515 17.0131ZM18.8244 8.00241C18.372 7.68563 18.262 7.06209 18.5788 6.60968L20.1561 4.35701C20.4729 3.90461 21.0964 3.79466 21.5489 4.11144C22.0013 4.42821 22.1112 5.05176 21.7944 5.50417L20.2171 7.75683C19.9003 8.20924 19.2768 8.31919 18.8244 8.00241Z" fill="#25262C"/>
</svg>
