<svg xmlns="http://www.w3.org/2000/svg" width="25" height="24" viewBox="0 0 25 24" fill="none">
  <path fill-rule="evenodd" clip-rule="evenodd" d="M11.6799 2.24995C11.7215 2.24999 11.7637 2.25003 11.8064 2.25003H13.1936C13.2363 2.25003 13.2785 2.24999 13.3201 2.24995C14.0245 2.2493 14.5767 2.24878 15.065 2.44085C15.4934 2.60935 15.8727 2.88272 16.168 3.23588C16.5047 3.63843 16.6788 4.16244 16.9009 4.83085C16.9141 4.87037 16.9274 4.9104 16.9409 4.95093L17.0406 5.25003H20.5C20.9142 5.25003 21.25 5.58582 21.25 6.00003C21.25 6.41424 20.9142 6.75003 20.5 6.75003H19.25V16.2322C19.25 17.045 19.25 17.7006 19.2066 18.2315C19.162 18.7781 19.0676 19.2583 18.8413 19.7025C18.4817 20.4081 17.9081 20.9818 17.2025 21.3413C16.7582 21.5676 16.2781 21.662 15.7315 21.7067C15.2006 21.75 14.545 21.75 13.7321 21.75H11.2679C10.455 21.75 9.79944 21.75 9.26853 21.7067C8.72189 21.662 8.24175 21.5676 7.79754 21.3413C7.09193 20.9818 6.51825 20.4081 6.15873 19.7025C5.93238 19.2583 5.83803 18.7781 5.79336 18.2315C5.74999 17.7006 5.74999 17.045 5.75 16.2321L5.75 6.75003H4.5C4.08579 6.75003 3.75 6.41424 3.75 6.00003C3.75 5.58582 4.08579 5.25003 4.5 5.25003H7.95943L8.05913 4.95093C8.07264 4.9104 8.08594 4.87037 8.09908 4.83085C8.32119 4.16243 8.49532 3.63843 8.83195 3.23588C9.12729 2.88272 9.50657 2.60935 9.935 2.44085C10.4233 2.24878 10.9755 2.2493 11.6799 2.24995ZM9.5408 5.25003H15.4592C15.2223 4.5455 15.1379 4.34221 15.0174 4.19814C14.8831 4.03762 14.7107 3.91336 14.516 3.83677C14.3275 3.76264 14.0869 3.75003 13.1936 3.75003H11.8064C10.9131 3.75003 10.6725 3.76264 10.484 3.83677C10.2893 3.91336 10.1169 4.03762 9.98262 4.19814C9.86214 4.34221 9.77769 4.54549 9.5408 5.25003ZM7.25 6.75003V16.2C7.25 17.0525 7.25058 17.6467 7.28838 18.1094C7.32546 18.5632 7.3946 18.824 7.49524 19.0215C7.71095 19.4449 8.05516 19.7891 8.47852 20.0048C8.67604 20.1054 8.9368 20.1746 9.39068 20.2116C9.85331 20.2494 10.4475 20.25 11.3 20.25H13.7C14.5525 20.25 15.1467 20.2494 15.6093 20.2116C16.0632 20.1746 16.324 20.1054 16.5215 20.0048C16.9448 19.7891 17.2891 19.4449 17.5048 19.0215C17.6054 18.824 17.6745 18.5632 17.7116 18.1094C17.7494 17.6467 17.75 17.0525 17.75 16.2V6.75003H7.25ZM10.5 9.25003C10.9142 9.25003 11.25 9.58582 11.25 10V17C11.25 17.4142 10.9142 17.75 10.5 17.75C10.0858 17.75 9.75 17.4142 9.75 17V10C9.75 9.58582 10.0858 9.25003 10.5 9.25003ZM14.5 9.25003C14.9142 9.25003 15.25 9.58582 15.25 10V17C15.25 17.4142 14.9142 17.75 14.5 17.75C14.0858 17.75 13.75 17.4142 13.75 17V10C13.75 9.58582 14.0858 9.25003 14.5 9.25003Z" fill="#25262C"/>
</svg>
