<svg xmlns="http://www.w3.org/2000/svg" width="28" height="28" viewBox="0 0 28 28" fill="none">
  <path d="M4.59575 18.596C3.80372 17.804 3.4077 17.4079 3.25932 16.9513C3.12881 16.5496 3.12881 16.1169 3.25932 15.7152C3.4077 15.2586 3.80372 14.8625 4.59575 14.0705L12.2325 6.43376L22.132 16.3333L14.4952 23.97C13.7032 24.762 13.3072 25.1581 12.8505 25.3064C12.4488 25.4369 12.0162 25.4369 11.6145 25.3064C11.1578 25.1581 10.7618 24.762 9.96976 23.97L4.59575 18.596Z" stroke="#25262C" stroke-width="1.7" stroke-linecap="round" stroke-linejoin="round"/>
  <path d="M11.667 7L14.354 4.31299C15.146 3.52096 15.542 3.12494 15.9987 2.97657C16.4004 2.84605 16.8331 2.84605 17.2348 2.97657C17.6914 3.12494 18.0874 3.52096 18.8795 4.31299L24.2535 9.68701C25.0455 10.479 25.4415 10.8751 25.5899 11.3317C25.7204 11.7334 25.7204 12.1661 25.5899 12.5678C25.4415 13.0244 25.0455 13.4205 24.2535 14.2125L21.5665 16.8995" stroke="#25262C" stroke-width="1.7" stroke-linecap="round" stroke-linejoin="round"/>
</svg>
