<svg width="16" height="21" viewBox="0 0 16 21" fill="none" xmlns="http://www.w3.org/2000/svg">
<path d="M6.60005 10.5236V3.35215C6.60005 2.57895 5.97325 1.95215 5.20005 1.95215V1.95215C4.42685 1.95215 3.80005 2.57895 3.80005 3.35215V12.4283" stroke="#333333" stroke-width="2"/>
<path d="M9.40001 10.5238V2.4C9.40001 1.6268 8.7732 1 8.00001 1V1C7.22681 1 6.60001 1.6268 6.60001 2.4V10.5238" stroke="#333333" stroke-width="2"/>
<path d="M12.2 10.5236V3.35215C12.2 2.57895 11.5732 1.95215 10.8 1.95215V1.95215C10.0268 1.95215 9.40002 2.57895 9.40002 3.35215V10.5236" stroke="#333333" stroke-width="2"/>
<path d="M12.2 10.5239V6.20957C12.2 5.43637 12.8268 4.80957 13.6 4.80957V4.80957C14.3731 4.80957 15 5.43637 15 6.20957V10.5239V17.1905L13.1333 19.0953V21" stroke="#333333" stroke-width="2"/>
<path d="M4.26667 21.0001V19.5715L1 16.2382V11.9239C1 11.1507 1.6268 10.5239 2.4 10.5239V10.5239C3.1732 10.5239 3.8 11.1507 3.8 11.9239V13.3811" stroke="#333333" stroke-width="2"/>
</svg>
