<svg viewBox="0 0 16 10" fill="none" xmlns="http://www.w3.org/2000/svg">
<path fill-rule="evenodd" clip-rule="evenodd" d="M0 9.91502L4.06637 0H6.06462L10.131 9.91502H7.74148L6.931 7.83287H3.06026L2.24978 9.91502H0ZM5.00261 2.90393L3.89868 5.70847H6.09257L5.00261 2.90393ZM11.5703 5.53826L11.0532 3.99434C11.5563 3.68273 12.5065 3.37111 13.3869 3.37111C15.3013 3.37111 15.9999 4.34845 15.9999 6.0765V9.91503H14.1834V9.33429C13.8759 9.77339 13.2192 10 12.5344 10C11.4026 10 10.5502 9.27764 10.5502 7.98868C10.5502 6.54392 11.5703 5.8782 12.8139 5.8782C13.3729 5.8782 13.848 6.0765 14.0436 6.23231C14.0855 5.46743 13.7362 5.14165 13.1772 5.14165C12.4366 5.14165 11.9615 5.38245 11.5703 5.53826ZM13.2471 8.22929C13.6663 8.22929 13.9179 8.07348 14.0436 7.90351V7.50691C13.848 7.36526 13.5965 7.29444 13.2471 7.29444C12.8978 7.29444 12.6462 7.46441 12.6462 7.77603C12.6462 8.05931 12.8978 8.22929 13.2471 8.22929Z" fill="black"/>
</svg>
