<svg xmlns="http://www.w3.org/2000/svg" width="28" height="28" viewBox="0 0 28 28" fill="none">
  <path fill-rule="evenodd" clip-rule="evenodd" d="M8.36482 3.79175H19.6358C20.259 3.79174 20.7792 3.79173 21.2041 3.82644C21.6473 3.86266 22.0634 3.94095 22.4569 4.14144C23.0606 4.44903 23.5514 4.93984 23.859 5.54353C24.0595 5.937 24.1378 6.3531 24.174 6.7963C24.2087 7.22123 24.2087 7.74138 24.2087 8.36455V19.6356C24.2087 20.2588 24.2087 20.7789 24.174 21.2039C24.1378 21.6471 24.0595 22.0632 23.859 22.4566C23.5514 23.0603 23.0606 23.5511 22.4569 23.8587C22.0634 24.0592 21.6473 24.1375 21.2041 24.1737C20.7792 24.2084 20.259 24.2084 19.6359 24.2084H8.3648C7.74163 24.2084 7.22148 24.2084 6.79654 24.1737C6.35335 24.1375 5.93725 24.0592 5.54377 23.8587C4.94009 23.5511 4.44927 23.0603 4.14168 22.4566C3.97942 22.1382 3.8972 21.8049 3.85254 21.4544C3.84729 21.4239 3.84367 21.3931 3.84167 21.3622C3.83598 21.3098 3.83103 21.257 3.82669 21.2039C3.79197 20.7789 3.79198 20.2588 3.79199 19.6356V8.36457C3.79198 7.7414 3.79197 7.22124 3.82669 6.7963C3.8629 6.3531 3.9412 5.937 4.14168 5.54353C4.44927 4.93984 4.94009 4.44903 5.54377 4.14144C5.93725 3.94095 6.35335 3.86266 6.79654 3.82644C7.22148 3.79173 7.74164 3.79174 8.36482 3.79175ZM5.66791 21.5875C5.6786 21.6155 5.68966 21.64 5.70094 21.6622C5.84076 21.9366 6.06385 22.1597 6.33826 22.2995C6.44391 22.3533 6.60407 22.4022 6.93905 22.4295C7.28424 22.4577 7.73249 22.4584 8.40033 22.4584H19.2125L16.0212 19.2109L14.0217 17.228C13.551 16.7612 13.2348 16.4486 12.9719 16.2271C12.7168 16.0123 12.5697 15.9345 12.4573 15.8982C12.1659 15.804 11.8522 15.804 11.5607 15.8982C11.4483 15.9345 11.3012 16.0123 11.0462 16.2271C10.7837 16.4482 10.4681 16.7602 9.99878 17.2256L5.66791 21.5875ZM17.8761 18.6016L21.5541 22.3445C21.5967 22.3302 21.6318 22.315 21.6624 22.2995C21.9368 22.1597 22.1599 21.9366 22.2997 21.6622C22.3535 21.5565 22.4024 21.3963 22.4298 21.0614C22.4578 20.7178 22.4587 20.2721 22.4587 19.6094L21.7272 18.8667C21.2579 18.3794 20.9421 18.0524 20.6788 17.8205C20.4231 17.5952 20.275 17.5133 20.162 17.4747C19.8677 17.3744 19.5491 17.3707 19.2526 17.4643C19.1388 17.5002 18.9888 17.5787 18.728 17.798C18.5027 17.9875 18.2389 18.2429 17.8761 18.6016ZM22.4587 17.1069V8.40008C22.4587 7.73225 22.458 7.284 22.4298 6.93881C22.4024 6.60383 22.3535 6.44367 22.2997 6.33801C22.1599 6.06361 21.9368 5.84051 21.6624 5.7007C21.5567 5.64686 21.3966 5.598 21.0616 5.57063C20.7164 5.54243 20.2682 5.54175 19.6003 5.54175H8.40033C7.73249 5.54175 7.28424 5.54243 6.93905 5.57063C6.60407 5.598 6.44391 5.64686 6.33826 5.7007C6.06385 5.84051 5.84076 6.06361 5.70094 6.33801C5.64711 6.44367 5.59825 6.60383 5.57088 6.93881C5.54267 7.284 5.54199 7.73225 5.54199 8.40008V19.2305L8.76407 15.9853L8.78918 15.9605C9.22827 15.525 9.59492 15.1614 9.91883 14.8886C10.2568 14.604 10.605 14.3679 11.0227 14.2329C11.6639 14.0258 12.3541 14.0258 12.9953 14.2329C13.4131 14.3679 13.7612 14.604 14.0992 14.8886C14.4231 15.1614 14.7898 15.525 15.2289 15.9605L16.6414 17.3613C17.0061 17.0006 17.3199 16.6956 17.6017 16.4587C17.9458 16.1693 18.3006 15.9296 18.7261 15.7954C19.3784 15.5896 20.0794 15.5976 20.7267 15.8184C21.149 15.9623 21.4982 16.2101 21.8356 16.5074C22.0267 16.6756 22.2322 16.8768 22.4587 17.1069ZM17.5003 9.04175C16.6949 9.04175 16.042 9.69467 16.042 10.5001C16.042 11.3055 16.6949 11.9584 17.5003 11.9584C18.3057 11.9584 18.9587 11.3055 18.9587 10.5001C18.9587 9.69467 18.3057 9.04175 17.5003 9.04175ZM14.292 10.5001C14.292 8.72817 15.7284 7.29175 17.5003 7.29175C19.2722 7.29175 20.7087 8.72817 20.7087 10.5001C20.7087 12.272 19.2722 13.7084 17.5003 13.7084C15.7284 13.7084 14.292 12.272 14.292 10.5001Z" fill="#25262C"/>
</svg>
