<svg width="20" height="20" viewBox="0 0 20 20" fill="none" xmlns="http://www.w3.org/2000/svg">
<path fill-rule="evenodd" clip-rule="evenodd" d="M1 1H19V19H1V1ZM3 3V9.36496L4.96739 7.72546L10.9062 12.1796L12.8862 10.1996L17 13.0793V3H3ZM3 17V11.9684L5.03271 10.2745L11.0939 14.8203L13.1139 12.8003L17 15.5206V17H3ZM12 6.5C12 6.22386 12.2239 6 12.5 6C12.7761 6 13 6.22386 13 6.5C13 6.77614 12.7761 7 12.5 7C12.2239 7 12 6.77614 12 6.5ZM12.5 4C11.1193 4 10 5.11929 10 6.5C10 7.88071 11.1193 9 12.5 9C13.8807 9 15 7.88071 15 6.5C15 5.11929 13.8807 4 12.5 4Z" fill="#4A4A4A"/>
</svg>
