<svg xmlns="http://www.w3.org/2000/svg" width="28" height="28" viewBox="0 0 28 28" fill="none">
  <path fill-rule="evenodd" clip-rule="evenodd" d="M7.19783 3.79175H20.8022C21.4254 3.79174 21.9455 3.79173 22.3705 3.82644C22.8137 3.86266 23.2297 3.94095 23.6232 4.14144C24.2269 4.44903 24.7177 4.93984 25.0253 5.54353C25.2258 5.937 25.3041 6.3531 25.3403 6.7963C25.375 7.22123 25.375 7.74138 25.375 8.36455V19.6356C25.375 20.2588 25.375 20.7789 25.3403 21.2039C25.3041 21.6471 25.2258 22.0632 25.0253 22.4566C24.7177 23.0603 24.2269 23.5511 23.6232 23.8587C23.2297 24.0592 22.8137 24.1375 22.3705 24.1737C21.9455 24.2084 21.4254 24.2084 20.8022 24.2084H7.19781C6.57464 24.2084 6.05449 24.2084 5.62955 24.1737C5.18635 24.1375 4.77025 24.0592 4.37678 23.8587C3.77309 23.5511 3.28228 23.0603 2.97469 22.4566C2.7742 22.0632 2.69591 21.6471 2.6597 21.2039C2.62498 20.7789 2.62499 20.2588 2.625 19.6356V8.36457C2.62499 7.7414 2.62498 7.22124 2.6597 6.7963C2.69591 6.3531 2.7742 5.937 2.97469 5.54353C3.28228 4.93984 3.77309 4.44903 4.37678 4.14144C4.77025 3.94095 5.18635 3.86266 5.62955 3.82644C6.05449 3.79173 6.57465 3.79174 7.19783 3.79175ZM10.2083 22.4584H20.7667C21.4345 22.4584 21.8828 22.4577 22.2279 22.4295C22.5629 22.4022 22.7231 22.3533 22.8287 22.2995C23.1031 22.1597 23.3262 21.9366 23.4661 21.6622C23.5199 21.5565 23.5688 21.3963 23.5961 21.0614C23.6243 20.7162 23.625 20.2679 23.625 19.6001V11.3253C23.5338 11.3575 23.4356 11.3751 23.3333 11.3751L10.2083 11.3751V22.4584ZM8.45833 11.3751V22.4584H7.23333C6.5655 22.4584 6.11725 22.4577 5.77206 22.4295C5.43708 22.4022 5.27692 22.3533 5.17126 22.2995C4.89686 22.1597 4.67377 21.9366 4.53395 21.6622C4.48012 21.5565 4.43125 21.3963 4.40388 21.0614C4.37568 20.7162 4.375 20.2679 4.375 19.6001V11.3253C4.46623 11.3575 4.5644 11.3751 4.66667 11.3751L8.45833 11.3751ZM9.33333 9.62508L23.3333 9.62508C23.4356 9.62508 23.5338 9.64263 23.625 9.67487V8.40008C23.625 7.73225 23.6243 7.284 23.5961 6.93881C23.5688 6.60383 23.5199 6.44367 23.4661 6.33801C23.3262 6.06361 23.1031 5.84051 22.8287 5.7007C22.7231 5.64686 22.5629 5.598 22.2279 5.57063C21.8828 5.54243 21.4345 5.54175 20.7667 5.54175H7.23333C6.5655 5.54175 6.11725 5.54243 5.77206 5.57063C5.43708 5.598 5.27692 5.64686 5.17126 5.7007C4.89686 5.84051 4.67377 6.06361 4.53395 6.33801C4.48012 6.44367 4.43125 6.60383 4.40388 6.93881C4.37568 7.284 4.375 7.73225 4.375 8.40008V9.67487C4.46623 9.64263 4.5644 9.62508 4.66667 9.62508H9.33333Z" fill="#25262C"/>
</svg>
