<svg xmlns="http://www.w3.org/2000/svg" width="25" height="24" viewBox="0 0 25 24" fill="none">
  <path fill-rule="evenodd" clip-rule="evenodd" d="M6.75 7.5C6.75 4.32436 9.32436 1.75 12.5 1.75C15.6756 1.75 18.25 4.32436 18.25 7.5V8.85643C18.5898 8.91431 18.9042 9.00678 19.2025 9.15873C19.9081 9.51825 20.4818 10.0919 20.8413 10.7975C21.0676 11.2418 21.162 11.7219 21.2066 12.2685C21.25 12.7994 21.25 13.455 21.25 14.2679V15.7321C21.25 16.545 21.25 17.2006 21.2066 17.7315C21.162 18.2781 21.0676 18.7582 20.8413 19.2025C20.4818 19.9081 19.9081 20.4817 19.2025 20.8413C18.7582 21.0676 18.2781 21.162 17.7315 21.2066C17.2006 21.25 16.545 21.25 15.7321 21.25H9.26788C8.45505 21.25 7.79944 21.25 7.26853 21.2066C6.7219 21.162 6.24175 21.0676 5.79754 20.8413C5.09193 20.4817 4.51825 19.9081 4.15873 19.2025C3.93239 18.7582 3.83803 18.2781 3.79336 17.7315C3.74999 17.2006 3.74999 16.5449 3.75 15.7321V14.2679C3.74999 13.4551 3.74999 12.7994 3.79336 12.2685C3.83803 11.7219 3.93239 11.2418 4.15873 10.7975C4.51825 10.0919 5.09193 9.51825 5.79754 9.15873C6.09575 9.00678 6.41016 8.91431 6.75 8.85643V7.5ZM8.25 8.75412C8.5586 8.74999 8.89687 8.75 9.2679 8.75H15.7321C16.1031 8.75 16.4414 8.74999 16.75 8.75412V7.5C16.75 5.15279 14.8472 3.25 12.5 3.25C10.1528 3.25 8.25 5.15279 8.25 7.5V8.75412ZM7.39068 10.2884C6.9368 10.3255 6.67604 10.3946 6.47852 10.4952C6.05516 10.711 5.71095 11.0552 5.49524 11.4785C5.3946 11.676 5.32547 11.9368 5.28838 12.3907C5.25058 12.8533 5.25 13.4475 5.25 14.3V15.7C5.25 16.5525 5.25058 17.1467 5.28838 17.6093C5.32547 18.0632 5.3946 18.324 5.49524 18.5215C5.71095 18.9448 6.05516 19.289 6.47852 19.5048C6.67604 19.6054 6.9368 19.6745 7.39068 19.7116C7.85331 19.7494 8.44755 19.75 9.3 19.75H15.7C16.5525 19.75 17.1467 19.7494 17.6093 19.7116C18.0632 19.6745 18.324 19.6054 18.5215 19.5048C18.9448 19.289 19.289 18.9448 19.5048 18.5215C19.6054 18.324 19.6745 18.0632 19.7116 17.6093C19.7494 17.1467 19.75 16.5525 19.75 15.7V14.3C19.75 13.4475 19.7494 12.8533 19.7116 12.3907C19.6745 11.9368 19.6054 11.676 19.5048 11.4785C19.289 11.0552 18.9448 10.711 18.5215 10.4952C18.324 10.3946 18.0632 10.3255 17.6093 10.2884C17.1467 10.2506 16.5525 10.25 15.7 10.25H9.3C8.44755 10.25 7.85331 10.2506 7.39068 10.2884ZM12.5 13.25C12.9142 13.25 13.25 13.5858 13.25 14V16C13.25 16.4142 12.9142 16.75 12.5 16.75C12.0858 16.75 11.75 16.4142 11.75 16V14C11.75 13.5858 12.0858 13.25 12.5 13.25Z" fill="#25262C"/>
</svg>
