<svg width="36" height="36" viewBox="0 0 36 36" fill="none" xmlns="http://www.w3.org/2000/svg">
<path fill-rule="evenodd" clip-rule="evenodd" d="M13 14C13 11.2386 15.2386 9 18 9C20.7614 9 23 11.2386 23 14V15H24C25.1046 15 26 15.8954 26 17V23C26 25.2091 24.2091 27 22 27H14C11.7909 27 10 25.2091 10 23V17C10 15.8954 10.8954 15 12 15H13V14ZM21 14V15H15V14C15 12.3431 16.3431 11 18 11C19.6569 11 21 12.3431 21 14ZM12 17V23C12 24.1046 12.8954 25 14 25H22C23.1046 25 24 24.1046 24 23L24 17H12ZM17 19.5V22.5H19V19.5H17Z" fill="#4A4A4A"/>
</svg>
