<svg width="36" height="36" viewBox="0 0 36 36" fill="none" xmlns="http://www.w3.org/2000/svg">
<path fill-rule="evenodd" clip-rule="evenodd" d="M18 9C15.2386 9 13 11.2386 13 14V15H12C10.8954 15 10 15.8954 10 17V23C10 25.2091 11.7909 27 14 27H22C24.2091 27 26 25.2091 26 23V17C26 15.8954 25.1046 15 24 15H15V14C15 12.3431 16.3431 11 18 11C19.3062 11 20.4175 11.8348 20.8293 13H22.9C22.4367 10.7178 20.419 9 18 9ZM12 17V23C12 24.1046 12.8954 25 14 25H22C23.1046 25 24 24.1046 24 23L24 17H12ZM17 19.5V22.5H19V19.5H17Z" fill="#4A4A4A"/>
</svg>
