<svg xmlns="http://www.w3.org/2000/svg" width="28" height="28" viewBox="0 0 28 28" fill="none">
  <path fill-rule="evenodd" clip-rule="evenodd" d="M20.4686 3.47528C21.5347 2.39811 23.2213 2.33539 24.3594 3.33856C25.4781 4.3247 25.6967 6.01264 24.8953 7.26618L19.0211 16.4551C19.0174 16.4611 19.0136 16.467 19.0097 16.4729L18.4523 17.3449C17.5829 18.7049 16.1023 19.3754 14.6524 19.2449C15.0238 20.8603 14.659 22.6519 13.5542 24.0351C13.0061 24.7213 11.9685 25.375 10.7379 25.375H10.7378C8.58432 25.3748 6.5943 25.3749 5.07642 25.375C4.46868 25.375 3.93662 25.375 3.50007 25.375C3.11667 25.375 2.77793 25.1254 2.66435 24.7592C2.55076 24.3931 2.6888 23.9956 3.00489 23.7786C4.0735 23.0451 5.10112 21.6706 5.44701 20.9521L5.45604 20.9338C5.59173 20.668 5.62635 20.4772 5.63067 20.3273C5.63545 20.1614 5.60591 20.0001 5.5488 19.7485C5.54387 19.7268 5.53878 19.7046 5.53359 19.682C5.4164 19.1716 5.2473 18.435 5.6875 17.4879C5.70249 17.4556 5.71944 17.4243 5.73824 17.3941C6.48944 16.1879 7.81346 15.5209 9.14669 15.3663C9.72557 15.2991 10.3284 15.3255 10.915 15.4554C10.7766 14.1853 11.181 12.8596 12.1393 11.8912L12.6034 11.4224C12.6089 11.4166 12.6145 11.411 12.6201 11.4055L20.4686 3.47528ZM13.3078 13.2018C12.3454 14.2625 12.4299 15.9829 13.5038 16.9296C14.5715 17.8707 16.1815 17.648 16.9778 16.4023L17.1128 16.1912L13.3078 13.2018ZM18.0598 14.7097L14.545 11.9483L21.7124 4.70629C22.1297 4.28461 22.7635 4.26467 23.2022 4.65133C23.6601 5.05502 23.767 5.78216 23.4208 6.32359L18.0598 14.7097ZM7.25274 18.274C7.0928 18.6449 7.14488 18.8743 7.25203 19.3463L7.2554 19.3611C7.31342 19.6168 7.39171 19.9693 7.37994 20.3777C7.36779 20.7994 7.26275 21.2405 7.01941 21.7203C6.77127 22.2326 6.30648 22.938 5.71959 23.6249C7.13736 23.6249 8.87662 23.6248 10.7379 23.625M7.25274 18.274C7.66928 17.6417 8.44114 17.2098 9.34833 17.1046C10.2731 16.9973 11.2208 17.2458 11.8886 17.8344C13.275 19.0566 13.4609 21.3478 12.1868 22.943C11.9235 23.2726 11.365 23.625 10.738 23.625" fill="#25262C"/>
</svg>
