<svg width="36" height="36" viewBox="0 0 36 36" fill="none" xmlns="http://www.w3.org/2000/svg">
<path fill-rule="evenodd" clip-rule="evenodd" d="M15.4002 12.6003C15.4002 11.6328 16.0873 10.8257 17.0002 10.6403V16.8004H19.0002V10.2004C19.0002 9.75856 19.3584 9.40039 19.8002 9.40039C20.2421 9.40039 20.6002 9.75856 20.6002 10.2004V16.8004H22.6002V11.8404C23.5131 12.0257 24.2002 12.8328 24.2002 13.8004V23.6003C24.2002 25.2572 22.8571 26.6004 21.2002 26.6004H16.665C15.6112 26.6004 14.6347 26.0475 14.0925 25.1438L10.7791 19.6216C10.5544 19.247 10.6759 18.7612 11.0504 18.5364C11.4124 18.3192 11.8812 18.4246 12.1154 18.7759L13.5682 20.9551L15.4002 20.4004V16.8004H13.4002V17.2103C12.511 16.3469 11.1255 16.159 10.0214 16.8214C8.69972 17.6145 8.27113 19.3288 9.06416 20.6505L12.3775 26.1728C13.2812 27.6789 14.9087 28.6004 16.665 28.6004H21.2002C23.9617 28.6004 26.2002 26.3618 26.2002 23.6003V13.8004C26.2002 11.7173 24.608 10.0062 22.5743 9.81762C22.3877 8.45231 21.2168 7.40039 19.8002 7.40039C18.8488 7.40039 18.0081 7.87498 17.5022 8.60034H17.4002C15.1911 8.60034 13.4002 10.3912 13.4002 12.6003V16.8003H15.4002V12.6003Z" fill="#4A4A4A"/>
</svg>
