<svg xmlns="http://www.w3.org/2000/svg" width="28" height="28" viewBox="0 0 28 28" fill="none">
  <path fill-rule="evenodd" clip-rule="evenodd" d="M13.9992 4.375C13.4802 4.375 13.0892 4.783 13.0892 5.25V12.8333C13.0892 13.3166 12.6975 13.7083 12.2142 13.7083C11.731 13.7083 11.3392 13.3166 11.3392 12.8333V6.41667C11.3392 5.94967 10.9482 5.54167 10.4292 5.54167C9.91022 5.54167 9.51922 5.94967 9.51922 6.41667V16.3333C9.51922 16.8166 9.12747 17.2083 8.64422 17.2083C8.16097 17.2083 7.76922 16.8166 7.76922 16.3333V13.4167C7.76922 12.9497 7.37821 12.5417 6.85922 12.5417C6.34022 12.5417 5.94922 12.9497 5.94922 13.4167V15.75C5.94922 20.083 9.53691 23.625 13.9992 23.625C18.4615 23.625 22.0492 20.083 22.0492 15.75V9.91667C22.0492 9.44967 21.6582 9.04167 21.1392 9.04167C20.6202 9.04167 20.2292 9.44967 20.2292 9.91667V12.8333C20.2292 13.3166 19.8375 13.7083 19.3542 13.7083C18.871 13.7083 18.4792 13.3166 18.4792 12.8333V6.41667C18.4792 5.94967 18.0882 5.54167 17.5692 5.54167C17.0502 5.54167 16.6592 5.94967 16.6592 6.41667V12.8333C16.6592 13.3166 16.2675 13.7083 15.7842 13.7083C15.301 13.7083 14.9092 13.3166 14.9092 12.8333V5.25C14.9092 4.783 14.5182 4.375 13.9992 4.375ZM16.3767 4.07021C15.9365 3.20807 15.0296 2.625 13.9992 2.625C12.9689 2.625 12.0619 3.20807 11.6217 4.07021C11.2616 3.89172 10.856 3.79167 10.4292 3.79167C8.97656 3.79167 7.76922 4.95066 7.76922 6.41667V10.9498C7.48444 10.8474 7.17773 10.7917 6.85922 10.7917C5.40656 10.7917 4.19922 11.9507 4.19922 13.4167V15.75C4.19922 21.082 8.60324 25.375 13.9992 25.375C19.3952 25.375 23.7992 21.082 23.7992 15.75V9.91667C23.7992 8.45067 22.5919 7.29167 21.1392 7.29167C20.8207 7.29167 20.514 7.34738 20.2292 7.44984V6.41667C20.2292 4.95066 19.0219 3.79167 17.5692 3.79167C17.1424 3.79167 16.7368 3.89172 16.3767 4.07021Z" fill="#25262C"/>
</svg>
