<svg xmlns="http://www.w3.org/2000/svg" width="28" height="28" viewBox="0 0 28 28" fill="none">
  <path fill-rule="evenodd" clip-rule="evenodd" d="M19.6919 3.56919C20.9449 2.31641 22.9762 2.31645 24.2291 3.56934C25.482 4.82227 25.482 6.85367 24.2291 8.10661L10.4147 21.9144L10.3571 21.9719C9.58194 22.7472 9.11929 23.2099 8.59004 23.5883C8.12064 23.9239 7.61577 24.2069 7.08454 24.4322C6.48555 24.6862 5.84941 24.8394 4.78348 25.0962L3.68736 25.3602C3.40542 25.4281 3.10815 25.3519 2.89363 25.1568C2.67911 24.9616 2.57521 24.6729 2.61623 24.3858L2.68523 23.9028C2.86807 22.6223 2.97717 21.8582 3.22806 21.1374C3.45048 20.4984 3.75432 19.8907 4.13208 19.3294C4.55821 18.6961 5.10401 18.1504 6.0187 17.2358L6.08691 17.1676L19.6919 3.56919C19.692 3.56914 19.6919 3.56924 19.6919 3.56919ZM22.9916 4.80677C22.4221 4.23726 21.4987 4.23726 20.9292 4.80678L19.2466 6.48862L21.3061 8.55387L22.9916 6.86917C23.5611 6.29965 23.5611 5.37629 22.9916 4.80677ZM20.0684 9.79101L18.0088 7.72576L7.32435 18.4051C7.3243 18.4051 7.3244 18.405 7.32435 18.4051C6.32147 19.4079 5.90412 19.8306 5.58393 20.3064C5.29012 20.743 5.0538 21.2156 4.88081 21.7126C4.73806 22.1228 4.65313 22.5591 4.53322 23.3563C5.53188 23.115 5.98308 22.9985 6.40129 22.8211C6.81447 22.6459 7.20715 22.4258 7.57224 22.1648C7.96999 21.8804 8.3276 21.5266 9.17729 20.6769L20.0684 9.79101ZM14.2909 24.5001C14.2909 24.0168 14.6827 23.6251 15.1659 23.6251H24.4992C24.9825 23.6251 25.3742 24.0168 25.3742 24.5001C25.3742 24.9833 24.9825 25.3751 24.4992 25.3751H15.1659C14.6827 25.3751 14.2909 24.9833 14.2909 24.5001Z" fill="#25262C"/>
</svg>
