<svg xmlns="http://www.w3.org/2000/svg" width="28" height="28" viewBox="0 0 28 28" fill="none">
  <path fill-rule="evenodd" clip-rule="evenodd" d="M8.36482 3.79175H19.6358C20.259 3.79174 20.7792 3.79173 21.2041 3.82644C21.6473 3.86266 22.0634 3.94095 22.4569 4.14144C23.0606 4.44903 23.5514 4.93984 23.859 5.54353C24.0595 5.937 24.1378 6.3531 24.174 6.7963C24.2087 7.22123 24.2087 7.74138 24.2087 8.36455V19.6356C24.2087 20.2588 24.2087 20.7789 24.174 21.2039C24.1378 21.6471 24.0595 22.0632 23.859 22.4566C23.5514 23.0603 23.0606 23.5511 22.4569 23.8587C22.0634 24.0592 21.6473 24.1375 21.2041 24.1737C20.7792 24.2084 20.259 24.2084 19.6359 24.2084H8.3648C7.74163 24.2084 7.22148 24.2084 6.79654 24.1737C6.35335 24.1375 5.93725 24.0592 5.54377 23.8587C4.94009 23.5511 4.44927 23.0603 4.14168 22.4566C3.9412 22.0632 3.8629 21.6471 3.82669 21.2039C3.79197 20.7789 3.79198 20.2588 3.79199 19.6356V8.36457C3.79198 7.7414 3.79197 7.22124 3.82669 6.7963C3.8629 6.3531 3.9412 5.937 4.14168 5.54353C4.44927 4.93984 4.94009 4.44903 5.54377 4.14144C5.93725 3.94095 6.35335 3.86266 6.79654 3.82644C7.22148 3.79173 7.74164 3.79174 8.36482 3.79175ZM6.93905 5.57063C6.60407 5.598 6.44391 5.64686 6.33826 5.7007C6.06385 5.84051 5.84076 6.06361 5.70094 6.33801C5.64711 6.44367 5.59825 6.60383 5.57088 6.93881C5.54267 7.284 5.54199 7.73225 5.54199 8.40008V19.6001C5.54199 20.2679 5.54267 20.7162 5.57088 21.0614C5.59825 21.3963 5.64711 21.5565 5.70094 21.6622C5.84076 21.9366 6.06385 22.1597 6.33826 22.2995C6.44391 22.3533 6.60407 22.4022 6.93905 22.4295C7.28424 22.4577 7.73249 22.4584 8.40033 22.4584H19.6003C20.2682 22.4584 20.7164 22.4577 21.0616 22.4295C21.3966 22.4022 21.5567 22.3533 21.6624 22.2995C21.9368 22.1597 22.1599 21.9366 22.2997 21.6622C22.3535 21.5565 22.4024 21.3963 22.4298 21.0614C22.458 20.7162 22.4587 20.2679 22.4587 19.6001V8.40008C22.4587 7.73225 22.458 7.284 22.4298 6.93881C22.4024 6.60383 22.3535 6.44367 22.2997 6.33801C22.1599 6.06361 21.9368 5.84051 21.6624 5.7007C21.5567 5.64686 21.3966 5.598 21.0616 5.57063C20.7164 5.54243 20.2682 5.54175 19.6003 5.54175H8.40033C7.73249 5.54175 7.28424 5.54243 6.93905 5.57063Z" fill="#25262C"/>
</svg>
