<svg width="36" height="36" viewBox="0 0 36 36" fill="none" xmlns="http://www.w3.org/2000/svg">
<path fill-rule="evenodd" clip-rule="evenodd" d="M10.093 10.0937C9.81171 10.375 9.72389 10.7962 9.86934 11.1665L16.4693 27.9665C16.6248 28.3621 17.0133 28.6162 17.438 28.6001C17.8627 28.584 18.2309 28.3011 18.3559 27.8949L20.6002 20.6009L27.8942 18.3566C28.3004 18.2316 28.5833 17.8635 28.5994 17.4387C28.6155 17.014 28.3614 16.6255 27.9657 16.4701L11.1657 9.87006C10.7955 9.72461 10.3743 9.81243 10.093 10.0937ZM24.5729 17.286L19.506 18.845C19.1895 18.9424 18.9417 19.1902 18.8443 19.5067L17.2853 24.5737L12.5697 12.5704L24.5729 17.286Z" fill="#4A4A4A"/>
</svg>
