<svg xmlns="http://www.w3.org/2000/svg" width="28" height="28" viewBox="0 0 28 28" fill="none">
  <path fill-rule="evenodd" clip-rule="evenodd" d="M21.6515 6.11274C21.3382 6.20201 20.9163 6.36336 20.2793 6.60837L7.60668 11.4825C6.84393 11.7758 6.32612 11.9758 5.96908 12.1493C5.73098 12.265 5.64112 12.3351 5.61658 12.3544C5.59107 12.4236 5.59281 12.5001 5.62144 12.5682C5.64683 12.5863 5.73977 12.6522 5.98288 12.757C6.34743 12.9141 6.87379 13.0904 7.64908 13.3488L11.7271 14.7081C11.7484 14.7152 11.7698 14.7223 11.7913 14.7295C12.05 14.8151 12.3265 14.9066 12.5662 15.0706C12.7752 15.2135 12.9557 15.3941 13.0986 15.603C13.2626 15.8427 13.3542 16.1193 13.4398 16.3779C13.4469 16.3994 13.454 16.4209 13.4611 16.4421L14.8204 20.5202C15.0789 21.2954 15.2551 21.8218 15.4123 22.1864C15.517 22.4295 15.583 22.5224 15.6011 22.5478C15.6691 22.5764 15.7456 22.5782 15.8149 22.5527C15.8341 22.5281 15.9042 22.4383 16.0199 22.2002C16.1934 21.8431 16.3934 21.3253 16.6868 20.5625L21.5609 7.88992C21.8059 7.25291 21.9672 6.83101 22.0565 6.51773C22.1138 6.31654 22.1205 6.22527 22.1218 6.19957C22.0923 6.13134 22.0379 6.07689 21.9697 6.04743C21.944 6.04872 21.8527 6.05541 21.6515 6.11274ZM21.1719 4.42973C21.5574 4.3199 22.0366 4.2226 22.5047 4.38001C23.1103 4.58362 23.5856 5.05895 23.7892 5.6645C23.9466 6.13262 23.8493 6.61188 23.7395 6.99731C23.626 7.39555 23.4352 7.8916 23.2093 8.47897L18.3049 21.2303C18.0306 21.9436 17.8041 22.5324 17.5939 22.9651C17.3991 23.366 17.1208 23.8557 16.6348 24.1012C16.0266 24.4085 15.3053 24.3921 14.7117 24.0575C14.2373 23.7902 13.9816 23.2883 13.8052 22.879C13.6148 22.4373 13.4153 21.8388 13.1736 21.1137L11.8009 16.9955C11.744 16.8247 11.7116 16.7286 11.6835 16.6572C11.6661 16.6131 11.6568 16.5954 11.6541 16.5909C11.6338 16.5612 11.6081 16.5355 11.5784 16.5151C11.5738 16.5125 11.5562 16.5031 11.512 16.4857C11.4406 16.4576 11.3445 16.4253 11.1737 16.3683L7.05548 14.9956C6.33044 14.7539 5.73196 14.5545 5.29023 14.3641C4.8809 14.1876 4.37906 13.932 4.11169 13.4576C3.77712 12.864 3.76074 12.1426 4.068 11.5344C4.31356 11.0484 4.80327 10.7702 5.20417 10.5753C5.6368 10.3651 6.22563 10.1386 6.93896 9.8643L19.6902 4.95997C20.2776 4.73403 20.7737 4.54322 21.1719 4.42973Z" fill="#25262C"/>
</svg>
