<svg width="20" height="20" viewBox="0 0 20 20" fill="none" xmlns="http://www.w3.org/2000/svg">
<path d="M6 10C6.55228 10 7 9.55229 7 9C7 8.44771 6.55228 8 6 8C5.44772 8 5 8.44771 5 9C5 9.55229 5.44772 10 6 10Z" fill="#4A4A4A"/>
<path d="M15 9C15 9.55229 14.5523 10 14 10C13.4477 10 13 9.55229 13 9C13 8.44771 13.4477 8 14 8C14.5523 8 15 8.44771 15 9Z" fill="#4A4A4A"/>
<path d="M9 12C9 11.4477 8.55229 11 8 11C7.44772 11 7 11.4477 7 12C7 13.0523 7.94772 14.5 10 14.5C12.0523 14.5 13 13.0523 13 12C13 11.4477 12.5523 11 12 11C11.4477 11 11 11.4477 11 12C11 11.9921 10.9996 11.9935 10.997 12.002C10.989 12.0288 10.9597 12.1261 10.8554 12.2304C10.7478 12.3379 10.5105 12.5 10 12.5C9.48954 12.5 9.25216 12.3379 9.14461 12.2304C9.0403 12.1261 9.01103 12.0288 9.00298 12.002C9.00041 11.9935 9 11.9921 9 12Z" fill="#4A4A4A"/>
<path fill-rule="evenodd" clip-rule="evenodd" d="M10 0C4.47715 0 0 4.47715 0 10C0 15.5228 4.47715 20 10 20C15.5228 20 20 15.5228 20 10C20 4.47715 15.5228 0 10 0ZM2 10C2 5.58172 5.58172 2 10 2C14.4183 2 18 5.58172 18 10C18 14.4183 14.4183 18 10 18C5.58172 18 2 14.4183 2 10Z" fill="#4A4A4A"/>
</svg>
