<svg xmlns="http://www.w3.org/2000/svg" width="28" height="28" viewBox="0 0 28 28" fill="none">
  <path fill-rule="evenodd" clip-rule="evenodd" d="M14 4.375C8.68426 4.375 4.375 8.68426 4.375 14C4.375 19.3157 8.68426 23.625 14 23.625C19.3157 23.625 23.625 19.3157 23.625 14C23.625 8.68426 19.3157 4.375 14 4.375ZM2.625 14C2.625 7.71776 7.71776 2.625 14 2.625C20.2822 2.625 25.375 7.71776 25.375 14C25.375 20.2822 20.2822 25.375 14 25.375C7.71776 25.375 2.625 20.2822 2.625 14ZM9.45 10.85C9.45 10.0768 10.0768 9.45 10.85 9.45C11.6232 9.45 12.25 10.0768 12.25 10.85C12.25 11.6232 11.6232 12.25 10.85 12.25C10.0768 12.25 9.45 11.6232 9.45 10.85ZM15.75 10.85C15.75 10.0768 16.3768 9.45 17.15 9.45C17.9232 9.45 18.55 10.0768 18.55 10.85C18.55 11.6232 17.9232 12.25 17.15 12.25C16.3768 12.25 15.75 11.6232 15.75 10.85ZM10.4978 15.5721C10.2073 15.188 9.66062 15.1108 9.275 15.4C8.8884 15.6899 8.81005 16.2384 9.1 16.625L9.8 16.1C9.1 16.625 9.09978 16.6247 9.1 16.625L9.10089 16.6262L9.10194 16.6276L9.10448 16.6309L9.11136 16.6399L9.13229 16.6667C9.1494 16.6883 9.17287 16.7174 9.20257 16.7527C9.26192 16.8235 9.3465 16.9199 9.45537 17.0335C9.67238 17.26 9.99003 17.5588 10.401 17.8576C11.2195 18.4529 12.4464 19.075 14 19.075C15.5536 19.075 16.7805 18.4529 17.599 17.8576C18.01 17.5588 18.3276 17.26 18.5446 17.0335C18.6535 16.9199 18.7381 16.8235 18.7974 16.7527C18.8271 16.7174 18.8506 16.6883 18.8677 16.6667L18.8886 16.6399L18.8955 16.6309L18.8981 16.6276L18.8991 16.6262C18.8993 16.6259 18.9 16.625 18.2 16.1L18.9 16.625C19.1899 16.2384 19.1116 15.6899 18.725 15.4C18.3394 15.1108 17.7927 15.188 17.5021 15.5721L17.4956 15.5805C17.4884 15.5896 17.4755 15.6057 17.457 15.6277C17.4199 15.6719 17.361 15.7394 17.2811 15.8227C17.1208 15.99 16.8807 16.2162 16.5697 16.4424C15.9445 16.8971 15.0714 17.325 14 17.325C12.9286 17.325 12.0555 16.8971 11.4303 16.4424C11.1193 16.2162 10.8792 15.99 10.7188 15.8227C10.639 15.7394 10.5801 15.6719 10.543 15.6277C10.5245 15.6057 10.5116 15.5896 10.5044 15.5805L10.4978 15.5721Z" fill="#25262C"/>
</svg>
