<svg xmlns="http://www.w3.org/2000/svg" width="28" height="28" viewBox="0 0 28 28" fill="none">
  <path d="M11.8963 20C10.6239 20 9.6564 19.7079 8.99384 19.1238C8.33128 18.5325 8 17.7026 8 16.634C8 15.537 8.47433 14.6572 9.423 13.9947C10.3717 13.325 11.6893 12.9902 13.3758 12.9902H15.5554V11.8575C15.5554 11.1594 15.3296 10.618 14.8778 10.2333C14.4336 9.84862 13.8049 9.65628 12.9918 9.65628C12.4798 9.65628 12.0356 9.71683 11.6591 9.83793C11.2827 9.95191 10.9401 10.1122 10.6314 10.3188L10.3943 11.9323H8.67762V9.28228C9.78439 8.42743 11.2337 8 13.0257 8C14.5089 8 15.6721 8.33482 16.5154 9.00445C17.3587 9.67409 17.7803 10.6322 17.7803 11.8789V17.4461C17.7803 17.5957 17.7803 17.7418 17.7803 17.8842C17.7878 18.0267 17.7991 18.1692 17.8142 18.3117L19 18.4292V19.7756H15.8039C15.6759 19.1915 15.5969 18.6607 15.5667 18.1834C15.1376 18.7035 14.5992 19.138 13.9517 19.4871C13.3118 19.829 12.6266 20 11.8963 20ZM12.2238 18.2369C12.9617 18.2369 13.6355 18.0695 14.2454 17.7346C14.8552 17.3998 15.2919 16.9973 15.5554 16.5272V14.4328H13.2967C12.2728 14.4328 11.5048 14.6643 10.9928 15.1273C10.4808 15.5904 10.2248 16.1069 10.2248 16.6768C10.2248 17.7168 10.8912 18.2369 12.2238 18.2369Z" fill="#25262C"/>
</svg>
