<svg width="36" height="36" viewBox="0 0 36 36" fill="none" xmlns="http://www.w3.org/2000/svg">
<path d="M11.096 22H9.112L13.848 10.768H15.576L20.312 22H18.216L17.048 19.136H12.264L11.096 22ZM16.296 17.296L14.664 13.312L13.016 17.296H16.296ZM22.0215 16.656L21.5575 15.312C22.3362 14.8533 23.1842 14.624 24.1015 14.624C25.1042 14.624 25.8348 14.8693 26.2935 15.36C26.7522 15.8507 26.9815 16.6027 26.9815 17.616V22H25.3815V21.168C24.9548 21.7867 24.2455 22.096 23.2535 22.096C22.5708 22.096 22.0215 21.8987 21.6055 21.504C21.2002 21.0987 20.9975 20.56 20.9975 19.888C20.9975 19.1413 21.2375 18.5653 21.7175 18.16C22.1975 17.7547 22.8322 17.552 23.6215 17.552C24.2722 17.552 24.8162 17.7067 25.2535 18.016C25.2748 17.376 25.1788 16.9067 24.9655 16.608C24.7628 16.3093 24.4108 16.16 23.9095 16.16C23.3548 16.16 22.7255 16.3253 22.0215 16.656ZM23.8615 20.544C24.4802 20.544 24.9442 20.3253 25.2535 19.888V19.152C24.9548 18.9173 24.5335 18.8 23.9895 18.8C23.6482 18.8 23.3708 18.88 23.1575 19.04C22.9442 19.2 22.8375 19.4187 22.8375 19.696C22.8375 19.952 22.9335 20.16 23.1255 20.32C23.3175 20.4693 23.5628 20.544 23.8615 20.544Z" fill="#4A4A4A"/>
</svg>
