<svg xmlns="http://www.w3.org/2000/svg" width="28" height="28" viewBox="0 0 28 28" fill="none">
  <path d="M13.3927 18.6666C12.448 18.6666 11.7298 18.4394 11.2379 17.9851C10.746 17.5252 10.5 16.8797 10.5 16.0486C10.5 15.1953 10.8522 14.511 11.5565 13.9958C12.2608 13.4749 13.239 13.2145 14.4911 13.2145H16.1093V12.3335C16.1093 11.7906 15.9416 11.3695 15.6063 11.0703C15.2765 10.7711 14.8097 10.6215 14.206 10.6215C13.8259 10.6215 13.4961 10.6686 13.2166 10.7628C12.9371 10.8514 12.6828 10.9761 12.4536 11.1368L12.2775 12.3917H11.0031V10.3306C11.8248 9.66569 12.9008 9.33325 14.2312 9.33325C15.3324 9.33325 16.196 9.59367 16.822 10.1145C17.4481 10.6353 17.7611 11.3805 17.7611 12.3502V16.6802C17.7611 16.7966 17.7611 16.9102 17.7611 17.021C17.7667 17.1318 17.7751 17.2426 17.7863 17.3534L18.6667 17.4449V18.4921H16.2938C16.1988 18.0377 16.1401 17.6249 16.1177 17.2537C15.7991 17.6582 15.3994 17.9962 14.9187 18.2677C14.4436 18.5336 13.9349 18.6666 13.3927 18.6666ZM13.6359 17.2953C14.1837 17.2953 14.6839 17.1651 15.1367 16.9046C15.5895 16.6442 15.9137 16.3312 16.1093 15.9655V14.3365H14.4324C13.6722 14.3365 13.102 14.5166 12.7219 14.8767C12.3418 15.2369 12.1518 15.6386 12.1518 16.0818C12.1518 16.8908 12.6465 17.2953 13.6359 17.2953Z" fill="#25262C"/>
</svg>
