<svg xmlns="http://www.w3.org/2000/svg" width="28" height="28" viewBox="0 0 28 28" fill="none">
  <path fill-rule="evenodd" clip-rule="evenodd" d="M4.95801 3.5C4.95801 3.01675 5.34976 2.625 5.83301 2.625H22.1663C22.6496 2.625 23.0413 3.01675 23.0413 3.5V7C23.0413 7.48325 22.6496 7.875 22.1663 7.875C21.6831 7.875 21.2913 7.48325 21.2913 7V4.375H14.8747V23.625H17.4997C17.9829 23.625 18.3747 24.0168 18.3747 24.5C18.3747 24.9832 17.9829 25.375 17.4997 25.375H10.4997C10.0164 25.375 9.62467 24.9832 9.62467 24.5C9.62467 24.0168 10.0164 23.625 10.4997 23.625H13.1247V4.375H6.70801V7C6.70801 7.48325 6.31626 7.875 5.83301 7.875C5.34976 7.875 4.95801 7.48325 4.95801 7V3.5Z" fill="#25262C"/>
</svg>
