<svg xmlns="http://www.w3.org/2000/svg" width="28" height="28" viewBox="0 0 28 28" fill="none">
  <path d="M11.6674 23C9.81656 23 8.40931 22.5619 7.44559 21.6857C6.48186 20.7988 6 19.5539 6 17.951C6 16.3054 6.68994 14.9858 8.06982 13.992C9.44969 12.9875 11.3662 12.4853 13.8193 12.4853H16.9897V10.7863C16.9897 9.73909 16.6612 8.92698 16.0041 8.34996C15.358 7.77293 14.4435 7.48442 13.2608 7.48442C12.5161 7.48442 11.87 7.57524 11.3224 7.7569C10.7748 7.92787 10.2765 8.1683 9.82752 8.47818L9.48255 10.8985H6.98563V6.92342C8.59548 5.64114 10.7036 5 13.3101 5C15.4675 5 17.1595 5.50223 18.386 6.50668C19.6126 7.51113 20.2259 8.94835 20.2259 10.8183V19.1692C20.2259 19.3936 20.2259 19.6126 20.2259 19.8264C20.2368 20.0401 20.2533 20.2538 20.2752 20.4675L22 20.6438V22.6634H17.3511C17.165 21.7872 17.05 20.9911 17.0062 20.2752C16.3819 21.0552 15.5989 21.707 14.6571 22.2306C13.7262 22.7435 12.7296 23 11.6674 23ZM12.1437 20.3553C13.217 20.3553 14.1971 20.1042 15.0842 19.602C15.9713 19.0997 16.6064 18.496 16.9897 17.7907V14.6492H13.7043C12.2149 14.6492 11.0979 14.9964 10.3532 15.691C9.60849 16.3856 9.23614 17.1603 9.23614 18.0151C9.23614 19.5752 10.2053 20.3553 12.1437 20.3553Z" fill="#25262C"/>
</svg>
