<svg xmlns="http://www.w3.org/2000/svg" width="25" height="24" viewBox="0 0 25 24" fill="none">
  <path fill-rule="evenodd" clip-rule="evenodd" d="M2.75 4C2.75 3.58579 3.08579 3.25 3.5 3.25H13.5C13.9142 3.25 14.25 3.58579 14.25 4V7C14.25 7.41421 13.9142 7.75 13.5 7.75C13.0858 7.75 12.75 7.41421 12.75 7V4.75H9.25V19.25H10.5C10.9142 19.25 11.25 19.5858 11.25 20C11.25 20.4142 10.9142 20.75 10.5 20.75H6.5C6.08579 20.75 5.75 20.4142 5.75 20C5.75 19.5858 6.08579 19.25 6.5 19.25H7.75V4.75H4.25V7C4.25 7.41421 3.91421 7.75 3.5 7.75C3.08579 7.75 2.75 7.41421 2.75 7V4ZM12.75 12C12.75 11.5858 13.0858 11.25 13.5 11.25H21.5C21.9142 11.25 22.25 11.5858 22.25 12V14C22.25 14.4142 21.9142 14.75 21.5 14.75C21.0858 14.75 20.75 14.4142 20.75 14V12.75H18.25V19.25H19.5C19.9142 19.25 20.25 19.5858 20.25 20C20.25 20.4142 19.9142 20.75 19.5 20.75H15.5C15.0858 20.75 14.75 20.4142 14.75 20C14.75 19.5858 15.0858 19.25 15.5 19.25H16.75V12.75H14.25V14C14.25 14.4142 13.9142 14.75 13.5 14.75C13.0858 14.75 12.75 14.4142 12.75 14V12Z" fill="#25262C"/>
</svg>
