<svg xmlns="http://www.w3.org/2000/svg" width="28" height="28" viewBox="0 0 28 28" fill="none">
  <path fill-rule="evenodd" clip-rule="evenodd" d="M13.8934 5.72115C13.8778 5.73601 13.8242 5.79046 13.7292 5.93596C13.5779 6.16775 13.3988 6.50417 13.1231 7.02494L5.72348 21.002C5.47611 21.4693 5.31965 21.7667 5.22514 21.9931C5.16652 22.1335 5.15321 22.1991 5.15021 22.2177C5.16287 22.2881 5.20101 22.3514 5.25732 22.3956C5.27517 22.4016 5.33938 22.4205 5.49088 22.4344C5.73517 22.4568 6.07122 22.4577 6.5999 22.4577H21.3992C21.9279 22.4577 22.2639 22.4568 22.5082 22.4344C22.6597 22.4205 22.7239 22.4016 22.7418 22.3956C22.7981 22.3514 22.8362 22.2881 22.8489 22.2177C22.8459 22.1991 22.8326 22.1335 22.774 21.9931C22.6794 21.7667 22.523 21.4693 22.2756 21.002L14.876 7.02493C14.6003 6.50416 14.4212 6.16775 14.2699 5.93596C14.1749 5.79046 14.1213 5.73601 14.1056 5.72115C14.0374 5.69451 13.9617 5.69451 13.8934 5.72115ZM14.8573 4.14007C15.2671 4.3298 15.5351 4.67261 15.7354 4.97952C15.9359 5.28672 16.1523 5.69552 16.4036 6.17025L23.8405 20.2178C24.0642 20.6403 24.2596 21.0093 24.3889 21.3188C24.5206 21.6345 24.6408 22.0147 24.5862 22.4315C24.5123 22.9949 24.207 23.502 23.7436 23.8309C23.4008 24.0742 23.0085 24.1459 22.6679 24.1771C22.3339 24.2077 21.9163 24.2077 21.4383 24.2077H6.56082C6.08277 24.2077 5.66518 24.2077 5.33117 24.1771C4.99054 24.1459 4.59829 24.0742 4.25547 23.8309C3.79214 23.502 3.48683 22.9949 3.41294 22.4315C3.35827 22.0147 3.47845 21.6345 3.61024 21.3188C3.73946 21.0093 3.93485 20.6403 4.15853 20.2178L11.5955 6.17028C11.8468 5.69554 12.0632 5.28673 12.2637 4.97952C12.464 4.67261 12.732 4.3298 13.1418 4.14007C13.6859 3.8882 14.3132 3.8882 14.8573 4.14007Z" fill="#25262C"/>
</svg>
